<svg width="147" height="153" viewBox="0 0 147 153" fill="none" xmlns="http://www.w3.org/2000/svg">
<mask id="mask0_267_4053" style="mask-type:luminance" maskUnits="userSpaceOnUse" x="14" y="12" width="119" height="130">
<path d="M132.336 12H14V142H132.336V12Z" fill="white"/>
</mask>
<g mask="url(#mask0_267_4053)">
<mask id="mask1_267_4053" style="mask-type:luminance" maskUnits="userSpaceOnUse" x="14" y="12" width="119" height="130">
<path d="M132.336 12H14V142H132.336V12Z" fill="white"/>
</mask>
<g mask="url(#mask1_267_4053)">
<mask id="mask2_267_4053" style="mask-type:luminance" maskUnits="userSpaceOnUse" x="14" y="12" width="119" height="130">
<path d="M132.124 12.6357H14.6357V141.575H132.124V12.6357Z" fill="white"/>
</mask>
<g mask="url(#mask2_267_4053)">
<path d="M128.094 65.4412C127.882 66.2895 127.67 67.3499 127.458 68.1982C127.458 68.4102 127.246 68.6223 127.034 68.8344C125.762 63.5326 123.005 59.7153 119.611 56.5342C113.885 51.0203 107.099 47.2031 100.525 43.3858C96.4956 41.053 92.2542 38.9323 88.861 35.5391C88.4369 35.115 88.2248 34.6908 87.5886 33.8425C90.3455 34.9029 92.8904 35.9632 95.4352 37.0236C98.4043 38.296 101.373 39.3564 104.554 40.6288C109.008 42.3254 113.037 44.4461 116.43 48.2634C116.43 48.4755 116.642 48.4755 116.854 48.4755L117.279 48.2634C116.43 46.7789 115.582 45.0823 114.522 43.8099C112.189 40.8409 109.008 39.3564 105.827 37.8719C102.222 36.1753 98.4042 34.4787 94.799 32.7822C94.1628 32.358 93.5266 31.7218 93.1025 31.0856C96.2835 31.9339 99.6767 32.7822 102.646 33.8425C106.463 35.327 110.28 36.8115 113.885 38.5081C117.915 40.4168 121.52 43.1737 124.277 46.991C128.306 52.2928 129.579 58.6549 128.094 65.4412ZM118.763 85.8001C117.915 88.7691 116.854 91.5261 116.006 94.283C116.006 94.4951 115.794 94.7071 115.794 94.9192C115.794 95.1313 115.582 95.1313 115.37 95.1313C113.885 90.0415 110.916 85.8001 107.311 81.9828C106.675 81.3466 106.039 80.7104 105.403 80.0742C105.191 79.8621 104.978 79.2259 104.978 78.8018C105.615 76.2569 106.463 76.0448 108.16 77.9535C109.432 79.2259 110.492 80.4983 111.341 81.9828C112.189 83.2553 113.037 84.9518 113.885 86.4363C114.522 83.0432 113.249 80.2862 111.977 77.5293C111.341 76.2569 110.492 74.7724 109.432 73.712C108.16 72.4396 108.16 70.9551 108.584 69.2585C109.432 65.2292 109.008 61.1998 108.584 57.1704C108.372 55.2618 108.16 53.3531 107.947 51.4445C114.098 55.4739 117.703 61.4119 119.187 68.6223C120.672 74.3482 120.46 80.2862 118.763 85.8001ZM104.13 103.19C102.646 107.856 100.101 112.097 97.1318 115.914C95.6473 117.823 93.9507 119.52 92.0421 121.428C90.5576 115.914 86.5282 112.733 83.1351 109.128C81.4385 107.219 79.7419 105.311 77.8333 103.19C79.3178 102.342 80.3782 101.705 81.6506 101.069C82.7109 104.038 84.6196 106.159 86.3162 108.28C88.6489 110.825 90.7697 113.369 93.3145 116.126C95.4352 113.582 97.768 111.037 99.6767 108.068C101.373 105.735 102.009 102.978 101.797 100.009C100.101 104.887 97.1318 108.916 93.3145 111.461C91.1938 108.28 89.0731 105.311 87.1644 102.342C86.7403 101.705 86.3162 100.857 85.892 100.221C85.2558 99.1606 85.2558 98.1003 86.3162 97.0399C89.4972 94.0709 92.0421 90.4657 93.5266 86.0122C94.1628 84.1035 94.1628 82.1949 94.799 80.2862C96.0715 83.6794 95.6473 86.8605 94.587 90.0415C94.799 90.0415 94.799 90.2536 95.0111 90.2536C97.3439 88.1329 99.6767 85.8001 102.434 83.4673C103.282 85.588 104.342 87.7088 104.978 90.0415C106.039 94.283 105.615 98.7365 104.13 103.19ZM83.5592 122.276C82.4989 127.366 73.5919 135.849 72.9556 135.849C71.047 136.061 62.7762 126.306 62.14 122.064C61.7158 119.732 61.7158 117.399 61.9279 115.066C61.9279 114.218 63.2003 113.369 63.8366 112.521C65.7452 110.188 67.4418 107.644 69.1383 105.311C69.7746 104.25 70.4108 104.038 71.2591 104.675C72.3194 105.523 73.1677 105.311 74.2281 104.675C75.0764 104.038 75.5005 104.25 76.1367 105.099C78.2574 108.068 80.3782 110.825 82.4989 113.582C83.5592 115.066 83.7713 115.066 83.7713 118.459C83.9834 119.732 83.7713 121.004 83.5592 122.276ZM55.3537 117.611C54.7175 118.459 54.2933 119.732 53.6571 121.216C52.1726 119.732 50.6881 118.247 49.4157 116.763C46.4467 113.157 43.9018 109.34 42.4173 104.675C40.9328 100.433 40.0845 95.9796 40.9328 91.314C41.569 88.5571 42.4173 86.0122 43.6897 83.6794C46.2346 86.0122 48.5674 88.1329 50.9002 90.4657C50.0519 87.0725 49.6277 83.6794 50.6881 80.2862C51.7485 83.4673 52.3847 86.4363 53.445 89.4053C54.7175 92.5864 56.8382 94.9192 59.171 97.252C60.2313 98.3124 60.2313 99.1606 59.5951 100.221C58.7468 101.918 57.4744 103.402 56.414 104.887C54.9295 107.007 53.6571 109.128 52.1726 111.461C48.3553 108.916 45.3863 105.099 43.6897 100.009C43.2656 103.19 43.4777 107.007 52.5967 116.338C55.3537 110.613 61.5038 107.644 63.8366 101.069C64.8969 101.705 65.9573 102.13 67.0176 102.766C67.2297 102.766 67.0176 103.826 66.8056 104.038C65.3211 105.735 63.6245 107.431 62.14 109.128C60.0193 111.885 57.6865 114.642 55.3537 117.611ZM32.2379 91.314C31.6016 92.5864 31.1775 94.0709 30.5413 95.7675C29.693 94.0709 29.0568 92.3743 28.4206 90.6778C26.724 85.588 25.6636 80.2862 25.8757 74.9845C26.0878 65.2292 29.4809 57.3825 37.1155 51.8686C37.3276 51.8686 37.3276 51.6566 37.5397 51.6566C37.5397 51.6566 37.5397 51.6566 37.7517 51.6566C37.5397 54.2014 37.3276 56.9584 36.9034 59.5032C36.4793 63.3205 36.6914 67.3499 37.5397 71.1672C37.5397 71.5913 37.3276 72.0154 37.1155 72.4396C35.8431 74.5603 34.3586 76.681 33.2982 79.0138C32.2379 81.1345 31.3896 83.6794 32.0258 86.6484C33.2982 83.0432 35.2069 80.2862 37.7517 77.9535C37.7517 77.9535 37.7517 77.9535 37.7517 77.7414C39.4483 76.0448 40.2966 76.2569 40.9328 78.8018C40.9328 79.2259 40.9328 79.8621 40.7207 79.8621C37.1155 83.2553 34.5706 87.0725 32.2379 91.314ZM22.2705 61.1998C20.786 63.5326 19.7256 65.8654 18.4532 68.4102C18.2411 66.9257 17.817 65.0171 17.6049 63.1084C16.5445 54.4135 19.7256 47.4151 26.0878 42.1133C29.9051 38.9323 34.1465 36.8115 38.8121 35.327C42.6294 34.0546 46.4467 32.7822 50.264 31.5097C51.3243 31.0856 52.3847 30.8735 53.8692 30.4494C53.0209 31.2977 52.3847 31.9339 51.7485 32.146C48.7795 33.6305 45.5984 34.9029 42.6294 36.1753C38.1759 38.296 33.5103 40.2047 30.5413 45.0823C29.9051 45.9306 29.4809 46.991 29.2689 48.0513C31.6016 45.2944 34.5706 43.3858 37.7517 41.9013C40.7207 40.4168 43.9018 39.3564 47.0829 38.084C50.9002 36.5995 54.7175 35.115 58.7468 33.8425C57.0503 35.327 55.5658 37.0236 53.6571 38.084C47.507 41.9013 41.1449 45.2944 35.2069 49.3238C30.3292 52.7169 25.4516 56.1101 22.2705 61.1998ZM32.8741 24.0872C31.8137 23.2389 30.5413 22.8148 29.2689 21.9665C30.1171 20.0579 31.8137 18.5734 33.7224 17.513C37.9638 15.6044 42.2052 15.6044 46.6587 16.2406C52.3847 17.3009 58.1106 17.9371 64.0486 18.7854C62.9883 19.8458 62.14 21.1182 60.8675 22.1786C57.2623 25.1476 53.233 25.9959 48.9915 25.1476C47.0829 24.7234 45.3863 23.451 43.6897 22.8148C41.7811 21.9665 39.8724 21.1182 37.7517 20.6941C36.9034 20.482 35.8431 20.6941 35.2069 20.9062C36.9034 22.1786 38.3879 23.2389 40.0845 24.2993C41.7811 25.3597 43.4777 26.42 45.1742 27.6924C44.7501 27.6924 44.326 27.9045 43.9018 27.9045C39.6604 28.1166 36.0551 26.6321 32.8741 24.0872ZM67.0176 34.9029C67.2297 32.7822 68.078 31.9339 69.7746 30.6615C70.1987 32.7822 70.4108 34.4787 70.6228 36.1753C72.1073 44.4461 69.9866 51.8686 65.109 58.0187C61.2917 62.8964 56.8382 67.3499 52.5967 72.0154C50.6881 74.1362 48.7795 76.2569 48.1432 79.0138C47.9312 80.0742 47.9312 81.1345 47.7191 81.9828C42.8414 77.9535 36.9034 59.9274 41.1449 52.2928C41.7811 54.8376 42.2052 57.3825 42.8414 59.9274C43.0535 59.9274 43.2656 59.9274 43.2656 59.9274C45.3863 48.6876 51.9605 41.9013 61.2917 37.0236C61.7158 47.8393 57.4744 56.5342 52.8088 65.4412C54.7175 63.7447 56.6261 62.4722 58.3227 60.5636C62.14 56.7463 64.4728 51.8686 65.5331 46.3548C66.3814 42.9616 66.8056 38.9323 67.0176 34.9029ZM61.9279 85.8001C62.14 86.0122 62.5641 86.0122 62.352 85.588C61.5038 78.8018 61.2917 71.1672 61.9279 66.9257C65.7452 63.3205 68.9263 59.0791 71.4711 54.4135C71.4711 54.4135 71.2591 76.681 72.7436 76.681C74.016 76.681 74.6522 62.0481 74.8643 55.4739C76.5609 58.6549 78.8936 61.4119 81.2264 63.9567C83.3472 66.2895 85.892 68.6223 88.2248 70.9551C89.0731 71.8034 89.4972 72.4396 89.4972 73.712C89.4972 77.3172 89.4972 81.1345 88.4369 84.7398C87.1644 89.1933 84.8317 93.2226 81.4385 96.1916C79.1057 98.1003 76.3488 99.5848 74.016 101.493C72.9556 102.342 72.1073 101.493 71.4711 101.281C66.1693 98.3123 61.5038 94.283 58.9589 88.1329C57.4744 84.5277 56.8382 80.4983 56.6261 76.469C56.6261 73.5 57.2623 71.5913 59.383 69.6827C58.9589 72.4396 58.9589 79.65 61.9279 85.8001ZM75.5005 35.9632C75.7126 34.2667 76.1367 32.7822 76.3488 31.0856C79.1057 32.9942 79.3178 34.0546 78.8936 37.2357C78.6816 38.7202 79.1057 40.2047 79.3178 41.6892C80.8023 50.8083 83.9834 59.0791 91.4059 64.3809C92.0421 64.805 92.6783 65.2292 93.3145 65.6533C89.7093 60.1394 87.3765 54.2014 85.6799 47.8393C84.8317 44.6582 84.8317 41.265 84.6196 37.6598C93.9507 42.1133 100.525 49.1117 102.646 60.1394C102.858 60.1394 103.07 60.1394 103.282 60.1394C103.706 57.5946 104.342 55.2618 104.766 52.7169C108.796 57.1704 104.13 77.9535 98.1922 82.407C98.4043 77.3172 95.2232 74.3482 92.4662 71.1672C88.861 67.1378 85.0437 63.3205 81.6506 59.2911C78.8936 56.1101 76.985 52.0807 75.7126 47.8393C74.6522 44.022 74.8643 39.9926 75.5005 35.9632ZM82.2868 18.7854C82.2868 18.7854 82.4989 18.5734 82.7109 18.5734C87.1645 18.9975 91.618 17.513 95.8594 16.8768C100.525 16.2406 105.191 15.3923 109.856 16.6647C112.825 17.513 115.37 19.2096 116.642 21.9665C114.946 23.0269 113.461 23.8752 112.189 24.7234C109.432 26.8442 106.251 27.9045 102.858 27.9045C102.434 27.9045 101.797 27.9045 101.373 27.6924C104.766 25.3597 107.947 23.0269 111.341 20.6941C110.492 20.6941 109.432 20.2699 108.372 20.482C105.615 21.3303 103.07 22.3907 100.525 23.6631C94.1628 27.0562 85.892 24.2993 82.2868 18.5734C82.0747 18.9975 82.2868 18.7854 82.2868 18.7854ZM131.275 56.9584C130.851 52.7169 129.155 48.8996 126.822 45.5065C121.944 38.9323 115.794 34.2667 108.16 31.0856C113.037 29.6011 116.854 25.1476 122.58 26.8442C121.096 24.2993 120.036 21.7544 118.551 19.8458C116.642 16.8768 113.885 14.7561 110.704 13.6957C105.403 11.7871 100.101 12.8474 95.0111 13.9078C90.7697 14.7561 86.3162 15.8164 81.8626 15.6044C78.8936 15.6044 76.1367 14.7561 73.8039 12.8474C73.3798 12.6354 72.5315 12.4233 72.1073 12.8474C68.2901 15.8164 63.8366 16.0285 59.5951 15.3923C54.5054 14.7561 49.4157 13.4836 44.1139 12.6354C40.0845 11.9991 36.0551 12.8474 32.4499 14.9681C28.2085 17.7251 25.6636 21.9665 23.755 26.8442C24.3912 26.8442 25.0274 26.6321 25.6636 26.6321C27.7844 26.42 29.693 27.2683 31.6016 28.3287C33.5103 29.389 35.631 30.4494 37.3276 31.2977C34.3586 32.9942 31.3896 34.6908 28.4206 36.5995C21.8463 41.265 16.5445 47.2031 14.848 55.898C14.2118 59.2911 14.4238 63.1084 14.6359 66.5016C15.06 69.4706 16.1204 72.4396 17.1808 75.4086C17.817 77.1052 18.6653 78.3776 19.3015 79.8621C20.1498 77.1052 20.786 74.5603 21.4222 72.2275C21.6343 72.2275 21.8463 72.2275 22.0584 72.4396C22.4826 73.9241 22.6946 75.6207 22.6946 77.3172C22.9067 80.2862 23.1188 83.4673 23.755 86.4363C24.6033 90.0415 25.8757 93.4347 27.3602 96.8279C28.2085 99.1606 29.9051 101.069 31.8137 102.554C32.0258 97.6761 33.7224 92.5864 36.0551 91.7381C36.4793 99.3727 38.1759 106.371 41.3569 113.157C44.538 119.732 48.7795 125.458 55.1416 129.275C55.1416 124.609 55.5658 120.58 58.3227 116.975C57.8985 134.152 71.4711 141.787 73.1677 141.787C74.2281 141.787 88.861 132.032 88.0127 117.187C90.5576 120.58 90.7697 124.821 90.9817 129.487C103.706 120.368 108.796 107.219 110.28 91.7381C112.825 94.0709 113.673 95.7675 114.522 102.766C115.37 101.918 116.43 101.069 117.067 100.009C119.399 96.8279 120.884 93.0106 121.732 88.9812C122.793 84.7398 123.429 80.4983 123.429 76.2569C123.429 74.9845 123.641 73.712 123.853 72.4396C124.065 72.4396 124.277 72.4396 124.277 72.4396C124.913 74.9845 125.762 77.3172 126.398 79.8621C126.61 79.65 126.822 79.65 126.822 79.438C128.518 76.0448 130.003 72.4396 130.851 68.6223C131.7 64.3809 131.7 60.5636 131.275 56.9584Z" fill="#004268"/>
</g>
</g>
<mask id="mask3_267_4053" style="mask-type:luminance" maskUnits="userSpaceOnUse" x="14" y="12" width="119" height="130">
<path d="M132.336 12H14V142H132.336V12Z" fill="white"/>
</mask>
<g mask="url(#mask3_267_4053)">
<path d="M77.6209 125.459C73.8037 128.64 73.1674 128.852 69.9864 126.731C69.3501 126.307 68.926 125.883 68.5019 125.459C67.2294 123.974 66.1691 122.278 64.6846 120.581C64.8966 121.854 65.1087 122.702 65.3208 123.55C66.3811 126.731 68.5019 129.064 71.0467 130.973C72.3192 131.821 73.5916 132.457 74.864 131.185C75.7123 130.336 76.9847 129.912 77.833 129.064C79.9537 126.943 81.0141 124.186 81.4382 121.005C79.9537 122.49 78.8934 124.398 77.6209 125.459Z" fill="#004268"/>
</g>
</g>
</svg>
