<svg width="36" height="69" viewBox="0 0 36 69" fill="none" xmlns="http://www.w3.org/2000/svg">
<path d="M27.9336 61.1812C27.9336 61.1812 27.9336 61.1417 27.9336 61.1258C27.9336 53.8927 27.8193 35.881 27.7279 30.8004C27.7279 30.0881 27.7279 29.6291 27.7279 29.4946C27.6136 28.4579 26.6536 26.6931 25.2974 24.319C24.7748 23.4599 24.3065 22.5664 23.8956 21.6442C23.7816 20.8082 23.7434 19.963 23.7813 19.1197C23.8037 17.4902 23.7146 15.8612 23.5146 14.2448C23.3089 12.8283 22.4175 7.63685 22.1889 6.39439C22.5047 6.05425 22.6821 5.60073 22.6841 5.12819C22.6818 4.82879 22.6141 4.53385 22.4861 4.26559C22.6171 4.13168 22.7178 3.96922 22.7811 3.78994C22.8443 3.61066 22.8685 3.41904 22.8518 3.22889C22.8324 2.96227 22.7457 2.70567 22.6003 2.485C22.7256 2.24277 22.7787 1.96728 22.7527 1.69363C22.6856 1.26818 22.4805 0.879325 22.1715 0.591477C21.8625 0.303629 21.4682 0.134066 21.0537 0.11088C20.0894 0.0090111 19.1194 -0.0227215 18.1509 0.015915H17.968H17.7776C16.8116 -0.00262666 15.8453 0.0290683 14.8824 0.11088C14.4675 0.132629 14.0723 0.301694 13.7631 0.589798C13.4538 0.877901 13.2491 1.26757 13.1833 1.69363C13.1574 1.96728 13.2104 2.24277 13.3357 2.485C13.1877 2.70486 13.0983 2.96152 13.0767 3.22889C13.0636 3.41873 13.0894 3.6093 13.1524 3.78801C13.2155 3.96671 13.3143 4.1295 13.4424 4.26559C13.3205 4.53578 13.2556 4.82986 13.2519 5.12819C13.2557 5.59886 13.4298 6.05083 13.7395 6.39439C13.5186 7.63685 12.6195 12.8362 12.4215 14.2448C12.2302 15.8565 12.1487 17.4802 12.1776 19.1039C12.2183 19.9465 12.1877 20.7912 12.0862 21.6283C11.6638 22.5511 11.1801 23.4422 10.6386 24.2953C9.29007 26.6694 8.35295 28.4421 8.20819 29.4788C8.20819 29.6133 8.20819 30.0723 8.20819 30.7845C8.10914 35.8652 8.02533 53.8768 8.00248 61.11C7.99917 61.1283 7.99917 61.1471 8.00248 61.1654C8.00248 61.1654 8.00248 61.1654 8.00248 61.2287C8.00248 62.9935 8.00248 64.0935 8.00248 64.1489C8.00248 65.0827 8.15486 66.7604 9.19865 67.5439C10.5466 68.3211 12.0538 68.7525 13.5948 68.8022C14.7376 68.8971 16.4747 69 17.7699 69H17.9985C19.5223 69 21.4727 68.8813 22.4022 68.8022C24.7793 68.6122 26.1127 68.2165 26.8669 67.4726C27.2658 67.03 27.5715 66.5057 27.7643 65.9334C27.9572 65.3611 28.033 64.7533 27.9869 64.1489C27.9869 64.0935 27.9869 62.9935 27.9869 61.2287C27.926 61.2208 27.9336 61.205 27.9336 61.1812ZM9.64816 31.5838H26.1812C26.2574 37.1234 26.3412 53.0222 26.3717 60.3899H9.48817C9.51864 53.0222 9.59483 37.1314 9.67864 31.5838H9.64816ZM15.1338 1.68571C15.2938 1.68571 16.0862 1.6224 17.7699 1.61449H18.1433C19.7204 1.61449 20.6042 1.61449 20.787 1.68571C20.9228 1.70805 21.0541 1.75351 21.1756 1.82025L21.1223 1.85982C20.9845 1.93276 20.8713 2.04754 20.7978 2.1889C20.7243 2.33025 20.694 2.4915 20.7108 2.65119C20.719 2.76058 20.7489 2.86701 20.7987 2.96374C20.8486 3.06046 20.9172 3.14537 21.0004 3.21307H14.9052C14.9866 3.14715 15.0542 3.06476 15.1039 2.9709C15.1537 2.87704 15.1846 2.77365 15.1947 2.66702C15.2109 2.50646 15.1795 2.3446 15.1046 2.20314C15.0297 2.06169 14.9149 1.94741 14.7757 1.87564L14.7224 1.83608C14.8489 1.75881 14.9886 1.70774 15.1338 1.68571ZM11.9491 25.1025C12.5416 24.1488 13.0515 23.1425 13.4729 22.0953C13.6466 21.1117 13.7054 20.11 13.6481 19.1118C13.6213 17.5626 13.6951 16.0132 13.869 14.4743C14.1052 12.8916 15.1643 6.77425 15.2252 6.49727C15.2648 6.29766 15.2555 6.09093 15.1983 5.89599C15.1411 5.70105 15.0377 5.52414 14.8976 5.38143C14.7605 5.21524 14.7528 5.18359 14.7528 5.12028C14.7656 4.98918 14.8161 4.8651 14.8976 4.76416H20.9927C21.0783 4.86327 21.1316 4.98788 21.1451 5.12028C21.1451 5.18359 21.1451 5.21524 20.9927 5.38143C20.851 5.52017 20.7448 5.69337 20.6836 5.88541C20.6224 6.07744 20.6082 6.28228 20.6423 6.48144C20.7032 6.75051 21.7623 12.852 21.9908 14.4585C22.1685 15.9971 22.2423 17.5467 22.2118 19.0959C22.156 20.0945 22.2174 21.0963 22.3946 22.0794C22.8147 23.1273 23.3247 24.1337 23.9184 25.0866C24.7717 26.5903 26.0593 28.8536 26.1431 29.6371C26.1497 29.753 26.1497 29.8693 26.1431 29.9853H9.70912C9.70912 29.8191 9.70912 29.6924 9.70912 29.6371C9.80054 28.8694 11.0958 26.6061 11.9491 25.1025ZM25.8003 66.3172C25.1146 66.9899 22.966 67.164 22.2575 67.2194C21.3584 67.2906 19.469 67.4014 17.968 67.4093C16.6957 67.4093 14.8747 67.3144 13.6862 67.2194C12.4204 67.2028 11.174 66.8947 10.0367 66.3172C9.81379 66.0207 9.64925 65.6815 9.55251 65.319C9.45577 64.9565 9.42873 64.5777 9.47293 64.2043C9.47293 63.9906 9.47293 63.1992 9.47293 62.0122H26.4098V64.2043C26.4656 64.9627 26.2484 65.7156 25.8003 66.3172Z" fill="white"/>
</svg>
