<svg width="147" height="153" viewBox="0 0 147 153" fill="none" xmlns="http://www.w3.org/2000/svg">
<path d="M53.9737 62.7696C53.3299 62.7696 52.7781 62.4017 52.5022 61.8499L52.3183 61.482C52.0424 61.0222 52.0424 60.3784 52.3183 59.9185L52.5022 59.6427C52.8701 58.9989 53.6058 58.631 54.4336 58.8149C55.1693 58.9989 55.7211 59.7346 55.6291 60.4704V60.6543C55.6291 60.7462 55.6291 60.8383 55.6291 60.9302V61.1141C55.6291 61.8499 55.0773 62.5856 54.3416 62.7696C54.2496 62.7696 54.1577 62.7696 53.9737 62.7696Z" fill="white"/>
<path d="M33.1886 62.2181C33.0047 62.2181 32.9127 62.2181 32.7288 62.1262C31.993 61.9422 31.5332 61.2065 31.5332 60.4708V60.2868C31.5332 60.1949 31.5332 60.1029 31.5332 60.1029V59.9189C31.5332 59.1832 32.085 58.4474 32.8208 58.3555C33.5565 58.1715 34.3842 58.5394 34.6601 59.2751L34.844 59.643C35.1199 60.1029 35.028 60.7467 34.7521 61.2065L34.5681 61.4824C34.3842 61.9422 33.8324 62.2181 33.1886 62.2181Z" fill="white"/>
<path d="M48.7309 35.2712C48.271 35.2712 47.9032 35.0873 47.5353 34.8114C46.2477 33.5239 45.1441 32.5122 44.4084 31.9604C43.6726 32.5122 42.4771 33.4319 41.0976 34.6275C40.7297 34.9953 40.1778 35.1793 39.626 34.9954C39.0742 34.9034 38.6144 34.5355 38.4305 33.9837C36.867 30.0291 34.2 26.7183 32.1767 24.603C31.7168 24.1432 31.5329 23.4074 31.9008 22.7637C35.6715 14.3946 43.8566 9.15244 44.1325 8.9685C44.6843 8.60063 45.42 8.60061 45.9718 9.06045C46.3397 9.33635 54.157 14.9464 57.4678 23.4994C57.7437 24.1432 57.5598 24.8789 57.008 25.3387C54.8927 27.2701 51.9497 30.4889 50.2023 34.3516C50.0184 34.8114 49.5586 35.1793 49.0068 35.2712C48.9148 35.2712 48.8228 35.2712 48.7309 35.2712ZM44.5003 28.1897C44.8682 28.1897 45.1441 28.2817 45.42 28.4656C45.512 28.4656 46.6156 29.3853 48.271 30.8568C49.6505 28.3737 51.5819 25.9825 53.973 23.6833C51.4899 18.1653 46.8915 14.0267 44.9601 12.4633C42.9369 13.9347 38.1546 17.7974 35.3955 23.1315C37.6028 25.5227 39.3502 28.0978 40.6377 30.6729C42.2931 29.2933 43.5806 28.5576 43.5806 28.4656C43.8565 28.2817 44.1324 28.1897 44.5003 28.1897Z" fill="white"/>
<path d="M31.0736 52.3758C30.4298 52.3758 29.878 52.0079 29.6021 51.4561C27.027 46.3059 22.7965 42.4433 20.9571 40.9718C20.0375 41.6156 18.566 42.7192 17.0025 44.2826C16.5427 44.7425 15.8989 44.8344 15.3471 44.6505C14.7953 44.4666 14.3355 43.9148 14.2435 43.271C14.0596 42.1674 14.0596 41.0637 14.0596 39.9601C14.4274 26.9927 27.6708 18.5317 28.2226 18.1638C28.7744 17.7959 29.5102 17.7959 30.062 18.2558C30.1539 18.3477 32.1772 19.7272 34.5684 22.2104C37.7872 25.5212 40.1784 29.108 41.5579 32.6947C41.8338 33.3385 41.6499 34.0742 41.0981 34.5341C37.3274 37.9369 32.9129 43.4549 32.729 50.2605V50.7204C32.729 51.4561 32.1772 52.1918 31.4415 52.2838C31.3495 52.3758 31.1656 52.3758 31.0736 52.3758ZM21.0491 37.2931C21.417 37.2931 21.6929 37.385 21.9688 37.569C22.1527 37.7529 26.4752 40.7879 30.062 45.8461C31.4415 40.5119 34.8443 36.0975 38.0631 32.9706C36.4997 29.4758 34.0166 26.5329 32.1772 24.6016C30.8897 23.314 29.786 22.3023 29.0503 21.7505C26.1993 23.7738 18.0142 30.5794 17.3704 39.5923C18.9338 38.3047 20.0374 37.6609 20.1294 37.569C20.4053 37.385 20.6812 37.2931 21.0491 37.2931Z" fill="white"/>
<path d="M56.641 53.1137C56.4571 53.1137 56.3651 53.1137 56.1812 53.0217C55.4454 52.8378 54.9856 52.1021 54.9856 51.3663V51.1824C54.9856 51.0904 54.9856 50.9985 54.9856 50.9065C55.1695 44.1009 51.031 38.3989 47.4442 34.7202C46.9844 34.2604 46.8005 33.5246 47.1684 32.8808C48.7318 29.3861 51.3069 25.9833 54.7097 22.7644C57.2848 20.4652 59.3081 19.0857 59.4001 19.0857C59.9519 18.7178 60.6876 18.7178 61.2394 19.1776C61.7912 19.5455 74.5748 28.7423 74.2069 41.7097C74.2069 42.7214 74.0229 43.825 73.839 44.9286C73.747 45.5724 73.2872 46.0322 72.6434 46.2162C71.9997 46.4001 71.3559 46.2162 70.988 45.7563C69.5165 44.1929 68.137 42.9973 67.3093 42.2615C65.378 43.641 60.9635 47.2278 58.1125 52.1941C57.8366 52.8378 57.2848 53.1137 56.641 53.1137ZM50.7551 33.3407C53.7901 36.6515 56.9169 41.1579 58.0205 46.676C61.8832 41.8937 66.2976 39.0427 66.5735 38.9507C67.1253 38.5828 67.8611 38.5828 68.4129 39.0426C68.5048 39.1346 69.5165 39.8704 70.988 41.1579C70.8961 32.0531 63.0788 24.8797 60.3197 22.7644C59.584 23.3162 58.3884 24.2358 57.0089 25.4314C55.0776 27.0868 52.5025 29.9379 50.7551 33.3407Z" fill="white"/>
<path d="M53.7896 62.4944C53.1458 62.4944 52.594 62.1265 52.3181 61.5747C49.743 56.6085 45.6965 52.9298 43.8571 51.4583C41.9258 52.8378 37.6952 56.3326 34.8442 61.1149C34.5683 61.6667 33.9246 61.9426 33.3728 61.9426C32.729 61.9426 32.1772 61.5747 31.9013 61.0229L31.7174 60.655C31.6254 60.4711 31.5334 60.1952 31.5334 59.9193C31.5334 57.1603 30.8896 54.3093 29.5101 51.5503C29.4182 51.2744 29.3262 51.0904 29.3262 50.8145V50.6306C29.3262 50.5386 29.3262 50.3547 29.3262 50.2627C29.5101 42.3535 34.5684 36.0997 38.7989 32.2371C41.374 29.9379 43.3973 28.5583 43.4892 28.5583C44.041 28.1905 44.7768 28.1905 45.3286 28.6503C45.4205 28.7423 47.4439 30.1218 49.835 32.6049C53.7896 36.7434 58.4799 43.2732 58.296 51.1824C58.296 51.2743 58.296 51.4583 58.296 51.5503V51.7342C58.296 52.0101 58.2041 52.194 58.1121 52.47C56.5487 55.229 55.7209 57.988 55.629 60.747C55.629 61.0229 55.537 61.2069 55.445 61.4828L55.2611 61.8507C54.9852 62.1266 54.4334 62.4944 53.7896 62.4944ZM43.9491 47.6876C44.3169 47.6876 44.5928 47.7796 44.8687 47.9635C45.0527 48.1474 49.3751 51.1824 52.9619 56.2406C53.4217 54.4932 54.1575 52.7458 55.0771 50.9984C55.2611 44.1928 51.1226 38.4908 47.5358 34.8121C46.2483 33.5246 45.1446 32.513 44.4089 31.9612C43.6732 32.513 42.4776 33.4326 41.0981 34.6282C37.3274 38.031 32.9129 43.5491 32.729 50.3547V50.4467C33.5567 52.194 34.2005 54.0334 34.5683 55.7808C38.431 50.9984 42.8454 48.1474 43.1213 47.9635C43.3053 47.7796 43.5812 47.6876 43.9491 47.6876Z" fill="white"/>
<path d="M75.8612 74.2646C75.4013 74.2646 75.0334 74.0807 74.7575 73.8048C73.1021 72.2413 67.1242 67.1831 61.1463 67.1831C60.1347 67.1831 59.123 67.367 58.2033 67.6429C57.7435 67.8268 57.2837 68.0108 56.6399 68.2867C56.18 68.5626 55.6283 68.5626 55.1684 68.2867C54.7086 68.0108 54.3407 67.6429 54.2487 67.0911C53.9728 65.3437 53.329 63.5963 52.5013 61.9409C52.4094 61.757 52.3174 61.4811 52.3174 61.2052V61.0212C52.3174 60.9293 52.3174 60.7453 52.3174 60.6533V60.4694C52.4094 57.1586 53.421 53.8477 55.2604 50.7208C59.3069 43.4554 66.2045 39.1329 66.4804 38.949C67.0322 38.5811 67.768 38.5811 68.3198 39.0409C68.4118 39.1329 70.8029 40.7883 73.47 43.7313C77.1487 47.6859 81.4711 54.0317 81.2872 61.573C81.1952 65.5276 79.8157 69.5742 77.3326 73.6208C77.0567 74.0807 76.5969 74.3565 76.137 74.3565C76.0451 74.2646 75.9531 74.2646 75.8612 74.2646ZM61.1463 63.8722C67.0323 63.8722 72.4583 67.5509 75.4933 70.034C77.0567 67.0911 77.8844 64.1481 77.9764 61.2971C78.1603 54.8594 74.2977 49.2494 71.0788 45.7546C69.6073 44.1912 68.2278 42.9955 67.4001 42.2598C65.4688 43.6393 61.0543 47.2261 58.2033 52.1923C56.6399 54.9514 55.8122 57.7104 55.7202 60.4694V60.6533V60.7453C56.272 61.9409 56.7318 63.2284 57.0997 64.516H57.1917C58.3873 64.0561 59.7668 63.8722 61.1463 63.8722Z" fill="white"/>
<path d="M10.7484 72.4276C10.6565 72.4276 10.5644 72.4276 10.4725 72.4276C10.0126 72.3357 9.55285 72.0597 9.36891 71.5999C7.06972 67.4614 5.96607 63.3228 6.05804 59.3682C6.24198 51.8269 10.9324 45.757 14.887 41.9863C17.738 39.2273 20.1291 37.6638 20.313 37.6638C20.8648 37.2959 21.6006 37.296 22.1524 37.7558C22.4283 37.9397 29.05 42.722 32.7287 50.1714C34.3841 53.4823 35.1199 56.7931 35.1199 60.012V60.1959C35.1199 60.2878 35.1199 60.4718 35.1199 60.5638V60.7477C35.1199 61.0236 35.0279 61.2075 34.9359 61.4835C34.0163 63.1389 33.2805 64.8863 32.9126 66.5417C32.8207 67.0935 32.4528 67.4614 31.9929 67.6453C31.5331 67.8292 30.9813 67.8292 30.5215 67.5533C29.9697 67.2774 29.5098 67.0015 29.05 66.8176C27.9464 66.3577 26.7508 66.1738 25.4633 66.1738C19.5773 66.1738 13.7834 70.6802 12.1279 72.0597C11.4842 72.3356 11.1163 72.4276 10.7484 72.4276ZM20.9568 40.9747C20.0371 41.6184 18.5657 42.722 17.0022 44.2855C13.5994 47.5963 9.3689 52.9305 9.18496 59.3682C9.093 62.2192 9.82875 65.1622 11.2083 68.1971C14.2432 65.9899 19.4853 62.863 25.0954 62.863C26.7508 62.863 28.3142 63.1389 29.7857 63.6907H29.8777C30.3375 62.4951 30.7974 61.2076 31.5331 60.012V59.828C31.5331 57.069 30.8893 54.218 29.5098 51.4589C27.0267 46.3088 22.7962 42.5381 20.9568 40.9747Z" fill="white"/>
<path d="M44.961 81.3471C44.869 81.3471 44.869 81.3471 44.961 81.3471L41.2823 81.2551C40.6385 81.2551 40.0867 80.8873 39.8108 80.2435C38.3393 76.6568 35.0285 70.219 30.3381 67.46C29.6944 67.0921 29.4184 66.3563 29.5104 65.6206C29.9702 63.5973 30.798 61.574 31.9016 59.6427L32.0855 59.2748C36.224 52.2853 42.8457 48.0548 43.1216 47.8708C43.6734 47.503 44.4092 47.503 44.961 47.9628C45.2369 48.1467 51.6747 52.7451 55.3534 60.0106L55.5373 60.3784C56.5489 62.4017 57.1927 64.425 57.5606 66.4483C57.6525 67.1841 57.2847 67.9198 56.6409 68.1957C51.7666 70.6788 48.1799 76.9326 46.4325 80.4274C46.1566 80.9792 45.5128 81.3471 44.961 81.3471ZM42.3859 77.9443H43.9494C46.1566 73.7138 49.4674 68.5636 54.0658 65.8046C53.6979 64.425 53.2381 63.1375 52.5943 61.7579L52.4104 61.3901C49.8353 56.4239 45.7887 52.7451 43.9494 51.2737C42.018 52.6532 37.7875 56.148 34.9365 60.9303L34.7526 61.2062C34.0168 62.4937 33.465 63.8732 33.0052 65.1608C37.3277 68.3796 40.4546 73.6218 42.3859 77.9443Z" fill="white"/>
<path d="M47.6276 97.2571L37.6951 96.9812C36.7754 96.9812 36.0397 96.1535 36.1317 95.3258L36.3156 90.2675C31.4413 92.5667 26.8429 93.1185 22.9803 91.6471C13.2317 87.9684 8.72529 72.6098 8.44939 71.966C8.26546 71.3222 8.44939 70.6784 8.90923 70.3105C8.90923 70.3105 9.1851 70.0347 9.73691 69.5748C12.1281 67.5515 18.4738 62.9531 25.1875 62.9531C26.8429 62.9531 28.4064 63.2291 29.8779 63.7809C30.5216 64.0568 31.1654 64.3327 31.8092 64.7005C36.7754 67.5515 40.1782 73.3455 42.2935 78.0359H43.857C46.2481 73.4375 49.9268 67.8274 55.077 65.2523C55.8127 64.8844 56.4565 64.6086 57.1003 64.4246C58.3878 64.0568 59.6754 63.8728 61.0549 63.8728C68.1364 63.8728 74.5742 69.115 76.9653 71.4142C77.5171 71.874 77.793 72.1499 77.793 72.1499C78.2529 72.6097 78.3448 73.2536 78.1609 73.8054C77.977 74.4491 72.5509 89.5318 62.6183 92.6587C61.3308 93.0266 60.0433 93.2105 58.6637 93.2105C55.7208 93.2105 52.5939 92.2908 49.375 90.5434L49.1911 95.6017C49.1911 96.0615 49.0071 96.4294 48.6392 96.7973C48.4553 97.0732 48.0875 97.2571 47.6276 97.2571ZM39.4425 93.7623L46.0642 93.9463L46.2481 87.6925C46.2481 87.0487 46.616 86.4969 47.1678 86.221C47.7196 85.9451 48.3633 85.9451 48.8232 86.3129C51.3063 87.9684 54.985 89.9917 58.7557 89.9917C59.7673 89.9917 60.779 89.8077 61.6987 89.5318C68.7802 87.3246 73.4705 77.0242 74.7581 73.7134C73.0107 72.0579 67.1248 67.1837 61.1469 67.1837C60.1352 67.1837 59.1236 67.3676 58.2039 67.6435C57.7441 67.8274 57.2842 68.0114 56.6404 68.2873C51.7662 70.7704 48.1794 76.9323 46.432 80.519C46.1561 81.0708 45.5124 81.5306 44.8686 81.4387L41.1899 81.3467C40.5461 81.3467 39.9943 80.9788 39.7184 80.335C38.2469 76.7483 34.9361 70.3105 30.2457 67.5515C29.6939 67.2756 29.2341 66.9997 28.7742 66.8158C27.6706 66.3559 26.475 66.172 25.1875 66.172C19.3935 66.172 13.5995 70.4945 11.8522 71.966C12.9558 75.2768 17.0943 85.8531 23.9919 88.4282C25.0955 88.888 26.2911 89.072 27.5787 89.072C31.1654 89.072 34.7521 87.4165 37.0513 85.9451C37.6031 85.6692 38.2469 85.6692 38.7067 85.9451C39.2585 86.221 39.5345 86.7728 39.5345 87.4166L39.4425 93.7623Z" fill="white"/>
<path d="M73.6549 124.295C73.1951 124.295 72.7352 124.111 72.4593 123.743L72.3674 123.651L72.1834 123.467C71.6316 122.915 71.5397 122.087 71.9995 121.444C72.3674 120.8 73.1951 120.524 73.9308 120.8H74.0228C74.5746 120.984 75.0344 121.444 75.2184 121.995L75.3103 122.179C75.4942 122.915 75.2184 123.743 74.5746 124.111C74.2067 124.203 73.9308 124.295 73.6549 124.295Z" fill="white"/>
<path d="M83.588 115.008C83.4041 115.008 83.2202 115.008 83.0363 114.916H82.9443H82.8523C82.3005 114.732 81.9326 114.272 81.7487 113.721L81.6567 113.537C81.4728 112.801 81.7487 111.973 82.4845 111.605C83.1282 111.238 83.9559 111.422 84.5077 111.973L84.7837 112.249C85.3355 112.801 85.4274 113.629 84.9676 114.273C84.5997 114.732 84.1398 115.008 83.588 115.008Z" fill="white"/>
<path d="M97.7505 143.609C95.4513 143.609 92.1404 143.333 89.0135 141.954C88.3697 141.678 88.0019 141.034 88.0019 140.39C88.0939 138.551 88.0019 135.792 86.9902 133.309C86.8063 132.757 86.8983 132.205 87.1742 131.745C87.4501 131.286 88.0019 131.01 88.5537 131.01H88.9216C89.6573 131.01 90.3011 131.01 90.8529 130.918C90.9448 130.366 91.0368 129.538 91.0368 128.619C91.0368 128.067 91.3127 127.607 91.7726 127.239C92.2324 126.963 92.7842 126.871 93.336 127.147C95.8191 128.251 98.4862 128.527 100.326 128.527C100.969 128.527 101.613 128.986 101.889 129.63C104.096 135.424 102.717 141.77 102.625 142.046C102.441 142.69 101.981 143.241 101.245 143.333C101.245 143.333 99.7737 143.609 97.7505 143.609ZM91.3127 139.287C93.6119 140.114 96.0031 140.298 97.6585 140.298C98.3943 140.298 99.038 140.298 99.5898 140.206C99.8657 138.459 100.05 135.148 99.13 131.837C97.3826 131.745 95.6352 131.47 94.1637 131.01C94.0717 132.113 93.8878 132.757 93.8878 132.757C93.7039 133.401 93.244 133.953 92.5083 134.045C92.5083 134.045 91.7726 134.137 90.7609 134.229C91.1288 135.792 91.3127 137.447 91.3127 139.287Z" fill="white"/>
<path d="M100.786 131.929H100.418C97.2909 131.929 94.5319 131.285 92.0488 130.273C91.405 129.997 91.0371 129.354 91.0371 128.71C91.1291 125.491 90.7612 120.985 87.8183 117.95L87.6343 117.766C87.0825 117.214 86.9906 116.386 87.3584 115.742C87.7263 115.099 88.554 114.823 89.2897 115.007C91.1291 115.651 93.2443 115.926 95.5435 115.926C96.2793 115.926 96.9231 115.926 97.4749 115.834C97.5668 115.099 97.6588 114.179 97.6588 112.983C97.6588 112.34 98.0267 111.788 98.5785 111.512C99.1303 111.236 99.774 111.328 100.326 111.696C100.97 112.156 101.521 112.616 101.981 113.167C108.051 119.513 105.752 129.906 105.66 130.365C105.476 131.009 105.016 131.561 104.28 131.653C104.28 131.653 102.901 131.929 100.786 131.929ZM94.3479 127.606C96.5552 128.342 98.7624 128.526 100.418 128.618H100.786C101.521 128.618 102.165 128.618 102.717 128.526C102.993 126.227 103.361 120.801 100.786 116.846C100.694 117.398 100.602 117.674 100.602 117.766C100.418 118.41 99.958 118.961 99.2222 119.053C99.1303 119.053 97.7508 119.329 95.6355 119.329C94.6239 119.329 93.6122 119.237 92.6006 119.145C93.9801 121.904 94.3479 125.031 94.3479 127.606Z" fill="white"/>
<path d="M85.8872 145.999C81.9326 145.999 76.3226 145.171 72.5519 141.125C72.0921 140.573 71.6323 140.021 71.1724 139.377C70.8045 138.825 70.8046 138.182 71.0805 137.63C71.3564 137.078 71.9082 136.802 72.5519 136.802C73.6555 136.802 74.6672 136.802 75.403 136.71C75.6789 135.055 75.8628 131.744 75.0351 128.525C74.8511 127.789 75.1271 126.962 75.8628 126.594C76.5066 126.226 77.3343 126.41 77.8861 126.962L78.07 127.146C81.013 130.272 85.4274 130.916 88.6463 131.008C89.2901 131.008 89.9338 131.468 90.2097 132.112C91.1294 134.595 91.4973 137.354 91.4053 140.481C91.3133 142.78 90.9455 144.435 90.9455 144.435C90.7615 145.079 90.3017 145.631 89.566 145.723C89.474 145.723 88.0025 145.999 85.8872 145.999ZM76.2306 140.021C79.1736 142.228 83.0362 142.688 85.8872 142.688C86.623 142.688 87.2668 142.688 87.8186 142.596C87.9106 142.044 88.0025 141.217 88.0025 140.297C88.0945 138.733 88.0025 136.434 87.3588 134.227C84.7837 134.043 81.6568 133.491 78.8977 131.928C79.0817 135.515 78.4379 138.366 78.4379 138.55C78.2539 139.193 77.7941 139.745 77.0584 139.837C77.0584 139.837 76.7824 139.929 76.2306 140.021Z" fill="white"/>
<path d="M88.9214 134.32H88.5535C84.6909 134.228 79.3568 133.401 75.5861 129.446C75.4941 129.354 75.4941 129.354 75.4022 129.262C75.2182 129.078 75.0343 128.802 74.9423 128.526C74.3905 126.687 73.5628 125.032 72.3672 123.836C72.1833 123.652 72.0913 123.468 71.9993 123.192L71.9074 122.916C71.7235 122.365 71.9074 121.721 72.3672 121.261C72.8271 120.801 73.4708 120.709 74.0226 120.893C75.77 121.445 77.8853 121.813 80.0925 121.813C80.8282 121.813 81.472 121.813 82.0238 121.721C82.2078 120.065 82.4837 116.846 81.656 113.72C81.472 113.168 81.656 112.524 82.1158 112.064C82.5756 111.604 83.2194 111.512 83.7712 111.696L84.0471 111.788C84.323 111.88 84.5069 111.972 84.6909 112.156C85.8865 113.352 87.4499 114.363 89.2893 114.915C89.5652 115.007 89.7491 115.099 89.9331 115.283C90.025 115.375 90.117 115.467 90.2089 115.559C93.8876 119.514 94.5314 124.848 94.3475 128.71C94.2555 131.009 93.8876 132.665 93.8876 132.665C93.7037 133.309 93.2439 133.86 92.5081 133.952C92.5081 134.044 91.0367 134.32 88.9214 134.32ZM78.0692 127.239C81.0122 130.274 85.3347 130.917 88.5535 131.009H88.9214C89.6572 131.009 90.3009 131.009 90.8527 130.918C90.9447 130.366 91.0367 129.538 91.0367 128.618C91.1286 125.399 90.7607 120.985 87.9097 117.95C87.082 117.674 86.3463 117.306 85.6106 116.846C85.7945 120.433 85.1507 123.284 85.1507 123.468C84.9668 124.112 84.5069 124.664 83.7712 124.756C83.6792 124.756 82.2998 125.032 80.1845 125.032C79.1728 125.032 78.1612 124.94 77.1495 124.848C77.5174 125.583 77.7933 126.411 78.0692 127.239Z" fill="white"/>
<path d="M73.4707 140.113C73.1028 140.113 72.8269 140.113 72.4591 140.113C68.7804 139.929 63.7221 139.01 60.1354 135.239C58.296 133.308 57.0085 130.733 56.2728 127.514C56.1808 127.054 56.2728 126.502 56.5487 126.134C56.8246 125.766 57.2844 125.49 57.8362 125.49C59.6755 125.398 65.8374 124.939 67.9526 120.984C68.0446 120.708 68.2286 120.432 68.3205 120.064C68.5045 119.605 68.8723 119.145 69.3321 119.053C69.792 118.869 70.3438 118.961 70.8037 119.237C71.7233 119.88 72.735 120.34 73.8386 120.8C74.1145 120.892 74.2984 120.984 74.4824 121.168L74.5743 121.26C74.6663 121.352 74.6663 121.352 74.7583 121.444L74.8502 121.536C76.4137 123.191 77.5173 125.215 78.1611 127.606C79.6326 133.032 78.437 138.366 78.437 138.55C78.253 139.194 77.7932 139.745 77.0575 139.837C77.0575 139.837 75.5859 140.113 73.4707 140.113ZM60.0434 128.709C60.6872 130.457 61.5149 131.836 62.5266 133.032C65.2856 135.975 69.5161 136.711 72.551 136.803C73.6546 136.803 74.6663 136.803 75.402 136.711C75.6779 135.055 75.8619 131.744 75.0342 128.525C74.4823 126.686 73.6546 125.031 72.4591 123.835C71.8153 123.559 71.1715 123.375 70.6197 123.007C68.2286 126.962 63.3543 128.249 60.0434 128.709Z" fill="white"/>
<path d="M95.6354 119.238C92.9683 119.238 90.4852 118.87 88.278 118.134C85.8868 117.307 83.9555 116.111 82.392 114.456L82.3001 114.364C82.3001 114.364 82.2081 114.272 82.1161 114.18C81.9322 113.996 81.7483 113.72 81.6563 113.444C81.2884 112.248 80.9206 111.237 80.2768 110.317C80.0009 109.857 80.0009 109.306 80.1848 108.846C80.3688 108.386 80.8286 108.018 81.2884 107.834C81.6563 107.742 81.9322 107.65 82.2081 107.466C86.2547 105.627 87.0824 99.465 87.2663 97.6256C87.2663 97.1658 87.5423 96.7059 88.0021 96.43C88.37 96.1541 88.9218 96.0621 89.3816 96.2461C92.5085 97.1658 94.9916 98.6373 96.831 100.569C100.418 104.339 101.061 109.489 100.97 113.076C100.878 115.743 100.51 117.675 100.51 117.675C100.326 118.318 99.8659 118.87 99.1302 118.962C99.1302 118.962 97.6587 119.238 95.6354 119.238ZM84.7832 112.156C85.9788 113.352 87.5423 114.364 89.3816 115.008C91.6808 115.835 94.072 115.927 95.6354 115.927C96.3711 115.927 97.0149 115.927 97.5667 115.835C97.6587 115.099 97.7507 114.18 97.7507 112.984C97.8426 109.949 97.2908 105.719 94.5318 102.776C93.4282 101.672 92.0487 100.753 90.3932 100.017C89.8414 103.328 88.278 108.11 84.1394 110.225C84.3234 110.869 84.5073 111.513 84.7832 112.156Z" fill="white"/>
<path d="M80.1851 125.032C77.61 125.032 75.2188 124.664 73.1035 124.02L72.8277 123.928C71.4481 123.468 70.0686 122.824 68.965 121.997C68.3212 121.537 68.1373 120.801 68.3212 120.157C69.4248 116.939 68.2292 112.524 67.4015 110.133C67.2176 109.489 67.4015 108.845 67.8614 108.386L69.6088 106.73C70.0686 106.27 70.8043 106.178 71.3561 106.362C73.2875 107.19 76.2304 108.11 78.9895 108.11C79.8172 108.11 80.6449 108.018 81.2886 107.834C82.0244 107.65 82.7601 107.926 83.128 108.569C83.8637 109.765 84.4156 111.145 84.8754 112.524L84.9674 112.8C86.3469 118.042 85.2433 123.284 85.1513 123.468C84.9674 124.112 84.5075 124.664 83.7718 124.756C83.6798 124.756 82.3003 125.032 80.1851 125.032ZM71.816 119.882C72.4598 120.249 73.1955 120.525 73.9312 120.801H74.0232H74.1152C75.8626 121.353 77.9778 121.721 80.1851 121.721C80.9208 121.721 81.5646 121.721 82.1164 121.629C82.3003 119.974 82.5762 116.755 81.7485 113.628L81.6565 113.444C81.4726 112.708 81.1967 111.972 80.8288 111.329C80.185 111.42 79.6332 111.42 78.8975 111.42C76.0465 111.42 73.1955 110.593 70.9883 109.765L70.8044 109.949C71.724 112.892 72.4598 116.571 71.816 119.882Z" fill="white"/>
<path d="M57.3768 128.894H57.1929C56.5491 128.894 55.9973 128.526 55.7214 127.974C55.5374 127.606 50.9391 117.858 54.2499 111.512C55.4455 109.213 57.7447 107.373 60.7796 106.362L59.1242 104.614C58.4804 103.971 58.4804 102.867 59.2161 102.315L63.9065 97.8087C64.5503 97.165 65.6539 97.1649 66.2057 97.9007L67.8611 99.6481C69.0567 96.6131 70.988 94.4979 73.3792 93.3943C74.7587 92.7505 76.2302 92.4746 77.9776 92.4746C83.5876 92.4746 89.4735 95.6935 89.6575 95.7854C90.2093 96.0613 90.5771 96.7051 90.4852 97.2569C90.4852 97.2569 90.4852 97.5328 90.3932 97.9927C90.1173 100.936 88.9218 108.017 83.4037 110.5C82.9439 110.684 82.484 110.868 81.9322 110.96C80.9205 111.236 79.9089 111.328 78.7133 111.328C75.8623 111.328 73.0113 110.5 70.8041 109.673L70.6202 109.856C71.6318 113.075 72.3675 117.398 71.1719 120.985C70.988 121.536 70.8041 121.996 70.6202 122.364C67.8611 127.698 60.6876 128.526 57.7447 128.71C57.6527 128.894 57.4687 128.894 57.3768 128.894ZM62.711 103.511L65.1021 106.086C65.5619 106.546 65.6539 107.189 65.47 107.741C65.286 108.293 64.8262 108.753 64.1824 108.845C61.6993 109.305 58.4804 110.408 57.1009 113.075C55.2615 116.662 57.0089 122.64 58.2045 125.583C60.4117 125.491 65.9298 124.755 67.8611 121.077C67.9531 120.801 68.137 120.525 68.229 120.157C69.3326 116.938 68.137 112.524 67.3093 110.132C67.1254 109.489 67.3093 108.845 67.7692 108.385L69.5165 106.73C69.9764 106.27 70.7121 106.178 71.2639 106.362C73.1953 107.189 76.1382 108.109 78.8972 108.109C79.725 108.109 80.5527 108.017 81.1964 107.833C81.5643 107.741 81.8402 107.649 82.1161 107.465C85.8868 105.718 86.8984 100.384 87.1743 98.0846C85.427 97.2569 81.5643 95.6015 77.9776 95.6015C76.69 95.6015 75.5864 95.7854 74.7587 96.2453C72.0916 97.4408 70.8041 100.66 70.1603 103.051C69.9764 103.603 69.5166 104.063 68.9647 104.246C68.4129 104.43 67.7692 104.246 67.3093 103.787L64.8262 101.212L62.711 103.511Z" fill="white"/>
<path d="M87.1735 59.0905C86.6217 59.0905 86.0699 58.8145 85.794 58.3547C79.0804 48.0543 77.8848 35.2708 82.6671 23.9588C85.794 16.6934 91.496 11.0833 98.8534 8.14035C106.211 5.19738 114.212 5.28933 121.477 8.41624C127.363 10.8994 131.962 15.5897 134.353 21.5676C136.744 27.5455 136.652 33.9833 134.169 39.8692C132.146 44.6515 128.375 48.3303 123.501 50.3535C118.626 52.2849 113.384 52.2849 108.602 50.1696C104.647 48.5142 101.612 45.3873 100.049 41.4327C98.4856 37.4781 98.4855 33.1556 100.141 29.201C101.52 25.9821 104.096 23.4989 107.314 22.2114C110.533 20.9238 114.12 20.9239 117.339 22.3034C120.006 23.407 122.029 25.5222 123.133 28.1893C124.236 30.8564 124.145 33.7993 123.041 36.4664C121.11 40.9728 115.867 43.1801 111.269 41.1568C107.498 39.5014 105.659 35.0869 107.314 31.3162C108.694 28.0974 112.465 26.6258 115.592 28.0054C116.419 28.3732 116.787 29.3849 116.419 30.2126C116.051 31.0403 115.04 31.4082 114.212 31.0403C112.649 30.3966 110.901 31.1323 110.257 32.6037C109.338 34.719 110.349 37.2021 112.465 38.1218C115.316 39.3174 118.626 38.0298 119.914 35.0869C120.742 33.2475 120.742 31.2242 120.006 29.3849C119.27 27.5455 117.799 26.0741 115.959 25.3383C113.568 24.3267 110.901 24.3266 108.51 25.2463C106.119 26.258 104.188 28.0973 103.176 30.4885C101.888 33.6154 101.796 37.0182 103.084 40.1451C104.371 43.272 106.763 45.7551 109.89 47.0427C113.844 48.6981 118.259 48.7901 122.305 47.1347C126.352 45.4793 129.479 42.4443 131.134 38.4897C133.341 33.4315 133.341 27.8214 131.318 22.6712C129.295 17.521 125.34 13.5664 120.282 11.3592C106.947 5.65722 91.496 11.911 85.886 25.2463C81.4715 35.5467 82.5752 47.2266 88.737 56.5153C89.1968 57.2511 89.0129 58.2627 88.2772 58.8145C87.8173 58.9985 87.5414 59.0905 87.1735 59.0905Z" fill="white"/>
<path d="M120.006 108.844C105.659 108.844 94.2548 97.7158 93.795 97.256C93.3352 96.7962 82.207 85.3922 82.207 71.0452C82.207 56.6982 93.3352 45.2942 93.795 44.8344C94.4388 44.1906 95.5424 44.1906 96.1861 44.8344C96.646 45.2942 105.843 54.6749 107.498 67.1825C108.97 64.6074 110.625 62.3082 112.556 60.3769C122.673 50.2605 138.583 50.0765 139.319 50.0765C139.779 50.0765 140.147 50.2604 140.515 50.5363C140.79 50.8122 140.974 51.2721 140.974 51.732C140.974 52.3757 140.79 68.2861 130.674 78.4946C128.743 80.4259 126.444 82.1733 123.868 83.5528C136.376 85.2082 145.757 94.4969 146.217 94.8648C146.493 95.1407 146.676 95.6005 146.676 96.0604C146.676 96.5202 146.493 96.8881 146.217 97.256C145.665 97.7158 134.353 108.844 120.006 108.844ZM94.9906 48.5131C92.2315 51.732 85.5179 60.7448 85.5179 71.0452C85.5179 84.0126 96.0942 94.7728 96.1861 94.8648C96.2781 94.9568 107.038 105.533 120.006 105.533C130.306 105.533 139.319 98.8194 142.538 96.0604C139.319 93.3013 130.306 86.5877 120.006 86.5877C118.35 86.5877 116.511 86.7717 114.764 87.1395C113.936 87.3235 113.016 86.7716 112.832 85.9439C112.648 85.1162 113.108 84.1966 114.028 83.9207C120.006 82.2653 124.788 79.6902 128.375 76.1034C135.732 68.746 137.296 57.7098 137.664 53.4793C133.433 53.8472 122.305 55.4107 115.04 62.7681C111.453 66.3548 108.878 71.1371 107.222 77.115C106.946 77.9427 106.119 78.4945 105.199 78.3106C104.371 78.1267 103.819 77.207 104.003 76.3793C104.371 74.6319 104.555 72.7926 104.555 71.1371C104.463 60.7448 97.7496 51.732 94.9906 48.5131Z" fill="white"/>
<path d="M145.02 97.717H94.99C94.3462 97.717 93.7024 97.3491 93.4265 96.7053C93.1506 96.0616 93.3346 95.4178 93.7944 94.866L138.123 50.5375C138.767 49.8937 139.778 49.8937 140.422 50.5375C141.066 51.1813 141.066 52.1929 140.422 52.8367L98.9446 94.3142H145.02C145.94 94.3142 146.676 95.0499 146.676 95.9696C146.676 96.9812 145.94 97.717 145.02 97.717Z" fill="white"/>
<path d="M94.9904 97.7163C94.0707 97.7163 93.335 96.9805 93.335 96.0608V46.0304C93.335 45.1107 94.0707 44.375 94.9904 44.375C95.91 44.375 96.6458 45.1107 96.6458 46.0304V96.0608C96.6458 96.9805 95.91 97.7163 94.9904 97.7163Z" fill="white"/>
<path d="M40.2702 144.529C39.8104 144.529 39.4425 144.345 39.0747 144.069C38.7988 143.793 32.269 137.172 30.6136 128.251C29.6939 129.814 28.5903 131.194 27.3028 132.389C19.5775 140.115 7.52971 140.207 6.9779 140.207C6.51806 140.207 6.1502 140.023 5.78233 139.747C5.50643 139.471 5.32249 139.011 5.32249 138.551C5.32249 137.999 5.41446 125.952 13.1398 118.226C14.3353 117.031 15.7148 115.927 17.2783 114.915C8.35743 113.26 1.82771 106.822 1.45984 106.454C1.18394 106.179 1 105.719 1 105.259C1 104.799 1.18394 104.431 1.45984 104.063C1.82771 103.695 10.4727 95.2344 21.3249 95.2344C32.1771 95.2344 40.822 103.695 41.1899 104.063C41.5578 104.431 50.0188 113.076 50.0188 123.928C50.0188 134.781 41.5578 143.425 41.1899 143.793C41.1899 144.345 40.7301 144.529 40.2702 144.529ZM32.453 118.318C32.5449 118.318 32.7289 118.318 32.8209 118.318C33.6486 118.502 34.2004 119.422 34.0164 120.25C33.7405 121.537 33.6485 122.825 33.6485 124.112C33.6485 131.378 38.1549 137.631 40.3622 140.299C42.5694 137.631 47.0759 131.286 47.0759 124.112C47.0759 114.64 39.3506 106.638 39.2586 106.546C39.1666 106.454 31.2574 98.7291 21.6927 98.7291C14.4273 98.7291 8.1735 103.236 5.50644 105.443C8.1735 107.65 14.5193 112.156 21.6927 112.156C22.8883 112.156 24.2678 112.064 25.5554 111.789C26.4751 111.605 27.3028 112.156 27.4867 112.984C27.6706 113.812 27.2108 114.732 26.2911 115.007C21.8767 116.203 18.3819 118.134 15.8068 120.709C10.6566 125.86 9.36905 133.493 9.09315 136.896C12.496 136.528 20.1293 135.24 25.2795 130.182C27.8546 127.607 29.7859 124.02 30.9815 119.698C31.0735 118.778 31.7172 118.318 32.453 118.318Z" fill="white"/>
<path d="M7.16247 140.206C6.70263 140.206 6.33477 140.022 5.9669 139.746C5.32313 139.103 5.32313 138.091 5.9669 137.447L36.3162 107.098H2.83998C1.9203 107.098 1.18457 106.362 1.18457 105.443C1.18457 104.523 1.9203 103.787 2.83998 103.787H40.2708C40.9146 103.787 41.5584 104.155 41.8343 104.799C42.1102 105.443 41.9263 106.086 41.4664 106.638L8.2661 139.838C7.99019 140.022 7.62231 140.206 7.16247 140.206Z" fill="white"/>
<path d="M40.2697 144.529C39.35 144.529 38.6143 143.793 38.6143 142.873V105.443C38.6143 104.523 39.35 103.787 40.2697 103.787C41.1893 103.787 41.9251 104.523 41.9251 105.443V142.873C41.9251 143.793 41.1893 144.529 40.2697 144.529Z" fill="white"/>
</svg>
