<svg width="147" height="153" viewBox="0 0 147 153" fill="none" xmlns="http://www.w3.org/2000/svg">
<path d="M49.4208 17.1987C48.4937 17.1987 47.752 16.457 47.752 15.5298V8.66889C47.752 7.74174 48.4937 7 49.4208 7C50.348 7 51.0897 7.74174 51.0897 8.66889V15.5298C51.0897 16.457 50.348 17.1987 49.4208 17.1987Z" fill="white"/>
<path d="M49.4208 146.073C48.4937 146.073 47.752 145.332 47.752 144.405V46.8681C47.752 45.9409 48.4937 45.1992 49.4208 45.1992C50.348 45.1992 51.0897 45.9409 51.0897 46.8681V144.405C51.0897 145.332 50.348 146.073 49.4208 146.073Z" fill="white"/>
<path d="M49.4203 46.6828C49.0494 46.6828 48.6786 46.59 48.4004 46.3119C48.0296 46.0337 39.1289 39.0801 39.1289 30.2722C39.1289 21.4642 48.0296 14.5106 48.4004 14.2324C48.9567 13.7689 49.7911 13.7689 50.4401 14.2324C50.811 14.5106 59.7116 21.4642 59.7116 30.2722C59.7116 39.0801 50.811 46.0337 50.4401 46.3119C50.162 46.59 49.7911 46.6828 49.4203 46.6828ZM49.4203 17.7556C47.2878 19.7026 42.4666 24.7093 42.4666 30.2722C42.4666 35.9278 47.2878 40.8417 49.4203 42.7887C51.5527 40.8417 56.3739 35.8351 56.3739 30.2722C56.3739 24.7093 51.5527 19.7026 49.4203 17.7556Z" fill="white"/>
<path d="M52.4802 83.5823C50.6259 83.5823 49.4207 83.3968 49.3279 83.3968C48.5862 83.3041 48.0299 82.7478 47.9372 82.0061C47.8445 81.5425 46.4537 70.4167 52.7584 64.1121C57.116 59.7545 63.8842 59.1055 67.5001 59.1055C69.3544 59.1055 70.5597 59.2909 70.6524 59.2909C71.3942 59.3836 71.9505 59.9399 72.0432 60.6816C72.1359 61.1452 73.5266 72.271 67.222 78.5757C62.9571 82.9333 56.1888 83.5823 52.4802 83.5823ZM51.1822 80.2445C51.5531 80.2445 52.0167 80.2445 52.573 80.2445C55.7253 80.2445 61.4736 79.6883 64.9041 76.2578C68.8908 72.271 68.9836 65.4101 68.8908 62.5359C68.52 62.5359 68.0564 62.5359 67.5001 62.5359C64.3478 62.5359 58.5995 63.0922 55.169 66.5227C51.0895 70.5094 50.9968 77.3704 51.1822 80.2445Z" fill="white"/>
<path d="M70.3737 62.6275C69.9101 62.6275 69.5393 62.4421 69.1684 62.1639C68.5194 61.5149 68.5194 60.4951 69.1684 59.8461L75.473 53.5414C76.122 52.8924 77.1419 52.8924 77.7909 53.5414C78.4399 54.1904 78.4399 55.2103 77.7909 55.8593L71.4863 62.1639C71.3008 62.4421 70.8373 62.6275 70.3737 62.6275Z" fill="white"/>
<path d="M46.3615 83.5823C42.7456 83.5823 35.9773 82.9333 31.6197 78.5757C25.3151 72.271 26.7058 61.1452 26.7985 60.6816C26.8912 59.9399 27.4475 59.3836 28.1893 59.2909C28.282 59.2909 29.4873 59.1055 31.3416 59.1055C34.9575 59.1055 41.7257 59.7545 46.0833 64.1121C52.388 70.4167 50.9972 81.5425 50.9045 82.0061C50.8118 82.7478 50.2555 83.3041 49.5138 83.3968C49.421 83.4896 48.2158 83.5823 46.3615 83.5823ZM30.0436 62.5359C29.8581 65.4101 30.0436 72.3637 34.0304 76.2578C37.5535 79.781 43.3019 80.2445 46.3615 80.2445C46.9178 80.2445 47.3813 80.2445 47.7522 80.2445C47.9376 77.3704 47.7522 70.4167 43.7655 66.5227C40.2423 62.9995 34.4939 62.5359 31.4343 62.5359C30.878 62.4432 30.4144 62.5359 30.0436 62.5359Z" fill="white"/>
<path d="M28.4674 62.6275C28.0038 62.6275 27.6329 62.4421 27.2621 62.1639L20.9575 55.8593C20.3085 55.2103 20.3085 54.1904 20.9575 53.5414C21.6065 52.8924 22.6263 52.8924 23.2753 53.5414L29.58 59.8461C30.229 60.4951 30.229 61.5149 29.58 62.1639C29.3018 62.4421 28.931 62.6275 28.4674 62.6275Z" fill="white"/>
<path d="M52.2021 62.6295C50.5332 62.6295 49.4206 62.4441 49.3279 62.4441C48.5862 62.3514 48.0299 61.7951 47.9372 61.0534C47.8445 60.5898 46.6391 50.4839 52.2947 44.8282C56.2815 40.8415 62.4007 40.2852 65.6458 40.2852C67.3146 40.2852 68.4272 40.4706 68.5199 40.4706C69.2616 40.5633 69.8179 41.1196 69.9106 41.8613C70.0034 42.3249 71.2087 52.4309 65.5531 58.0865C61.659 62.0732 55.5398 62.6295 52.2021 62.6295ZM51.0895 59.2918C51.3676 59.2918 51.7385 59.2918 52.2021 59.2918C54.9835 59.2918 60.0829 58.8282 63.2352 55.7686C66.6657 52.3381 66.8511 46.3117 66.7584 43.6229C66.4802 43.6229 66.1093 43.6229 65.6458 43.6229C62.8643 43.6229 57.7649 44.0865 54.6126 47.1461C51.1822 50.5766 50.9967 56.603 51.0895 59.2918Z" fill="white"/>
<path d="M68.3347 43.7149C67.8711 43.7149 67.5002 43.5294 67.1293 43.2513C66.4803 42.6023 66.4803 41.5824 67.1293 40.9334L72.785 35.2778C73.434 34.6288 74.4539 34.6288 75.1029 35.2778C75.7519 35.9268 75.7519 36.9466 75.1029 37.5957L69.4472 43.2513C69.1691 43.6221 68.7055 43.7149 68.3347 43.7149Z" fill="white"/>
<path d="M46.6389 62.6295C43.3012 62.6295 37.182 62.0732 33.2879 58.0865C27.6323 52.4309 28.8376 42.3249 28.9303 41.8613C29.0231 41.1196 29.5793 40.5633 30.3211 40.4706C30.4138 40.4706 31.5263 40.2852 33.1952 40.2852C36.533 40.2852 42.6522 40.8415 46.5462 44.8282C52.2019 50.4839 50.9965 60.5898 50.9038 61.0534C50.8111 61.7951 50.2548 62.3514 49.5131 62.4441C49.4204 62.4441 48.3078 62.6295 46.6389 62.6295ZM32.0826 43.6229C31.9899 46.3117 32.1753 52.2454 35.6058 55.7686C38.6654 58.8282 43.8575 59.2918 46.6389 59.2918C47.0098 59.2918 47.3807 59.2918 47.7515 59.2918C47.8442 56.603 47.6588 50.6693 44.2284 47.1461C41.1688 44.0865 35.9767 43.6229 33.1952 43.6229C32.8244 43.6229 32.4535 43.6229 32.0826 43.6229Z" fill="white"/>
<path d="M30.5997 43.7149C30.1361 43.7149 29.7652 43.5294 29.3944 43.2513L23.7387 37.5957C23.0897 36.9466 23.0897 35.9268 23.7387 35.2778C24.3877 34.6288 25.4076 34.6288 26.0566 35.2778L31.7123 40.9334C32.3613 41.5824 32.3613 42.6023 31.7123 43.2513C31.4341 43.6221 30.9705 43.7149 30.5997 43.7149Z" fill="white"/>
<path d="M53.1298 108.429C50.9047 108.429 49.4212 108.244 49.4212 108.244C48.6795 108.151 48.1232 107.595 48.0305 106.853C47.9378 106.297 46.2689 93.0386 53.6861 85.7141C58.7854 80.6148 66.759 79.873 71.1166 79.873C73.3418 79.873 74.8252 80.0585 74.8252 80.0585C75.567 80.1512 76.1232 80.7075 76.216 81.4492C76.3087 82.0055 77.9775 95.2638 70.5603 102.588C65.461 107.688 57.4875 108.429 53.1298 108.429ZM51.1828 104.999C51.7391 104.999 52.3881 105.092 53.1298 105.092C56.9312 105.092 63.9775 104.443 68.2424 100.178C73.249 95.1711 73.2491 86.4558 73.0636 83.1181C72.5073 83.1181 71.8583 83.0254 71.1166 83.0254C67.3153 83.0254 60.2689 83.6744 56.004 87.9393C50.9974 92.9459 50.9974 101.661 51.1828 104.999Z" fill="white"/>
<path d="M74.6393 83.2107C74.1757 83.2107 73.8049 83.0253 73.434 82.7471C72.785 82.0981 72.785 81.0783 73.434 80.4293L81.0366 72.8266C81.6856 72.1776 82.7055 72.1776 83.3545 72.8266C84.0035 73.4756 84.0035 74.4955 83.3545 75.1445L75.7519 82.7471C75.4738 83.118 75.0102 83.2107 74.6393 83.2107Z" fill="white"/>
<path d="M45.7123 108.429C41.3547 108.429 33.3812 107.688 28.2819 102.588C20.8646 95.1711 22.5335 82.0055 22.6262 81.4492C22.7189 80.7075 23.2752 80.1512 24.0169 80.0585C24.1096 80.0585 25.5931 79.873 27.7255 79.873C32.0831 79.873 40.0567 80.6148 45.156 85.7141C52.5733 93.1313 50.9044 106.297 50.8116 106.853C50.7189 107.595 50.1626 108.151 49.4209 108.244C49.4209 108.244 47.9375 108.429 45.7123 108.429ZM25.7785 83.1181C25.5931 86.4558 25.5931 95.1711 30.5997 100.178C34.8646 104.443 41.911 105.092 45.7123 105.092C46.454 105.092 47.1957 105.092 47.6593 104.999C47.8447 101.661 47.8448 92.9459 42.8382 87.9393C38.5733 83.6744 31.5269 83.0254 27.7255 83.0254C26.9838 83.0254 26.3348 83.1181 25.7785 83.1181Z" fill="white"/>
<path d="M24.2947 83.2107C23.8311 83.2107 23.4602 83.0253 23.0894 82.7471L15.4868 75.1445C14.8377 74.4955 14.8377 73.4756 15.4868 72.8266C16.1358 72.1776 17.1556 72.1776 17.8046 72.8266L25.4072 80.4293C26.0562 81.0783 26.0562 82.0981 25.4072 82.7471C25.1291 83.118 24.6656 83.2107 24.2947 83.2107Z" fill="white"/>
<path d="M102.639 20.7226C101.711 20.7226 100.97 19.9809 100.97 19.0537V16.0869C100.97 15.1597 101.711 14.418 102.639 14.418C103.566 14.418 104.308 15.1597 104.308 16.0869V19.0537C104.308 19.9809 103.566 20.7226 102.639 20.7226Z" fill="white"/>
<path d="M106.903 20.7226C105.976 20.7226 105.234 19.9809 105.234 19.0537V16.0869C105.234 15.1597 105.976 14.418 106.903 14.418C107.83 14.418 108.572 15.1597 108.572 16.0869V19.0537C108.572 19.9809 107.83 20.7226 106.903 20.7226Z" fill="white"/>
<path d="M111.076 20.7226C110.149 20.7226 109.407 19.9809 109.407 19.0537V16.0869C109.407 15.1597 110.149 14.418 111.076 14.418C112.003 14.418 112.745 15.1597 112.745 16.0869V19.0537C112.745 19.9809 112.003 20.7226 111.076 20.7226Z" fill="white"/>
<path d="M115.341 20.7226C114.414 20.7226 113.672 19.9809 113.672 19.0537V16.0869C113.672 15.1597 114.414 14.418 115.341 14.418C116.268 14.418 117.01 15.1597 117.01 16.0869V19.0537C117.01 19.9809 116.175 20.7226 115.341 20.7226Z" fill="white"/>
<path d="M109.685 147.001C102.824 147.001 96.3342 146.352 92.0693 145.239C90.9567 144.961 90.0296 144.127 89.2879 142.736C85.5792 135.133 86.5991 124.656 87.2481 120.484C87.9898 115.663 87.7117 101.941 87.2481 95.9146C86.6918 89.7027 85.3938 75.0537 89.8441 68.5636L90.0296 68.2855C93.8309 62.6299 95.4998 60.312 96.3342 48.8153C97.1686 38.0603 98.3739 30.2723 100.043 26.2855C100.321 25.6365 100.877 25.2656 101.619 25.2656H116.453C117.102 25.2656 117.751 25.6365 118.03 26.2855C119.606 30.2723 120.904 38.0603 121.738 48.8153C122.573 60.312 124.149 62.6299 128.043 68.2855L128.228 68.5636C132.679 75.0537 131.381 89.7027 130.824 95.9146C130.268 101.941 130.083 115.663 130.824 120.484C131.473 124.656 132.493 135.226 128.785 142.736C128.136 144.034 127.208 144.868 126.096 145.239C122.202 146.444 116.453 147.001 109.685 147.001ZM102.732 28.6961C101.804 31.3848 100.506 37.2259 99.672 49.1861C98.7448 61.5173 96.7978 64.4842 92.811 70.2325L92.6256 70.5106C88.8243 76.0736 90.1223 90.3517 90.5859 95.7292C91.0495 101.385 91.4203 115.57 90.5859 121.04C90.0296 124.934 89.0097 134.67 92.3474 141.345C92.6256 141.994 92.9038 142.087 92.9038 142.087C96.7978 143.107 103.195 143.663 109.685 143.756C115.99 143.756 121.553 143.199 124.983 142.18C125.261 142.087 125.447 141.716 125.632 141.438C128.97 134.762 127.95 125.027 127.394 121.133C126.559 115.663 126.93 101.385 127.394 95.8219C127.857 90.4444 129.155 76.1663 125.354 70.6034L125.169 70.3252C121.182 64.4842 119.235 61.61 118.308 49.2789C117.381 37.3186 116.083 31.4775 115.248 28.7888H102.732V28.6961Z" fill="white"/>
<path d="M116.268 28.6945H101.619C100.692 28.6945 99.9502 27.9528 99.9502 27.0257V19.7939C99.9502 18.8667 100.692 18.125 101.619 18.125H116.268C117.195 18.125 117.937 18.8667 117.937 19.7939V27.0257C117.937 27.8601 117.195 28.6945 116.268 28.6945ZM103.288 25.3568H114.599V21.4628H103.288V25.3568Z" fill="white"/>
<path d="M117.936 21.3708H100.135C98.466 21.3708 97.168 19.98 97.168 18.4039V14.0463C97.168 10.8939 99.6713 8.39062 102.824 8.39062H115.34C118.492 8.39062 120.996 10.8939 120.996 14.0463V18.4039C120.903 20.0728 119.512 21.3708 117.936 21.3708ZM100.413 18.033H117.565V13.9535C117.565 12.6555 116.545 11.6357 115.247 11.6357H102.731C101.433 11.6357 100.413 12.6555 100.413 13.9535V18.033Z" fill="white"/>
<path d="M128.691 118.165H89.2874C88.8238 118.165 88.3603 117.98 88.0821 117.609C87.804 117.238 87.6186 116.867 87.6186 116.404C87.8967 110.099 87.6185 100.549 87.2477 96.0064C87.0622 93.9667 86.6914 90.2581 86.6914 86.1786C86.6914 85.7151 86.8768 85.3442 87.155 84.9733C87.4331 84.6952 87.8967 84.5098 88.3603 84.5098H129.619C130.082 84.5098 130.453 84.6952 130.824 84.9733C131.102 85.2515 131.287 85.7151 131.287 86.1786C131.195 90.1654 130.917 93.7813 130.731 96.0064C130.36 100.457 130.082 109.821 130.36 116.218C130.36 116.311 130.36 116.404 130.36 116.497C130.36 117.424 129.619 118.165 128.691 118.165ZM91.049 114.828H126.93C126.744 108.43 127.022 99.9932 127.393 95.7283C127.579 93.874 127.857 91.0926 127.95 87.8475H90.1219C90.2146 91.0926 90.4927 94.0594 90.6781 95.7283C90.9563 99.9932 91.2345 108.523 91.049 114.828Z" fill="white"/>
</svg>
