<svg width="121" height="36" viewBox="0 0 121 36" fill="none" xmlns="http://www.w3.org/2000/svg">
<path d="M64.4277 13.8571C64.4277 14.8571 64.4277 16.1428 64.4277 17.5713C64.4277 19.5713 64.4277 28.2856 64.4277 29.4285C64.4277 30.5713 64.4277 31.5713 64.5706 32.1428C64.5706 32.8571 64.7134 33.1428 64.7134 33.2856C64.8563 33.5713 64.8563 33.7142 64.9992 33.9999L65.5706 35.1428C65.5706 35.2856 65.5706 35.2856 65.4277 35.2856H64.7134C64.5706 35.2856 64.2849 35.2856 63.8563 35.2856C63.5706 35.2856 63.2849 35.2856 62.8563 35.2856C62.4277 35.2856 61.9992 35.2856 61.4277 35.2856C60.8563 35.2856 60.4277 35.2856 59.9992 35.2856C59.5706 35.2856 59.2849 35.2856 58.9992 35.2856C58.7134 35.2856 58.4277 35.2856 58.2849 35.2856H57.5706C57.4277 35.2856 57.4277 35.1428 57.4277 35.1428L58.2849 33.4285C58.2849 33.4285 58.4277 33.1428 58.4277 32.9999C58.4277 32.7142 58.5706 32.4285 58.5706 31.9999C58.5706 31.5713 58.5706 31.1428 58.7134 30.4285C58.7134 29.7142 58.7134 28.8571 58.7134 27.8571C58.7134 26.8571 58.7134 18.4285 58.7134 17.1428C58.7134 14.9999 58.7134 13.2856 58.7134 12.1428C58.7134 10.9999 58.7134 9.99992 58.5706 9.42849C58.5706 8.7142 58.4277 8.42849 58.4277 8.28563C58.2849 7.99992 58.2849 7.71421 58.142 7.57135L57.5706 6.28563C57.5706 6.14278 57.5706 6.14278 57.7134 6.14278L58.5706 6.28563C58.7134 6.28563 58.9992 6.28563 59.2849 6.28563C59.5706 6.28563 59.8563 6.28563 60.2849 6.28563H63.2849C63.7134 6.28563 63.9992 6.28563 64.2849 6.28563C64.5706 6.28563 64.8563 6.28563 64.9992 6.28563L65.8563 6.14278C65.9992 6.14278 65.9992 6.28563 65.9992 6.28563L65.142 8.14278C65.142 8.28563 64.9992 8.42849 64.9992 8.57135C64.9992 8.85706 64.8563 9.14278 64.8563 9.57135C64.8563 9.99992 64.8563 10.5713 64.7134 11.1428C64.4277 11.9999 64.4277 12.8571 64.4277 13.8571Z" fill="white"/>
<path d="M34.4283 6.42859C34.1426 6.42859 33.8569 6.42859 33.5711 6.42859H31.1426C30.8569 6.42859 30.5711 6.42859 30.2854 6.42859C29.9997 6.42859 29.8569 6.42859 29.5711 6.42859L28.714 6.28574C28.5711 6.28574 28.5711 6.42859 28.5711 6.42859L29.1426 7.71431C29.2854 8.00002 29.4283 8.28574 29.4283 8.42859C29.4283 8.57145 29.5711 8.85716 29.5711 9.57145C29.5711 10.1429 29.714 11.1429 29.714 12.2857C29.714 13.4286 29.714 15.1429 29.714 17.2857V27.1429C29.714 27.5714 29.714 28 29.714 28.4286C29.714 28.8572 29.714 29.1429 29.5711 29.4286C29.4283 30 29.1426 30.5714 28.714 30.8572C28.2854 31.1429 27.714 31.4286 26.8569 31.4286C25.9997 31.4286 25.2854 31.2857 24.9997 30.8572C24.5711 30.5714 24.2854 30 24.1426 29.4286C24.1426 29.1429 23.9997 28.8572 23.9997 28.4286C23.9997 28 23.9997 27.5714 23.9997 27.1429V16.1429C23.9997 14.2857 23.9997 12.8572 23.9997 11.8572C23.9997 10.8572 23.9997 10 24.1426 9.57145C24.2854 8.85716 24.2854 8.57145 24.4283 8.42859C24.5711 8.14288 24.5711 8.00002 24.714 7.71431L25.2854 6.42859C25.2854 6.28574 25.2854 6.28574 25.1426 6.28574L24.2854 6.42859C24.1426 6.42859 23.8569 6.42859 23.4283 6.42859C23.1426 6.42859 22.8569 6.42859 22.4283 6.42859H19.5711C19.1426 6.42859 18.8569 6.42859 18.5711 6.42859C18.2854 6.42859 17.9997 6.42859 17.8569 6.42859L17.1426 6.28574V6.42859L17.714 7.71431C17.8569 8.00002 17.9997 8.28574 17.9997 8.57145C17.9997 8.71431 18.1426 9.14288 18.1426 9.71431C18.1426 10.2857 18.1426 11.1429 18.2854 12.2857C18.2854 13.4286 18.2854 15 18.2854 16.8572V19.2857C18.2854 19.4286 18.2854 27.7143 18.2854 28.4286C18.2854 29.1429 18.4283 29.7143 18.5711 30.2857C18.714 30.8572 18.8569 31.4286 19.1426 31.8572C19.4283 32.2857 19.714 32.7143 19.9997 33.1429C20.714 34 21.714 34.7143 22.8569 35.1429C23.9997 35.5714 25.2854 35.7143 26.8569 35.7143C28.4283 35.7143 29.8569 35.4286 30.8569 35C31.9997 34.5714 32.8569 33.8572 33.4283 32.8572C33.8569 32.4286 34.1426 31.8572 34.2854 31.2857C34.4283 30.7143 34.5711 30.1429 34.714 29.5715C34.8569 29 34.8569 28.2857 34.8569 27.5714C34.8569 26.8572 34.8569 19.1429 34.8569 18.4286V16.1429C34.8569 14.2857 34.8569 12.8572 34.8569 11.8572C34.8569 10.8572 34.8569 10 34.9997 9.57145C34.9997 9.00002 35.1426 8.57145 35.1426 8.42859C35.2854 8.14288 35.2854 8.00002 35.4283 7.71431L35.9997 6.42859C35.9997 6.28574 35.9997 6.28574 35.8569 6.28574L34.9997 6.42859C34.9997 6.42859 34.714 6.42859 34.4283 6.42859Z" fill="white"/>
<path d="M55.2854 14.7142C54.9997 13.1428 54.4283 11.8571 53.8569 10.7142C53.2854 9.57135 52.5711 8.85706 51.714 8.14278C50.9997 7.57135 50.1426 7.14278 49.2854 6.85706C48.4283 6.57135 47.5711 6.42849 46.714 6.28563C45.8569 6.28563 45.1426 6.14278 44.4283 6.14278C44.1426 6.14278 43.8569 6.14278 43.4283 6.14278L41.2854 6.28563C40.9997 6.28563 40.714 6.28563 40.4283 6.28563H39.4283C39.1426 6.28563 38.8569 6.28563 38.714 6.28563C38.5712 6.28563 38.2854 6.28563 38.1426 6.28563L37.4283 6.14278C37.1426 6.14278 37.1426 6.28563 37.1426 6.42849L37.5711 7.85706C37.714 8.28563 37.8569 8.57135 37.8569 8.85706C37.8569 9.14278 37.9997 9.57135 37.9997 10.5713C37.9997 11.4285 38.1426 12.5713 38.1426 14.1428C38.1426 15.7142 38.1426 17.9999 38.1426 20.7142C38.1426 22.7142 38.1426 24.2856 38.1426 25.7142C38.1426 26.9999 38.1426 28.1428 38.1426 29.1428C38.1426 29.9999 38.1426 30.8571 37.9997 31.2856C37.9997 31.8571 37.9997 32.2856 37.8569 32.5713C37.8569 32.8571 37.714 33.1428 37.714 33.2856C37.714 33.4285 37.5712 33.7142 37.4283 33.9999L37.1426 35.2856C37.1426 35.4285 37.1426 35.4285 37.2854 35.4285H37.9997C38.1426 35.4285 38.4283 35.4285 38.5711 35.4285C38.714 35.4285 38.9997 35.4285 39.4283 35.4285C39.714 35.4285 40.1426 35.4285 40.4283 35.4285C40.5711 35.4285 40.8569 35.4285 41.2854 35.4285L43.4283 35.5713C43.8569 35.5713 44.1426 35.5713 44.4283 35.5713C45.1426 35.5713 45.8569 35.5713 46.714 35.4285C47.5711 35.4285 48.4283 35.1428 49.2854 34.8571C50.1426 34.5713 50.9997 33.9999 51.714 33.4285C52.5711 32.7142 53.2854 31.8571 53.8569 30.7142C54.4283 29.5714 54.8569 28.1428 55.2854 26.4285C55.5711 24.7142 55.8569 22.7142 55.8569 20.2856C55.714 18.1428 55.5711 16.2856 55.2854 14.7142ZM48.4283 29.2856C47.714 30.7142 46.4283 31.4285 44.714 31.4285C44.714 31.4285 44.4283 31.4285 44.1426 31.4285C43.9997 31.4285 43.8569 31.2856 43.8569 31.1428V10.2856C43.8569 10.2856 43.8569 10.1428 43.9997 10.1428C44.1426 10.1428 44.5711 10.1428 44.714 10.1428C46.4283 10.1428 47.5712 10.8571 48.4283 12.2856C49.1426 13.7142 49.714 16.9999 49.714 20.7142C49.714 24.4285 49.2854 27.8571 48.4283 29.2856Z" fill="white"/>
<path d="M83.4291 21.5714C83.1434 21.5714 82.8577 21.5714 82.4291 21.5714H79.572C79.1434 21.5714 78.8577 21.5714 78.572 21.5714C78.2863 21.5714 78.1434 21.5714 77.8577 21.5714L77.1434 21.4285C77.0006 21.4285 77.0006 21.5714 77.0006 21.5714L77.572 22.9999C77.7148 23.2857 77.7148 23.7142 77.8577 23.9999C78.0006 24.4285 78.0006 24.8571 78.0006 25.4285C78.0006 25.9999 78.1434 26.8571 78.1434 27.7142C78.1434 28.5714 78.1434 29.9999 78.1434 31.2857C78.1434 31.2857 78.1434 31.2857 78.1434 31.4285C78.1434 31.4285 78.1434 31.4285 78.0006 31.4285H77.7148C76.8577 31.4285 76.1434 31.2857 75.572 30.8571C75.0006 30.4285 74.572 29.8571 74.1434 29.1428C73.7148 28.4285 73.4291 27.4285 73.2863 26.2857C73.1434 25.1428 73.0006 21.5714 73.0006 19.8571C73.0006 17.9999 73.1434 16.4285 73.4291 15.1428C73.8577 13.8571 74.2863 12.8571 74.7148 12.1428C75.1434 11.4285 75.7148 10.8571 76.2863 10.5714C76.8577 10.2857 77.572 10.1428 78.4291 10.1428C79.0006 10.1428 79.4291 10.1428 79.8577 10.2857C80.2863 10.4285 80.572 10.5714 80.8577 10.8571C81.1434 11.1428 81.4291 11.4285 81.7148 11.8571C82.0006 12.2857 82.2863 12.8571 82.572 13.4285L83.7148 15.7142C83.7148 15.8571 84.0006 15.7142 83.8577 15.7142L83.7148 13.1428C83.7148 12.8571 83.7148 12.5714 83.7148 12.1428C83.7148 11.8571 83.7148 11.5714 83.7148 11.1428V9.71423C83.7148 9.28566 83.7148 8.99994 83.7148 8.71423C83.7148 8.57137 83.7148 7.99994 83.7148 7.85708V7.71423H83.572L83.2863 7.57137C82.8577 7.28566 82.4291 7.1428 81.8577 6.99994C81.4291 6.85708 80.8577 6.71423 80.1434 6.57137C79.4291 6.42851 78.572 6.42851 77.572 6.42851C75.8577 6.42851 74.2863 6.71423 73.0006 7.42851C71.572 7.99994 70.4291 8.99994 69.572 10.2857C68.7148 11.5714 68.0006 13.1428 67.4291 15.1428C67.0006 16.9999 66.7148 19.2857 66.7148 21.8571C66.7148 24.2857 67.0006 26.4285 67.4291 28.1428C68.0006 29.8571 68.7148 31.4285 69.572 32.5714C70.572 33.7142 71.7148 34.5714 73.0006 35.1428C74.2863 35.7142 75.7148 35.9999 77.2863 35.9999C78.1434 35.9999 79.0006 35.9999 79.7148 35.8571C80.4291 35.7142 81.0006 35.5714 81.572 35.4285C82.1434 35.2857 82.7148 34.9999 83.1434 34.7142L83.2863 34.5714V34.1428C83.2863 31.8571 83.2863 30.2857 83.2863 28.8571C83.2863 27.5714 83.2863 26.5714 83.4291 25.8571C83.4291 24.9999 83.572 24.5714 83.572 24.4285C83.7148 24.1428 83.7148 23.8571 83.8577 23.4285L84.4291 21.9999C84.4291 21.8571 84.4291 21.8571 84.2863 21.8571L84.0006 21.4285C83.8577 21.4285 83.7148 21.5714 83.4291 21.5714Z" fill="white"/>
<path d="M98.2863 30.1428C98.1434 30.4285 97.8577 30.5713 97.7148 30.7142C97.4291 30.8571 97.1434 30.9999 96.7148 31.1428C96.2863 31.2856 95.7148 31.2856 94.8577 31.2856H93.0006C93.0006 31.2856 92.8577 31.2856 92.8577 31.1428V22.7142C92.8577 22.5713 92.8577 22.5713 93.0006 22.5713H94.4291C95.0006 22.5713 95.572 22.5713 96.0006 22.7142C96.4291 22.7142 96.7148 22.8571 97.0006 22.9999C97.4291 23.2856 97.572 23.4285 97.572 23.4285L98.7148 24.5713C98.7148 24.5713 98.8577 24.5713 98.8577 24.4285V23.1428C98.8577 23.1428 98.8577 22.8571 98.8577 22.4285C98.8577 21.9999 98.8577 21.2856 98.8577 20.4285C98.8577 19.4285 98.8577 18.7142 98.8577 18.2856C98.8577 17.8571 98.8577 17.5713 98.8577 17.5713V16.2856C98.8577 16.1428 98.7148 16.1428 98.7148 16.1428L97.8577 17.1428C97.8577 17.1428 97.7148 17.2856 97.572 17.4285C97.572 17.4285 97.4291 17.5713 97.0006 17.8571C96.7148 17.9999 96.4291 18.1428 96.0006 18.1428C95.572 18.2856 95.0006 18.2856 94.4291 18.2856H93.0006C93.0006 18.2856 92.8577 18.2856 92.8577 18.1428V10.7142C92.8577 10.7142 92.8577 10.5713 93.0006 10.5713H95.0006C96.1434 10.5713 97.0006 10.7142 97.572 11.1428C98.0006 11.4285 98.1434 11.5713 98.1434 11.5713L99.1434 12.7142C99.1434 12.8571 99.2863 12.7142 99.2863 12.5713V11.4285C99.2863 11.4285 99.2863 11.1428 99.2863 10.7142C99.2863 10.2856 99.2863 9.7142 99.2863 8.99992V7.42849C99.2863 7.28563 99.2863 7.14278 99.2863 6.99992L99.4291 6.42849C99.4291 6.42849 99.4291 6.42849 99.4291 6.28563H87.4291C87.2863 6.28563 87.1434 6.28563 87.0006 6.28563L86.0006 6.14278C85.8577 6.14278 85.8577 6.28563 85.8577 6.28563L86.4291 7.57135C86.572 7.85706 86.7148 8.14278 86.7148 8.28563C86.7148 8.42849 86.8577 8.7142 86.8577 9.42849C86.8577 9.99992 87.0006 10.8571 87.0006 12.1428C87.0006 13.2856 87.0006 14.9999 87.0006 17.1428C87.0006 18.5713 87.0006 19.8571 87.0006 20.8571C87.0006 21.1428 87.0006 22.2856 87.0006 23.5713V24.4285C87.0006 26.8571 87.0006 29.9999 87.0006 30.4285C87.0006 31.1428 87.0006 31.7142 86.8577 31.9999C86.8577 32.4285 86.8577 32.7142 86.7148 32.9999C86.7148 33.2856 86.572 33.4285 86.572 33.5713C86.572 33.7142 86.4291 33.8571 86.2863 33.9999L85.7148 35.1428C85.7148 35.1428 85.7148 35.2856 85.8577 35.2856H87.1434C87.2863 35.2856 87.572 35.2856 87.8577 35.2856C88.1434 35.2856 88.4291 35.2856 88.7148 35.2856H99.4291C99.4291 35.2856 99.572 35.2856 99.572 35.1428L99.7148 33.5713C99.7148 32.8571 99.7148 32.1428 99.8577 31.5713C99.8577 30.9999 99.8577 30.5713 100.001 30.2856C100.001 29.8571 100.001 29.5713 100.143 29.2856L100.286 27.2856C100.286 27.1428 100.143 27.1428 100.001 27.2856L99.0006 28.9999C98.7148 29.4285 98.572 29.8571 98.2863 30.1428Z" fill="white"/>
<path d="M21.8566 4.85708C21.428 4.42851 21.2852 3.71423 21.2852 2.99994C21.2852 2.1428 21.5709 1.57137 21.9994 1.1428C22.428 0.714227 23.1423 0.428513 23.9994 0.428513C24.8566 0.428513 25.5709 0.714227 25.9994 1.1428C26.428 1.57137 26.7137 2.28566 26.7137 2.99994C26.7137 3.85708 26.428 4.42851 25.9994 4.85708C25.5709 5.28566 24.8566 5.57137 23.8566 5.57137C22.8566 5.57137 22.2852 5.28566 21.8566 4.85708Z" fill="white"/>
<path d="M55.714 14.7142C55.4283 13.1428 54.8569 11.7142 54.2854 10.7142C53.714 9.57137 52.8569 8.71423 52.1426 7.99994C51.2854 7.42851 50.4283 6.85708 49.4283 6.57137C49.2854 6.57137 49.2854 6.57137 49.1426 6.42851C49.2854 6.42851 49.2854 6.42851 49.4283 6.57137C50.2854 6.85708 51.1426 7.28566 51.9997 7.99994C52.8569 8.57137 53.5711 9.57137 54.1426 10.5714C54.714 11.5714 55.2854 12.9999 55.5711 14.5714C55.8569 16.1428 56.1426 18.1428 56.1426 20.2857C56.1426 22.7142 55.9997 24.7142 55.5711 26.4285C55.2854 28.1428 54.714 29.5714 54.1426 30.7142C53.5711 31.8571 52.8569 32.8571 51.9997 33.4285C51.4283 33.8571 50.9997 34.1428 50.4283 34.4285C50.2854 34.5714 50.1426 34.5714 49.9997 34.7142C49.8569 34.7142 49.5711 34.8571 49.4283 34.9999C49.5711 34.9999 49.8569 34.8571 49.9997 34.7142C50.1426 34.7142 50.2854 34.5714 50.4283 34.4285C50.9997 34.1428 51.5711 33.8571 52.1426 33.4285C52.9997 32.7142 53.714 31.8571 54.4283 30.5714C54.9997 29.4285 55.5711 27.9999 55.8569 26.2857C56.1426 24.5714 56.4283 22.5714 56.4283 20.1428C56.2854 18.1428 56.1426 16.2857 55.714 14.7142Z" fill="white"/>
<path d="M85.4294 21.7143C85.2866 21.5715 85.2866 21.5715 85.2866 21.5715L84.7151 23.0001C84.5723 23.2858 84.5723 23.5715 84.4294 24.0001C84.4294 24.1429 84.2866 24.5715 84.2866 25.4286C84.2866 26.1429 84.1437 27.1429 84.1437 28.4286C84.1437 29.7143 84.1437 31.4286 84.1437 33.7143V34.1429C84.1437 34.1429 84.1437 34.1429 84.1437 34.2858C84.1437 34.2858 84.1437 34.2858 84.1437 34.4286C84.1437 34.4286 84.1437 34.5715 84.0008 34.5715C84.0008 34.5715 84.0008 34.5715 83.858 34.5715L83.7151 34.7143C83.2866 34.8572 83.0008 35.0001 82.5723 35.2858C83.2866 35.0001 84.1437 34.5715 84.1437 34.5715C84.2866 34.5715 84.2866 34.4286 84.2866 34.4286V34.2858V34.1429V33.7143C84.2866 31.4286 84.2866 29.8572 84.2866 28.4286C84.2866 27.1429 84.2866 26.1429 84.4294 25.4286C84.4294 24.5715 84.5723 24.2858 84.5723 24.0001C84.7151 23.7143 84.7151 23.4286 84.858 23.0001L85.4294 21.7143Z" fill="white"/>
<path d="M77.9994 10.4285C77.8566 10.4285 77.8566 10.4285 77.9994 10.4285C77.428 10.4285 76.8566 10.5714 76.428 10.8571C75.8566 11.1428 75.2852 11.7142 74.8566 12.2857C74.428 12.9999 73.9994 13.9999 73.7137 15.1428C73.428 16.4285 73.2852 17.9999 73.2852 19.8571C73.2852 21.4285 73.428 24.9999 73.5709 26.1428C73.7137 27.2857 73.9994 28.2857 74.428 28.9999C74.7137 29.7142 75.2852 30.2857 75.7137 30.5714C76.2852 30.8571 76.8566 31.1428 77.7137 31.1428C76.8566 31.1428 76.2852 30.9999 75.8566 30.5714C75.2852 30.2857 74.9994 29.7142 74.7137 28.9999C74.2852 28.2857 74.1423 27.2857 73.9994 26.1428C73.8566 24.9999 73.8566 21.4285 73.8566 19.8571C73.8566 17.9999 73.9994 16.4285 74.2852 15.2857C74.5709 14.1428 74.8566 13.1428 75.2852 12.4285C75.7137 11.7142 76.1423 11.2857 76.7137 10.9999C77.1423 10.8571 77.5709 10.5714 77.9994 10.5714C77.8566 10.5714 77.8566 10.5714 77.9994 10.4285C77.8566 10.5714 77.8566 10.5714 77.9994 10.4285C77.9994 10.5714 77.8566 10.5714 77.9994 10.4285C77.9994 10.5714 77.9994 10.5714 77.9994 10.4285Z" fill="white"/>
<path d="M27.0003 3C27.0003 2.14286 26.7146 1.42857 26.1431 0.857143C25.7146 0.285714 24.8574 0 23.8574 0C24.8574 0 25.5717 0.285714 26.0003 0.857143C26.4289 1.42857 26.7146 2 26.7146 2.85714C26.7146 3.71429 26.4289 4.42857 26.0003 4.85714C25.5717 5.28572 24.8574 5.57143 23.8574 5.57143C24.8574 5.57143 25.7146 5.28571 26.1431 4.71429C26.7146 4.57143 27.0003 3.85714 27.0003 3Z" fill="white"/>
<path d="M27.8566 4.85708C27.428 4.42851 27.2852 3.71423 27.2852 2.99994C27.2852 2.1428 27.5709 1.57137 27.9994 1.1428C28.428 0.714227 29.1423 0.428513 29.9994 0.428513C30.8566 0.428513 31.5709 0.714227 31.9994 1.1428C32.428 1.57137 32.7137 2.28566 32.7137 2.99994C32.7137 3.85708 32.428 4.42851 31.9994 4.85708C31.5709 5.28566 30.8566 5.57137 29.8566 5.57137C28.9994 5.57137 28.2852 5.28566 27.8566 4.85708Z" fill="white"/>
<path d="M33.1429 3C33.1429 2.14286 32.8571 1.42857 32.2857 0.857143C31.8571 0.285714 31 0 30 0C31 0 31.7143 0.285714 32.1429 0.857143C32.5714 1.57143 32.8571 2.14286 32.8571 3C32.8571 3.85714 32.5714 4.57143 32.1429 5C31.5714 5.57143 30.8571 5.71429 30 5.85714C31 5.85714 31.8571 5.57143 32.2857 5C32.8571 4.57143 33.1429 3.85714 33.1429 3Z" fill="white"/>
<path d="M84.428 15.7142L84.2852 13.1428C84.2852 12.8571 84.2852 12.5714 84.2852 12.1428C84.2852 11.8571 84.2852 11.5714 84.2852 11.1428V9.71423C84.2852 9.28566 84.2852 8.99994 84.2852 8.71423C84.2852 8.57137 84.2852 8.42851 84.2852 7.85708C84.2852 7.71423 84.2852 7.71423 84.2852 7.57137C84.2852 7.57137 84.2852 7.42851 83.9994 7.28566L83.8566 7.1428C83.428 6.85708 82.8566 6.71423 82.2852 6.42851C82.8566 6.57137 83.2852 6.85708 83.7137 6.99994L83.9994 7.1428C84.1423 7.1428 84.1423 7.28566 84.1423 7.28566V7.42851C84.1423 7.85708 84.1423 8.1428 84.1423 8.28566C84.1423 8.57137 84.1423 8.85708 84.1423 9.28566V10.8571C84.1423 11.2857 84.1423 11.5714 84.1423 11.8571C84.1423 12.2857 84.1423 12.5714 84.1423 12.8571L84.2852 15.2857C84.428 15.7142 84.428 15.7142 84.428 15.7142Z" fill="white"/>
<path d="M25.9994 30.8571C25.7137 30.8571 25.428 30.7143 25.2852 30.5714C24.5709 29.7143 24.5709 28.8571 24.5709 28.4285C24.5709 28 24.5709 27.5714 24.5709 27.1428V16.1428C24.5709 14.2857 24.5709 12.8571 24.5709 11.8571C24.5709 10.8571 24.5709 10.1428 24.7137 9.57141C24.7137 8.85712 24.8566 8.71426 24.8566 8.57141C24.9994 8.28569 24.9994 8.14284 25.1423 7.85712L25.7137 6.71426L25.1423 7.99998C24.9994 8.28569 24.9994 8.42855 24.8566 8.71426C24.8566 8.85712 24.7137 9.14284 24.7137 9.71426C24.2852 10.1428 24.2852 10.8571 24.2852 11.8571C24.2852 12.8571 24.2852 14.2857 24.2852 16.1428V27.1428C24.2852 27.5714 24.2852 28 24.2852 28.4285C24.2852 28.8571 24.2852 29.1428 24.428 29.4285C24.5709 30 24.8566 30.4286 25.1423 30.8571C25.2852 31 25.5709 31.1428 25.9994 31.2857C25.9994 31.1428 26.1423 31.1428 25.9994 30.8571Z" fill="white"/>
<path d="M36.5719 6.57137C36.429 6.42851 36.5719 6.42851 36.5719 6.57137C36.429 6.42851 36.429 6.42851 36.429 6.42851L35.7147 7.85708C35.5719 8.1428 35.5719 8.28566 35.429 8.57137C35.429 8.71423 35.2861 8.99994 35.2861 9.57137C35.2861 10.1428 35.1433 10.8571 35.1433 11.8571C35.1433 12.8571 35.1433 14.1428 35.1433 16.1428V18.4285C35.1433 19.1428 35.1433 26.8571 35.1433 27.5714C35.1433 28.2857 35.0004 28.9999 35.0004 29.5714C34.8576 30.1428 34.7147 30.8571 34.5719 31.4285C34.429 31.9999 34.0004 32.5714 33.7147 32.9999C33.1433 33.8571 32.429 34.4285 31.429 34.9999C31.429 34.9999 31.429 34.9999 31.2861 34.9999C31.2861 34.9999 31.1433 35.1428 31.2861 35.1428C31.2861 35.1428 31.429 35.2857 31.429 35.1428C31.5719 35.1428 31.5719 35.1428 31.5719 34.9999C31.7147 34.9999 31.8576 34.8571 31.8576 34.8571C32.0004 34.7142 32.2861 34.5714 32.429 34.5714C34.0004 33.4285 34.7147 31.9999 34.8576 31.4285C35.0004 30.8571 35.1433 30.2857 35.2861 29.5714C35.429 28.9999 35.429 28.2857 35.429 27.5714C35.429 26.8571 35.429 19.1428 35.429 18.4285V16.1428C35.429 14.2857 35.429 12.8571 35.429 11.8571C35.429 10.8571 35.429 10.1428 35.5719 9.57137C35.5719 8.99994 35.7147 8.71423 35.7147 8.57137C35.8576 8.42851 35.8576 8.1428 36.0004 7.85708L36.5719 6.57137Z" fill="white"/>
<path d="M66.0006 6.57137C65.8577 6.42851 65.8577 6.42851 66.0006 6.57137C65.8577 6.42851 65.8577 6.42851 65.8577 6.42851L65.1434 8.1428C65.1434 8.1428 65.1434 8.28566 65.0006 8.57137C65.0006 8.85708 64.8577 9.1428 64.8577 9.57137C64.8577 9.99994 64.8577 10.5714 64.7148 11.1428C64.7148 11.8571 64.7148 12.7142 64.7148 13.7142C64.7148 14.7142 64.7148 15.9999 64.7148 17.4285C64.7148 19.4285 64.7148 28.1428 64.7148 29.2857C64.7148 30.4285 64.7148 31.4285 64.8577 31.9999C64.8577 32.7142 65.0006 32.9999 65.0006 33.1428C65.1434 33.4285 65.1434 33.5714 65.2863 33.8571C65.1434 33.5714 65.0006 33.4285 65.0006 33.1428C65.0006 32.9999 64.8577 32.7142 64.8577 31.9999C64.8577 31.4285 64.7148 30.5714 64.7148 29.2857C64.7148 28.1428 64.7148 19.5714 64.7148 17.4285C64.7148 15.9999 64.7148 14.7142 64.7148 13.7142C64.7148 12.7142 64.7148 11.8571 64.7148 11.1428C64.7148 10.4285 64.7148 9.85708 64.8577 9.57137C64.8577 9.1428 64.8577 8.85708 65.0006 8.57137C65.0006 8.28566 65.1434 8.1428 65.1434 8.1428L66.0006 6.57137Z" fill="white"/>
<path d="M93.4283 10.5715H93.1426V18.4286H93.4283V10.5715Z" fill="white"/>
<path d="M93.5712 25.1429V22.5715H93.1426V31.2858H93.5712V25.1429Z" fill="white"/>
<path d="M44.2852 10.1428V31.4285C44.428 31.4285 44.428 31.4285 44.5709 31.4285V10.1428C44.428 10.1428 44.2852 10.1428 44.2852 10.1428Z" fill="white"/>
<path d="M100.857 27.5714C100.714 27.4285 100.714 27.4285 100.857 27.5714C100.857 27.4285 100.714 27.4285 100.714 27.4285L100.571 29.2857C100.571 29.5714 100.571 29.8571 100.428 30.2857C100.428 30.5714 100.428 30.9999 100.285 31.5714C100.285 32.1428 100.285 32.7142 100.143 33.5714V34.8571L100.285 33.4285C100.285 32.7142 100.285 31.9999 100.428 31.4285C100.428 30.8571 100.428 30.4285 100.571 30.1428C100.571 29.7142 100.571 29.4285 100.714 29.1428L100.857 27.5714Z" fill="white"/>
<path d="M18.1429 34.1428L17.5714 33.8571C17.1429 33.5714 16.8571 33.2856 16.5714 32.8571C16.2857 32.2856 16 31.5714 15.7143 30.7142L14.2857 25.9999C14 25.1428 13.7143 24.5714 13.4286 23.8571C13.1429 23.2856 12.8571 22.7142 12.5714 22.2856C12.4286 21.9999 12.1429 21.7142 11.8571 21.5713C12 21.5713 12.1429 21.4285 12.2857 21.4285C12.8571 21.1428 13.4286 20.7142 13.8571 20.1428C14.4286 19.4285 14.8571 18.7142 15.2857 17.5713C15.5714 16.5713 15.8571 15.2856 15.8571 13.7142C15.8571 11.8571 15.5714 10.9999 15.1429 9.85706C14.5714 8.85706 14 7.99992 13.1429 7.42849C12.2857 6.85706 11.2857 6.57135 10.2857 6.42849C9.14286 6.28563 8.14286 6.28563 7 6.28563C6.71429 6.28563 6.42857 6.28563 6.14286 6.28563C5.85714 6.28563 5.42857 6.28563 5 6.28563C4.71429 6.28563 4.28571 6.28563 4 6.28563C3.71429 6.28563 3.42857 6.28563 3.14286 6.28563H2.28571C2 6.28563 1.71429 6.28563 1.57143 6.28563C1.28571 6.28563 1.14286 6.28563 1 6.28563L0.285714 6.14278H0.142857V6.28563L0.571429 7.7142C0.714286 8.14278 0.857143 8.42849 0.857143 8.7142C1 8.99992 1 9.57135 1 10.4285C1 11.2856 1 12.4285 1.14286 13.9999C1.14286 15.5713 1.14286 17.8571 1.14286 20.5713C1.14286 22.5713 1.14286 24.1428 1.14286 25.5713C1.14286 26.8571 1.14286 27.9999 1.14286 28.9999C1.14286 29.8571 1.14286 30.7142 1 31.1428C1 31.7142 0.857143 32.1428 0.857143 32.4285C0.857143 32.8571 0.714286 32.9999 0.714286 33.1428C0.714286 33.2856 0.571429 33.5714 0.428571 33.8571L0 35.2856H0.714286C0.857143 35.2856 1.14286 35.2856 1.42857 35.2856C1.71429 35.2856 2 35.2856 2.42857 35.2856C2.85714 35.2856 3.28571 35.2856 3.71429 35.2856C4.28571 35.2856 4.71429 35.2856 5 35.2856C5.28571 35.2856 5.57143 35.2856 5.71429 35.2856H5.85714C6.14286 35.2856 6.42857 35.2856 6.71429 35.2856H7.42857L7 33.9999C7.14286 33.5713 7.14286 33.2856 7 32.9999C7 32.8571 6.85714 32.4285 6.85714 31.5713C6.85714 30.9999 6.71429 29.7142 6.71429 28.1428C6.71429 26.9999 6.71429 24.9999 6.71429 22.7142C6.71429 22.7142 7 22.9999 7.42857 24.1428C7.57143 24.4285 7.71429 24.8571 7.85714 25.4285C8 25.8571 8.14286 26.4285 8.28572 26.8571L9.71429 31.1428C10 31.9999 10.2857 32.7142 10.7143 33.2856C11 33.8571 11.4286 34.4285 11.7143 34.7142C12.1429 35.1428 12.5714 35.4285 13.1429 35.5713C13.5714 35.7142 14.1429 35.8571 14.7143 35.8571C15.2857 35.8571 15.7143 35.8571 16.1429 35.7142C16.5714 35.5714 16.8571 35.5713 17.1429 35.4285C17.4286 35.2856 17.7143 35.1428 17.8571 34.9999L18.2857 34.5714C18.1429 34.4285 18.1429 34.2856 18.1429 34.1428C18.1429 34.2856 18.1429 34.2856 18.1429 34.1428ZM9.42857 17.7142C9.14286 18.2856 8.85714 18.5713 8.28572 18.7142C8.14286 18.8571 8 18.8571 7.71429 18.8571C7.42857 18.8571 7.28571 18.8571 7 18.8571H6.85714V10.2856C7 10.2856 7 10.2856 7.14286 10.2856C7.57143 10.2856 8 10.2856 8.42857 10.4285C8.71429 10.5713 9 10.7142 9.28571 10.8571C9.42857 11.1428 9.57143 11.4285 9.71429 11.9999C9.85714 12.4285 10 13.9999 10 14.9999C10 16.1428 9.85714 17.1428 9.42857 17.7142Z" fill="white"/>
<path d="M18.5714 33.8571L18.4286 33.7142C18.4286 33.7142 18.1429 33.5714 18 33.5714C17.7143 33.4285 17.2857 32.9999 17 32.5714C16.7143 32.1428 16.5714 31.4285 16.1429 30.4285C15.7143 29.2857 15.1429 26.9999 14.7143 25.8571C14.4286 24.9999 14.1429 24.1428 13.8571 23.5714C13.5714 22.9999 13.1429 22.4285 12.8571 21.9999C12.7143 21.8571 12.5714 21.7142 12.5714 21.5714C12.5714 21.5714 12.5714 21.5714 12.5714 21.4285C12.5714 21.4285 12.5714 21.4285 12.5714 21.2857C13.1429 20.9999 13.7143 20.5714 14.2857 19.9999C14.8571 19.2857 15.4286 18.4285 15.7143 17.2857C15.8571 16.7142 16 15.9999 16.1429 15.2857C16.1429 14.7142 16.2857 14.2857 16.2857 13.2857C16.2857 11.7142 16 10.4285 15.4286 9.28566C15 8.42851 14.4286 7.71423 13.7143 7.1428C13.7143 7.28566 13.4286 7.1428 13.2857 6.99994C12.5714 6.57137 12.1429 6.42851 12 6.42851H12.1429C12.5714 6.85708 12.7143 6.99994 13.1429 7.1428C14 7.71423 14.7143 8.57137 15.2857 9.57137C15.8571 10.5714 16 11.5714 16 13.4285C16 14.9999 15.8571 16.2857 15.4286 17.2857C15.1429 18.2857 14.5714 19.2857 14 19.8571C13.5714 20.4285 13 20.8571 12.4286 21.1428C12.2857 21.1428 12.2857 21.2857 12.2857 21.2857C12.2857 21.4285 12.2857 21.4285 12.4286 21.5714C12.5714 21.7142 12.7143 21.8571 12.7143 21.9999C13 22.4285 13.2857 22.9999 13.5714 23.5714C13.8571 24.1428 14.1429 24.8571 14.4286 25.7142L15.8571 30.4285C16.1429 31.2857 16.4286 32.1428 16.7143 32.5714C17 32.9999 17.2857 33.2857 17.5714 33.5714L18 33.8571C18 33.8571 18 33.8571 18.1429 33.9999C18.1429 33.9999 18.1429 34.1428 18.2857 34.1428V34.2857C18.2857 34.4285 18 34.7142 17.8571 34.8571L17.7143 34.9999C17.7143 34.9999 17.7143 34.9999 17.7143 35.1428C17.7143 35.1428 17.7143 35.2857 17.8571 35.2857C18.4286 34.8571 18.5714 34.7142 18.7143 34.4285C18.7143 34.2857 18.7143 34.2857 18.7143 34.1428C18.7143 34.1428 18.5714 33.9999 18.5714 33.8571Z" fill="white"/>
<path d="M7.28571 19C7.28571 15.1429 7.28571 11.4286 7.28571 10.2857H7.14286H7C7 11.4286 7 15.1429 7 19H7.28571Z" fill="white"/>
<path d="M8.28516 35.1429L7.85658 33.8571C7.71373 33.5714 7.57087 33.2857 7.57087 33C7.57087 32.8571 7.42801 32.4286 7.42801 31.7143C7.42801 31.1429 7.28516 29.8571 7.28516 28.2857C7.28516 28 7.28516 26.5714 7.28516 24C7.28516 26.8571 7.28516 27.8571 7.28516 28.2857C7.28516 29.8571 7.28516 31.1429 7.42801 31.7143C7.42801 32.5714 7.57087 32.8571 7.57087 33.1429C7.71373 33.4286 7.71373 33.7143 7.85658 34L8.28516 35.2857C8.28516 35.2857 8.28516 35.2857 8.28516 35.1429C8.28516 35.2857 8.28516 35.2857 8.28516 35.1429Z" fill="white"/>
<path d="M119.858 34.1428L119.286 33.8571C118.858 33.5714 118.572 33.2856 118.286 32.8571C118.001 32.2856 117.715 31.5714 117.429 30.7142L116.001 25.9999C115.715 25.1428 115.429 24.5714 115.143 23.8571C114.858 23.2856 114.572 22.7142 114.286 22.2856C114.143 21.9999 113.858 21.7142 113.572 21.5713C113.715 21.5713 113.858 21.4285 114.001 21.4285C114.572 21.1428 115.143 20.7142 115.572 20.1428C116.143 19.4285 116.572 18.7142 117.001 17.5713C117.286 16.5713 117.572 15.2856 117.572 13.7142C117.572 11.8571 117.286 10.9999 116.858 9.85706C116.286 8.85706 115.715 7.99992 114.858 7.42849C114.001 6.85706 113.001 6.57135 112.001 6.42849C111.001 6.28563 110.001 6.28563 108.858 6.28563C108.572 6.28563 108.286 6.28563 108.001 6.28563C107.715 6.28563 107.286 6.28563 106.858 6.28563C106.572 6.28563 106.143 6.28563 105.858 6.28563C105.572 6.28563 105.286 6.28563 105.001 6.28563H104.001C103.715 6.28563 103.429 6.28563 103.286 6.28563C103.001 6.28563 102.858 6.28563 102.715 6.28563L102.001 6.14278H101.858V6.28563L102.286 7.7142C102.429 8.14278 102.572 8.42849 102.572 8.7142C102.715 8.99992 102.715 9.57135 102.715 10.4285C102.715 11.2856 102.715 12.4285 102.858 13.9999C102.858 15.5713 102.858 17.8571 102.858 20.5713C102.858 22.5713 102.858 24.1428 102.858 25.5713C102.858 26.8571 102.858 27.9999 102.858 28.9999C102.858 29.8571 102.858 30.7142 102.715 31.1428C102.715 31.7142 102.572 32.1428 102.572 32.4285C102.572 32.8571 102.429 32.9999 102.429 33.1428C102.429 33.2856 102.286 33.5714 102.143 33.8571L101.715 35.1428H102.429C102.572 35.1428 102.858 35.1428 103.143 35.1428C103.429 35.1428 103.715 35.1428 104.143 35.1428C104.572 35.1428 105.001 35.1428 105.429 35.1428C106.001 35.1428 106.429 35.1428 106.715 35.1428C107.001 35.1428 107.286 35.1428 107.429 35.1428H107.572C107.858 35.1428 108.143 35.1428 108.429 35.1428H109.143L108.715 33.8571C108.572 33.5714 108.429 33.1428 108.429 32.8571C108.429 32.7142 108.286 32.2856 108.286 31.4285C108.286 30.8571 108.143 29.5713 108.143 27.9999C108.143 26.8571 108.143 24.8571 108.143 22.5713C108.143 22.5713 108.429 22.8571 108.858 23.9999C109.001 24.2856 109.143 24.7142 109.286 25.2856C109.429 25.7142 109.572 26.2856 109.715 26.7142L111.143 30.9999C111.429 31.8571 111.715 32.5714 112.143 33.1428C112.429 33.7142 112.858 34.2856 113.143 34.5714C113.572 34.9999 114.001 35.2856 114.429 35.4285C114.858 35.5713 115.429 35.7142 116.001 35.7142C116.572 35.7142 117.001 35.7142 117.429 35.5713C117.858 35.4285 118.143 35.4285 118.429 35.2856C118.715 35.1428 119.001 34.9999 119.143 34.8571L119.572 34.4285C119.858 34.4285 119.858 34.2856 119.858 34.1428C119.858 34.2856 119.858 34.2856 119.858 34.1428ZM111.143 17.7142C110.858 18.2856 110.572 18.5713 110.001 18.7142C109.858 18.8571 109.715 18.8571 109.429 18.8571C109.143 18.8571 109.001 18.8571 108.715 18.8571H108.572V10.2856C108.715 10.2856 108.715 10.2856 108.858 10.2856C109.286 10.2856 109.715 10.2856 110.143 10.4285C110.429 10.5713 110.715 10.7142 111.001 10.8571C111.143 11.1428 111.286 11.4285 111.429 11.9999C111.572 12.4285 111.715 13.9999 111.715 14.9999C111.715 16.1428 111.572 17.1428 111.143 17.7142Z" fill="white"/>
<path d="M120.287 33.8571L120.144 33.7142C120.144 33.7142 119.858 33.5713 119.715 33.5713C119.429 33.4285 119.001 32.9999 118.715 32.5713C118.429 32.1428 118.287 31.4285 117.858 30.4285C117.429 29.2856 116.858 26.9999 116.429 25.8571C116.144 24.9999 115.858 24.1428 115.572 23.5713C115.287 22.9999 114.858 22.4285 114.572 21.9999C114.429 21.8571 114.287 21.7142 114.287 21.5713C114.287 21.5713 114.287 21.5713 114.287 21.4285C114.287 21.4285 114.287 21.4285 114.287 21.2856C114.858 20.9999 115.429 20.5713 116.001 19.9999C116.572 19.2856 117.144 18.4285 117.429 17.2856C117.572 16.7142 117.715 15.9999 117.858 15.2856C117.858 14.7142 118.001 14.2856 118.001 13.2856C118.001 11.7142 117.715 10.4285 117.144 9.28563C116.715 8.42849 116.144 7.7142 115.429 7.14278C115.287 6.99992 115.001 6.85706 114.715 6.7142C114.144 6.28563 113.572 6.14278 113.572 6.14278H113.715C114.287 6.85706 114.429 6.99992 114.858 7.14278C115.715 7.7142 116.429 8.57135 117.001 9.57135C117.572 10.5713 117.715 11.5713 117.715 13.4285C117.715 14.9999 117.572 16.2856 117.144 17.2856C116.858 18.2856 116.287 19.2856 115.715 19.8571C115.287 20.4285 114.715 20.8571 114.144 21.1428C114.001 21.1428 114.001 21.2856 114.001 21.2856C114.001 21.4285 114.001 21.4285 114.144 21.5713C114.287 21.7142 114.429 21.8571 114.429 21.9999C114.715 22.4285 115.001 22.9999 115.287 23.5713C115.572 24.1428 115.858 24.8571 116.144 25.7142L117.572 30.4285C117.858 31.2856 118.144 32.1428 118.429 32.5713C118.715 32.9999 119.001 33.2856 119.287 33.5713L119.715 33.8571C119.715 33.8571 119.715 33.8571 119.858 33.9999C119.858 33.9999 119.858 34.1428 120.001 34.1428V34.2856C120.001 34.4285 119.715 34.7142 119.572 34.8571L119.429 34.9999C119.429 34.9999 119.429 34.9999 119.429 35.1428C119.429 35.1428 119.429 35.2856 119.572 35.2856C120.144 34.8571 120.287 34.7142 120.429 34.4285C120.429 34.2856 120.429 34.2856 120.429 34.1428C120.429 34.1428 120.429 33.9999 120.287 33.8571Z" fill="white"/>
<path d="M109.001 19C109.001 15.1429 109.001 11.4286 109.001 10.2857H108.858H108.715C108.715 11.4286 108.715 15.1429 108.715 19H109.001Z" fill="white"/>
<path d="M110 35.1429L109.571 33.8571C109.429 33.5714 109.286 33.2857 109.286 33C109.286 32.8571 109.143 32.4286 109.143 31.7143C109.143 31.1429 109 29.8571 109 28.2857C109 28 109 26.5714 109 24C109 26.8571 109 27.8571 109 28.2857C109 29.8571 109 31.1429 109.143 31.7143C109.143 32.5714 109.286 32.8571 109.286 33.1429C109.286 33.4286 109.429 33.7143 109.571 34L110 35.2857C110 35.2857 110 35.2857 110 35.1429C110 35.2857 110 35.2857 110 35.1429Z" fill="white"/>
</svg>
