<svg width="147" height="153" viewBox="0 0 147 153" fill="none" xmlns="http://www.w3.org/2000/svg">
<g clip-path="url(#clip0_267_3964)">
<mask id="mask0_267_3964" style="mask-type:luminance" maskUnits="userSpaceOnUse" x="23" y="0" width="100" height="154">
<path d="M123 0H23V153.333H123V0Z" fill="white"/>
</mask>
<g mask="url(#mask0_267_3964)">
<mask id="mask1_267_3964" style="mask-type:luminance" maskUnits="userSpaceOnUse" x="23" y="0" width="100" height="154">
<path d="M123 0H23V153.333H123V0Z" fill="white"/>
</mask>
<g mask="url(#mask1_267_3964)">
<mask id="mask2_267_3964" style="mask-type:luminance" maskUnits="userSpaceOnUse" x="23" y="0" width="100" height="154">
<path d="M122.762 0.712891H23.7148V153.094H122.762V0.712891Z" fill="white"/>
</mask>
<g mask="url(#mask2_267_3964)">
<path d="M111.334 148.332C112.048 148.094 112.524 147.856 113.001 147.856C111.572 146.427 110.382 144.999 109.191 143.808C109.191 143.808 109.191 143.808 108.953 144.046C109.667 145.237 110.382 146.665 111.334 148.332ZM92.5244 107.856C92.5244 107.618 92.5244 107.618 92.5244 107.38C90.6196 104.999 90.3815 104.999 87.7625 106.665C89.6672 107.38 91.0958 107.618 92.5244 107.856ZM51.8101 123.808C53.9529 124.522 56.3339 125.237 58.9529 124.761C56.572 123.094 54.191 124.046 51.8101 123.808ZM97.2863 26.9034C97.2863 27.1415 97.0482 27.1415 97.0482 27.3796C97.5244 27.8557 98.0006 28.3319 98.4768 28.57C101.096 29.0462 103.953 29.2843 106.572 29.7605V29.5224C103.477 28.57 100.382 27.6177 97.2863 26.9034ZM119.191 77.8558C118.001 80.951 115.858 82.8558 113.477 84.7605C117.762 83.8081 120.382 80.4748 119.191 77.8558ZM119.667 34.2843C116.096 38.3319 112.048 36.4272 107.524 35.4748C110.143 36.9034 112.286 37.8558 114.905 37.6177C116.334 37.6177 117.524 36.9034 118.715 36.4272C119.667 36.1891 120.143 35.4748 119.667 34.2843ZM89.4291 102.38C86.572 103.094 83.9529 103.808 81.0958 104.522C84.191 106.427 87.2863 104.761 90.3815 104.522C89.9053 103.57 89.6672 102.856 89.4291 102.38ZM72.7625 100.713C78.2387 101.665 83.4768 101.189 88.9529 100.475C88.9529 99.9986 88.9529 99.5224 88.9529 99.2843C83.4768 99.7605 78.0006 100.237 72.7625 100.713ZM113.477 141.189C113.715 141.189 113.715 141.189 113.953 141.189L114.191 140.951C117.286 131.903 118.953 122.618 118.001 113.094C117.524 109.761 116.81 106.189 115.143 103.332C114.905 102.856 114.191 102.38 113.953 101.903C116.334 107.38 117.286 112.856 117.524 118.332C118.001 125.713 116.572 132.856 113.953 139.522C113.477 139.999 113.477 140.713 113.477 141.189ZM80.6196 32.1415V31.9034C80.3815 31.9034 80.1434 31.9034 80.1434 31.9034C72.7625 33.3319 65.3815 34.2843 58.0006 33.3319C53.9529 32.8558 50.1434 31.4272 48.0006 27.6177C47.5244 26.6653 46.8101 26.4272 45.6196 26.9034C46.0958 27.6177 46.572 28.57 47.0482 29.0462C48.9529 31.6653 51.8101 33.0938 54.9053 33.8081C60.8577 35.2367 67.0482 34.9986 73.0006 34.0462C75.3815 33.57 78.0006 32.8558 80.6196 32.1415ZM41.572 98.57C44.6672 97.3796 45.6196 97.3796 48.7148 98.8081C49.6672 99.2843 50.8577 99.5224 51.8101 100.237C55.8577 102.618 59.9053 104.999 64.191 107.38C70.8577 111.189 77.5244 114.761 85.1434 116.427C88.2387 117.141 91.3339 117.38 94.4291 116.665C90.8577 116.903 87.2863 116.427 83.7149 115.475C75.3815 112.856 67.7625 108.57 60.6196 104.046C57.0482 101.665 53.4767 99.5224 49.6672 97.3796C47.7625 96.1891 45.8577 95.951 43.7148 96.1891C42.0482 96.1891 41.8101 96.4272 41.572 98.57ZM114.429 129.999C114.429 129.761 114.667 129.522 114.667 129.284C116.81 120.951 116.096 112.618 113.477 104.522C112.524 101.665 110.143 101.189 108.001 100.237C108.001 100.951 107.762 101.189 107.762 101.665C107.762 104.999 107.524 108.094 106.096 110.951C105.858 111.189 106.096 111.665 106.334 111.903H106.572C107.286 109.999 107.762 107.856 108.477 105.713C108.953 108.57 108.715 111.189 108.001 113.808C107.762 114.284 107.762 114.761 107.762 115.237C108.001 115.237 108.001 115.237 108.239 115.237C108.953 113.57 109.667 111.903 110.382 109.999C111.096 113.332 110.382 116.189 109.429 119.046C109.667 119.046 109.667 119.046 109.905 119.046C110.62 117.618 111.334 116.189 112.286 114.284C112.762 117.618 112.048 120.475 111.096 123.094H111.334C112.286 121.665 113.001 120.237 113.953 118.808C114.191 118.808 114.191 118.808 114.429 118.808C114.429 119.999 114.429 121.189 114.191 122.38C113.953 123.57 113.715 124.761 113.239 125.951H113.477C113.953 125.237 114.191 124.761 114.667 124.046H114.905V129.999H114.429ZM94.4291 29.2843L94.191 29.5224C94.6672 29.9986 94.9053 30.4748 95.3815 30.7129C96.572 31.4272 98.0006 32.1415 98.7149 33.3319C97.5244 33.0938 96.3339 33.0938 95.1434 32.8558V33.0938C95.3815 33.3319 95.8577 33.3319 96.0958 33.57C98.7149 34.7605 101.334 35.951 103.953 37.1415C104.191 37.1415 104.429 37.6177 104.667 37.6177V37.8558C101.81 37.3796 99.191 36.9034 96.3339 36.1891L96.0958 36.6653C100.143 37.3796 104.191 38.57 107.524 41.4272C105.62 41.4272 103.953 41.1891 102.286 40.951C100.62 40.7129 98.9529 40.4748 97.2863 40.2367C97.2863 40.4748 97.2863 40.4748 97.2863 40.7129C104.905 41.4272 112.286 43.3319 119.429 46.9034C119.905 43.0938 120.143 39.5224 120.62 35.7129C118.239 37.6177 116.572 38.3319 113.715 38.0938C112.048 37.8558 110.143 37.6177 108.477 36.9034C102.762 34.5224 98.7149 30.2367 95.1434 25.2367C94.9053 24.9986 94.6672 24.7605 94.4291 24.2843C93.4768 26.4272 96.0958 26.9034 96.572 28.57C95.3815 29.5224 94.9053 29.5224 94.4291 29.2843ZM101.81 129.284H107.762C106.81 130.237 106.096 130.951 105.143 131.665C105.858 133.094 107.524 131.903 108.715 132.618C108.239 133.094 108.001 133.57 107.524 134.046C108.477 134.284 109.429 134.284 110.143 134.522C109.905 134.999 109.667 135.237 109.191 135.951C109.905 136.189 110.62 136.427 111.572 136.665C109.667 128.808 108.001 120.951 104.191 114.284C102.524 115.475 101.096 116.665 99.6672 117.38C98.0006 118.094 96.3339 118.57 94.4291 119.046C92.7625 119.522 91.0958 119.761 89.191 120.237V120.475C93.0006 119.999 96.8101 119.761 100.858 119.284C98.0006 121.427 95.1434 122.618 91.8101 123.808C95.8577 124.522 99.6672 123.57 103.477 123.094C103.477 123.094 103.477 123.332 103.715 123.332C101.81 124.522 99.6672 125.475 97.7625 126.665V126.903C100.382 126.665 103.001 126.427 105.62 126.189C105.62 126.189 105.62 126.427 105.858 126.427C104.429 127.38 103.239 128.332 101.81 129.284ZM105.62 96.4272C105.382 96.4272 105.382 96.4272 105.143 96.6653C105.143 97.8558 105.382 99.0462 105.143 100.237C104.905 102.38 104.667 104.522 103.715 106.427C101.81 110.475 98.2387 111.903 93.9529 112.141C89.4291 112.141 85.3815 110.951 81.3339 109.522C73.9529 106.665 67.2863 102.618 60.6196 98.57C57.7625 96.6653 54.4291 95.2367 51.3339 93.8081C49.191 92.8558 47.0482 93.0939 44.9053 93.8081C47.5244 93.8081 49.9053 94.9986 52.2863 96.1891C55.1434 97.8558 58.0006 99.5224 60.8577 101.427C67.0482 105.237 73.4768 108.808 80.3815 111.427C84.9053 113.094 89.6672 114.522 94.9053 114.046C99.191 113.57 102.524 111.665 104.667 107.618C106.096 104.761 106.572 101.427 106.334 98.3319C106.096 97.6177 105.858 96.9034 105.62 96.4272ZM96.3339 97.1415C96.0958 97.6177 95.8577 97.8558 95.6196 98.0939C94.4291 98.8081 93.2387 99.5224 92.0482 100.237C91.8101 100.475 91.572 100.713 91.572 100.951C91.8101 101.189 92.0482 101.427 92.2863 101.427C92.5244 101.427 93.0006 101.189 93.4768 101.189C95.1434 100.713 96.572 100.237 98.2387 99.7605C97.0482 102.141 95.3815 103.57 93.2387 104.284C93.7149 105.475 94.4291 105.713 95.6196 105.237C97.0482 104.522 98.2387 104.046 99.6672 103.57C99.4291 105.713 98.2387 106.903 96.572 108.094C97.2863 108.094 97.5244 108.332 97.7625 108.332C99.191 107.38 100.62 106.665 101.81 105.475C103.239 104.046 103.001 101.903 101.572 100.237C101.096 99.7605 100.62 99.0462 100.382 98.3319C99.6672 96.9034 98.7149 95.951 96.8101 95.7129C104.667 90.4748 108.715 82.8558 110.143 73.8081C108.477 73.57 107.048 73.3319 105.382 72.8558C106.572 73.57 107.524 74.2843 108.477 74.7605C108.477 74.7605 108.477 74.9986 108.239 74.9986H102.762C104.191 75.7129 105.382 76.4272 106.81 77.1415C106.81 77.3796 106.81 77.3796 106.572 77.6177H101.096C102.762 78.57 104.667 78.8081 106.096 80.4748H99.9053C101.572 81.1891 103.239 81.6653 104.905 83.0939H98.7149C100.143 83.8081 101.572 84.5224 103.001 85.2367C103.001 85.4748 103.001 85.4748 102.762 85.7129H96.572C98.2387 86.4272 99.6672 87.1415 101.096 87.8558L100.858 88.3319C99.6672 88.3319 98.2387 88.3319 97.0482 88.3319C96.8101 88.3319 96.572 88.57 96.3339 88.57C96.572 88.8081 96.572 89.0462 96.8101 89.2843C97.5244 89.7605 98.4768 90.2367 99.191 90.7129C99.191 90.951 99.191 90.951 98.9529 91.1891C98.2387 91.1891 97.5244 91.1891 97.0482 90.951C95.8577 90.7129 95.1434 91.1891 95.1434 92.3796C95.8577 92.6177 96.3339 92.8558 97.0482 93.3319C96.3339 93.8081 95.3815 93.8081 94.6672 93.8081C94.4291 93.8081 93.9529 94.0462 93.7149 94.0462C93.0006 94.9986 92.5244 95.951 91.8101 96.6653C93.4768 97.3796 94.6672 97.1415 96.3339 97.1415ZM57.5244 106.665C55.1434 104.999 52.7625 103.57 50.3815 102.38C48.7148 101.665 47.0482 100.951 45.3815 100.237C44.9053 99.9986 44.191 100.237 43.7148 100.475C41.3339 101.665 38.9529 103.094 36.3339 104.284C33.9529 105.475 33.9529 105.951 34.9053 108.332C35.1434 108.808 35.3815 109.284 35.8577 109.761C37.5244 112.141 39.9053 113.808 42.5244 114.999C42.7625 114.999 43.0006 115.237 43.2387 115.237C43.2387 115.237 43.2387 115.237 43.2387 114.999C42.2863 114.284 41.0958 113.57 40.1434 112.856C40.1434 112.618 40.3815 112.618 40.3815 112.38C43.9529 113.332 47.2863 114.522 50.8577 115.475C48.0006 113.808 44.9053 111.903 42.0482 110.237C47.2863 110.713 51.8101 112.618 56.572 114.522C54.6672 113.332 52.5244 111.903 50.6196 110.713C48.7148 109.522 46.572 108.332 44.6672 107.141C50.6196 107.618 56.0958 109.999 61.572 112.38C56.8101 109.522 52.0482 106.665 47.2863 103.808C47.2863 103.57 47.2863 103.57 47.5244 103.332C50.8577 104.761 54.191 105.713 57.5244 106.665ZM121.096 78.57C121.572 75.4748 120.62 73.3319 117.762 72.1415C116.81 71.9034 116.096 71.4272 115.143 70.951C105.382 67.8558 95.6196 66.6653 85.3815 69.5224C73.2387 72.8558 62.0482 77.8558 50.8577 83.57C47.2863 85.2367 43.7148 86.9034 40.3815 88.57C39.9053 88.8081 39.191 88.8081 38.4767 89.0462C41.0958 89.2843 43.7148 89.0462 46.0958 88.0938C53.9529 84.5224 61.8101 81.1891 69.4291 77.8558C72.2863 76.6653 75.3815 75.7129 78.4768 74.5224C83.2387 72.8558 88.0006 71.1891 93.0006 70.951C99.191 70.4748 105.143 71.4272 111.096 72.8558C115.143 73.57 118.715 74.7605 121.096 78.57ZM114.429 144.761C111.096 139.046 106.81 134.522 101.572 131.189C88.0006 122.856 73.0006 119.046 57.2863 118.808C54.4291 118.808 51.572 118.808 48.7148 118.808C45.1434 118.57 42.0482 117.618 39.191 115.713C35.3815 113.094 32.5244 109.999 32.2863 104.999C32.2863 104.761 32.2863 104.522 32.0482 104.284C31.572 104.522 31.3339 104.761 31.0958 104.761C28.9529 105.951 28.9529 106.665 29.6672 108.808C31.3339 112.856 34.191 115.951 37.7625 118.094C42.0482 120.713 46.8101 121.427 51.572 121.189C54.6672 121.189 58.0006 120.951 61.0958 121.189C72.0482 122.141 82.5244 124.761 92.5244 129.284C101.334 133.332 108.715 138.808 113.953 146.903C113.953 146.903 114.191 146.903 114.429 146.903C120.382 135.475 121.81 123.57 118.715 111.189C119.429 116.665 119.429 122.38 118.477 127.856C117.762 133.808 116.334 139.284 114.429 144.761ZM91.3339 77.1415C91.3339 77.3796 91.3339 77.6177 91.3339 77.6177C85.1434 78.57 79.191 79.7605 73.0006 80.7129C78.9529 80.951 84.6672 81.1891 90.6196 81.1891V81.4272C83.7149 83.3319 76.572 83.3319 69.6672 84.5224C76.572 84.7605 83.2387 84.9986 90.1434 85.4748C83.0006 87.8558 75.6196 87.8558 68.2387 88.0938C75.1434 89.2843 82.0482 89.2843 89.191 89.0462C83.7148 91.4272 78.0006 91.6653 72.0482 91.6653C77.5244 92.8558 83.2387 92.8558 88.7149 92.8558C88.4768 93.0939 88.0006 93.3319 87.7625 93.3319C83.4768 94.7605 78.9529 95.2367 74.191 94.7605C68.7149 94.2843 64.4291 91.6653 61.572 86.9034C61.3339 86.4272 60.8577 85.951 60.6196 85.4748C61.8101 88.8081 63.2387 91.9034 66.0958 94.0462C71.8101 98.3319 78.2387 99.2843 85.1434 97.3796C90.3815 96.1891 93.4768 92.8558 94.4291 87.3796C94.9053 84.5224 94.9053 81.4272 95.1434 78.3319C95.1434 76.1891 95.1434 74.0462 95.1434 71.6653C93.4768 71.9034 91.8101 72.1415 90.3815 72.3796C90.3815 72.6177 90.3815 72.6177 90.3815 72.8558C91.0958 72.8558 91.8101 73.0939 92.7625 73.0939C92.7625 73.0939 92.7625 73.0938 92.7625 73.3319C87.5244 74.2843 82.2863 75.2367 77.0482 76.4272C77.0482 76.4272 77.0482 76.4272 77.0482 76.6653C81.572 76.9034 86.3339 77.1415 91.3339 77.1415ZM93.0006 24.5224C88.9529 29.5224 85.3815 32.1415 79.191 34.0462C73.7149 35.7129 68.2387 36.4272 62.7625 36.4272C59.191 36.4272 55.6196 35.951 52.2863 34.5224C48.7148 33.0938 46.0958 30.951 44.6672 27.1415C44.6672 27.1415 44.4291 27.1415 44.4291 26.9034C43.9529 27.6177 43.4767 28.3319 43.2387 29.0462C42.7625 30.951 42.0482 32.8558 42.0482 34.7605C42.2863 41.4272 42.7625 47.8558 43.2387 54.5224C45.1434 53.8081 46.572 53.0938 48.2387 52.6177C50.6196 51.9034 53.0006 51.4272 55.3815 50.951C56.0958 50.7129 56.572 50.4748 56.572 49.5224C56.572 48.8081 56.572 48.0938 56.572 47.1415C69.4291 44.2843 82.0482 41.6653 95.1434 41.9034C94.191 35.951 93.7149 30.2367 93.0006 24.5224ZM95.6196 47.8558C95.1434 47.8558 94.4291 47.8558 93.9529 47.8558C88.2387 48.0938 82.5244 48.0938 77.0482 48.57C72.0482 49.0462 66.8101 49.7605 61.8101 50.4748C60.3815 50.7129 59.4291 51.1891 59.6672 52.8558C59.6672 52.8558 59.6672 53.0938 59.4291 53.0938C58.2387 53.3319 56.8101 53.3319 55.6196 53.57C51.8101 54.0462 48.2387 54.9986 45.1434 57.1415C44.4291 57.6177 43.9529 58.3319 43.9529 59.2843C43.7148 63.8081 43.4767 68.3319 43.0006 72.8558C42.5244 77.8558 40.3815 81.9034 35.3815 84.2843C32.7625 85.4748 30.1434 86.9034 27.0482 86.9034C29.6672 87.8558 32.2863 88.57 34.9053 88.3319C40.1434 87.6177 44.6672 85.4748 49.191 83.3319C56.572 79.7605 63.9529 75.951 71.572 72.6177C80.8577 68.57 90.6196 66.1891 100.858 66.9034C106.572 67.3796 112.524 67.6177 117.762 70.4748C117.762 67.8558 117.762 65.2367 117.762 62.6177C117.762 59.9986 118.001 57.1415 118.239 54.5224C118.477 52.8558 117.762 52.1415 116.572 51.4272C115.858 51.1891 115.143 50.7129 114.191 50.4748C111.334 49.7605 108.477 49.2843 105.382 48.8081C102.762 48.3319 100.382 48.3319 97.7625 48.0938C99.6672 48.8081 101.572 49.0462 103.477 49.5224C105.382 49.9986 107.286 50.4748 108.953 51.9034H100.143C103.239 53.0938 106.334 53.3319 109.191 55.7129H99.9053C102.762 56.4272 105.62 57.1415 108.001 58.8081C108.001 59.0462 108.001 59.0462 108.001 59.2843H98.7149C98.7149 59.2843 98.7149 59.2843 98.7149 59.5224C101.572 60.4748 104.191 61.4272 107.048 62.3796C107.048 62.6177 107.048 62.8558 107.048 63.0938C104.667 63.3319 102.524 63.3319 100.143 63.57C102.524 64.5224 104.905 64.9986 106.81 66.9034C103.953 66.4272 101.572 66.1891 99.191 65.951C97.7625 65.7129 96.8101 64.9986 96.3339 63.57C95.1434 59.0462 95.3815 54.2843 95.6196 49.5224C95.6196 49.0462 95.6196 48.57 95.6196 47.8558ZM51.3339 20.4748C54.6672 18.8081 58.2387 17.6177 62.0482 17.6177C57.2863 19.9986 52.7625 22.6177 48.7148 26.1891C53.4768 23.8081 58.4768 22.6177 63.7149 22.6177C63.7149 22.6177 63.7149 22.8558 63.9529 22.8558C59.6672 24.9986 55.3815 26.9034 51.0958 29.0462C51.0958 29.2843 51.3339 29.2843 51.3339 29.5224C53.2387 29.0462 54.9053 28.57 56.8101 28.0938C58.7148 27.6177 60.3815 27.3796 62.2863 27.1415C64.191 26.9034 65.8577 26.9034 67.7625 26.6653C67.7625 26.9034 67.7625 26.9034 67.7625 27.1415C64.191 28.57 60.6196 29.9986 56.8101 31.4272V31.6653C57.5244 31.6653 58.2387 31.6653 58.9529 31.6653C63.0006 31.1891 67.2863 30.951 71.3339 30.4748C71.572 30.4748 71.8101 30.4748 72.2863 30.4748V30.7129C71.3339 30.951 70.3815 31.4272 69.4291 31.6653V31.9034C72.5244 31.4272 75.3815 30.951 78.4768 30.7129V30.4748C77.7625 30.4748 76.8101 30.4748 76.0958 30.2367V29.9986C79.191 29.5224 82.2863 28.8081 85.1434 28.3319C87.0482 28.0938 88.4768 27.1415 90.1434 25.4748C87.5244 25.2367 85.1434 24.9986 82.7625 24.7605C84.6672 24.0462 86.3339 23.57 88.2387 23.3319C89.9053 23.0938 91.572 22.8557 93.0006 22.6177C96.572 23.0938 100.143 23.8081 103.715 24.2843C98.4768 22.1415 92.7625 20.951 87.0482 19.5224C92.5244 18.57 97.7625 18.8081 103.001 20.2367C103.001 19.9986 103.001 19.9986 103.001 19.7605C98.0006 18.0938 93.2387 16.1891 88.0006 14.5224C92.0482 13.8081 95.8577 14.2843 99.6672 14.7605C95.3815 13.0938 91.3339 11.4272 87.0482 9.99861C87.0482 9.76051 87.0482 9.76051 87.0482 9.52242C89.9053 9.76051 92.5244 9.76051 95.3815 9.99861V9.76051C90.8577 8.09384 86.0958 6.42718 81.572 4.76051C82.0482 4.76051 82.2863 4.52241 82.7625 4.52241C89.4291 4.04622 95.6196 5.4748 101.334 8.57003C102.524 9.28432 103.477 10.4748 104.191 11.6653C104.429 11.9034 104.191 12.3796 104.191 12.8557C106.334 14.2843 108.239 15.2367 108.953 17.8557C108.477 17.8557 108.001 17.8557 107.286 18.0938C109.429 19.2843 111.096 20.4748 111.81 22.8558H109.191C111.572 24.0462 113.239 25.4748 114.191 27.8557C113.001 27.8557 112.286 27.6177 111.096 27.6177C112.762 28.8081 114.191 29.9986 114.905 31.9034C113.715 31.6653 112.762 31.6653 112.048 31.4272C113.239 32.3796 114.667 33.57 116.096 34.7605C116.334 34.9986 116.81 35.2367 117.286 35.4748C117.524 34.9986 117.762 34.5224 117.762 34.0462C117.524 30.7129 116.572 27.3796 115.143 24.2843C110.858 14.7605 104.429 7.14146 93.9529 4.04622C82.0482 0.2367 70.6196 1.18908 59.6672 6.90337C52.5244 10.7129 47.5244 16.4272 45.3815 24.2843C45.3815 24.5224 45.1434 24.9986 45.1434 25.4748C46.3339 25.4748 46.8101 25.4748 47.2863 24.2843C47.7625 23.3319 48.7148 22.6177 49.4291 21.6653C50.1434 21.4272 50.6196 20.951 51.3339 20.4748ZM75.8577 0.712891C79.4291 0.712891 82.7625 0.712891 86.3339 0.712891C86.8101 0.950986 87.2863 1.18908 88.0006 1.18908C93.2387 1.90337 98.2387 3.33194 102.762 6.42718C111.81 12.6177 117.524 21.1891 120.143 31.9034C120.143 32.3796 120.382 32.8558 120.62 33.3319C121.572 34.2843 121.572 35.2367 121.572 36.1891C120.62 42.3796 120.858 48.57 119.905 54.7605C118.953 59.5224 119.667 64.7605 119.667 69.7605C119.667 70.4748 120.382 71.1891 120.62 72.1415C120.858 72.8558 121.572 73.3319 121.81 74.0462C123.001 80.2367 123.001 82.1415 118.001 85.2367C117.524 85.4748 117.286 85.7129 116.81 85.951C113.715 87.3796 110.62 88.57 107.524 89.9986C107.048 90.2367 106.81 90.2367 106.572 90.4748C105.382 91.9034 104.191 93.57 103.239 94.9986C105.382 94.9986 105.382 94.9986 107.524 96.6653C109.667 98.3319 111.572 99.9986 114.191 100.951C115.62 101.427 116.81 102.38 117.524 103.808C119.429 107.618 120.858 111.427 121.81 115.713C122.286 117.856 122.524 119.999 122.762 122.141V129.522C122.762 129.761 122.524 130.237 122.524 130.475C122.048 136.189 119.905 141.427 117.286 146.665C116.096 149.046 114.667 150.237 112.048 150.475C111.334 150.475 110.858 150.475 110.62 149.761C108.239 145.475 104.905 142.141 101.096 139.284C88.7149 130.713 74.6672 127.141 59.6672 127.38C56.0958 127.38 52.7625 127.141 49.6672 125.951C45.1434 124.046 40.8577 121.903 36.572 119.522C32.2863 117.141 29.4291 113.094 28.0006 108.094C27.7625 107.38 27.7625 106.665 28.0006 105.951C28.7148 103.808 32.0482 102.141 34.191 102.38C34.6672 102.38 35.3815 102.38 35.8577 102.141C37.2863 101.665 38.4767 100.951 39.6672 100.237C39.191 99.9986 39.6672 99.5224 39.6672 99.2843C39.9053 97.6177 40.1434 95.7129 40.3815 94.0462C40.1434 94.0462 39.6672 93.8081 39.191 93.8081C33.9529 92.1415 28.4767 90.7129 24.191 86.9034C24.191 86.9034 23.9529 86.9034 23.7148 86.6653V86.4272C27.5244 84.9986 31.3339 83.57 34.9053 81.6653C38.0006 80.2367 39.9053 77.6177 40.1434 74.0462C40.6196 69.5224 40.8577 65.2367 41.0958 60.7129C41.0958 60.4748 41.0958 60.2367 40.8577 59.7605C40.1434 58.0938 40.1434 56.1891 40.1434 54.2843C40.1434 48.57 39.9053 42.8558 40.1434 37.3796C40.1434 33.3319 40.6196 29.0462 43.0006 25.4748C43.4767 24.9986 43.4767 24.0462 43.7148 23.57C45.1434 18.57 47.5244 14.0462 51.572 10.7129C57.2863 5.95099 63.9529 3.09384 71.0958 1.66527C72.7625 1.42718 74.191 0.950986 75.8577 0.712891Z" fill="#004268"/>
</g>
</g>
<mask id="mask3_267_3964" style="mask-type:luminance" maskUnits="userSpaceOnUse" x="23" y="0" width="100" height="154">
<path d="M123 0H23V153.333H123V0Z" fill="white"/>
</mask>
<g mask="url(#mask3_267_3964)">
<path d="M51.3323 20.4758C50.618 20.7138 49.6656 20.7138 48.9513 20.9519C48.7132 19.5234 49.1894 18.571 50.1418 17.8567C51.0942 17.1424 52.0465 16.6662 52.7608 16.19C52.9989 16.19 53.237 16.19 53.237 16.19C54.9037 15.7138 56.5703 15.2377 58.4751 15.7138C56.3323 17.1424 54.1894 18.571 52.2846 19.7615C51.8084 19.9996 51.5703 20.2377 51.3323 20.4758Z" fill="#004268"/>
</g>
<mask id="mask4_267_3964" style="mask-type:luminance" maskUnits="userSpaceOnUse" x="23" y="0" width="100" height="154">
<path d="M123 0H23V153.333H123V0Z" fill="white"/>
</mask>
<g mask="url(#mask4_267_3964)">
<mask id="mask5_267_3964" style="mask-type:luminance" maskUnits="userSpaceOnUse" x="23" y="0" width="100" height="154">
<path d="M122.762 0.712891H23.7148V153.094H122.762V0.712891Z" fill="white"/>
</mask>
<g mask="url(#mask5_267_3964)">
<path d="M90.3823 152.617C90.1442 152.855 89.9061 152.855 89.9061 153.093C89.9061 153.093 89.9061 153.093 89.668 152.855C89.9061 152.855 89.9061 152.617 90.3823 152.617Z" fill="#004268"/>
</g>
</g>
<mask id="mask6_267_3964" style="mask-type:luminance" maskUnits="userSpaceOnUse" x="23" y="0" width="100" height="154">
<path d="M123 0H23V153.333H123V0Z" fill="white"/>
</mask>
<g mask="url(#mask6_267_3964)">
<path d="M111.097 59.7619C111.811 59.7619 112.525 59.5238 113.478 59.5238C112.525 59.0476 111.811 58.5714 111.097 58.0952V57.8571C111.811 57.8571 112.763 57.619 113.716 57.619C112.763 57.1428 112.049 56.6666 111.097 55.9524V55.7143H114.192C113.001 55 112.287 54.5238 111.335 54.0476V53.8095H114.43C113.24 53.0952 112.525 52.619 111.335 51.9047C113.478 51.6666 115.144 51.6666 116.811 52.619C117.763 53.3333 117.763 53.8095 116.811 54.5238C117.287 55.2381 117.763 55.9524 116.573 56.4285C117.049 57.1428 117.525 57.8571 116.335 58.3333C116.573 59.0476 117.525 59.7619 116.335 60.2381C116.811 61.6666 117.049 62.8571 116.573 64.2857C116.811 65 117.525 65.4762 116.573 65.9524C116.573 67.1428 116.811 68.0952 116.811 69.2857C115.144 68.8095 113.478 68.3333 111.573 67.619C112.287 67.3809 112.763 67.1428 113.478 67.1428C112.763 66.9047 112.049 66.6666 111.573 66.1905V65.9524C112.287 65.9524 113.24 65.7143 114.192 65.4762C113.24 65 112.525 64.5238 111.811 64.0476V63.8095C112.525 63.5714 113.24 63.5714 114.192 63.3333C113.24 62.8571 112.525 62.3809 111.335 61.9047C112.287 61.6666 113.001 61.6666 113.716 61.4285C112.763 60.9524 112.049 60.4762 111.335 60C111.097 60 111.097 60 111.097 59.7619Z" fill="#004268"/>
</g>
<mask id="mask7_267_3964" style="mask-type:luminance" maskUnits="userSpaceOnUse" x="23" y="0" width="100" height="154">
<path d="M123 0H23V153.333H123V0Z" fill="white"/>
</mask>
<g mask="url(#mask7_267_3964)">
<path d="M46.8096 59.5235C47.762 57.3806 49.4286 56.1901 51.5715 55.7139C55.6191 54.7616 59.9048 54.0473 64.1905 53.333C66.3334 53.0949 68.4762 53.333 70.8572 53.5711C69.4286 54.0473 68 54.5235 66.5715 54.9997C61.8096 56.4282 57.2858 58.0949 52.5239 59.2854C50.8572 59.7616 48.9524 59.7616 47.2858 59.9997C46.8096 59.9997 46.8096 59.7616 46.8096 59.5235Z" fill="#004268"/>
</g>
<mask id="mask8_267_3964" style="mask-type:luminance" maskUnits="userSpaceOnUse" x="23" y="0" width="100" height="154">
<path d="M123 0H23V153.333H123V0Z" fill="white"/>
</mask>
<g mask="url(#mask8_267_3964)">
<path d="M46.333 65.2378C47.5235 63.3331 49.1902 61.9045 51.0949 61.4283C55.6187 60.2378 59.9044 58.8092 64.4282 57.8569C66.5711 57.3807 68.714 57.3807 70.8568 57.1426C70.8568 57.3807 70.8568 57.3807 70.8568 57.6188C69.1902 58.3331 67.5235 59.0473 65.8568 59.5235C61.333 61.1902 56.8092 62.8569 52.0473 64.7616C49.9044 65.4759 47.9997 65.714 46.333 65.2378Z" fill="#004268"/>
</g>
<mask id="mask9_267_3964" style="mask-type:luminance" maskUnits="userSpaceOnUse" x="23" y="0" width="100" height="154">
<path d="M123 0H23V153.333H123V0Z" fill="white"/>
</mask>
<g mask="url(#mask9_267_3964)">
<path d="M45.8574 70.7135C47.286 69.523 48.7146 68.3325 50.3812 67.3801C56.8098 64.2849 63.7146 61.9039 70.8574 61.4277C71.0955 61.4277 71.3336 61.4277 71.8098 61.4277C71.5717 61.6658 71.3336 61.6658 71.3336 61.9039C64.905 64.7611 58.4765 67.3801 52.0479 70.2373C50.1431 70.9515 48.2384 71.6658 46.0955 71.1896C45.8574 70.9515 45.8574 70.7135 45.8574 70.7135Z" fill="#004268"/>
</g>
<mask id="mask10_267_3964" style="mask-type:luminance" maskUnits="userSpaceOnUse" x="23" y="0" width="100" height="154">
<path d="M123 0H23V153.333H123V0Z" fill="white"/>
</mask>
<g mask="url(#mask10_267_3964)">
<path d="M67.7625 67.3809C65.6196 68.5713 63.7149 69.5237 61.572 70.7142C57.2863 72.8571 53.0006 74.9999 48.7149 77.1428C46.8101 78.0951 44.9054 78.8094 42.5244 77.8571C49.9054 71.6666 58.4768 69.2856 67.7625 67.3809Z" fill="#004268"/>
</g>
<mask id="mask11_267_3964" style="mask-type:luminance" maskUnits="userSpaceOnUse" x="23" y="0" width="100" height="154">
<path d="M123 0H23V153.333H123V0Z" fill="white"/>
</mask>
<g mask="url(#mask11_267_3964)">
<path d="M39.667 84.2855C47.0479 79.0474 54.9051 74.9998 63.4765 72.3808C63.7146 72.6189 63.7146 72.6189 63.9527 72.857C63.7146 72.857 63.4765 73.0951 63.2384 73.0951C58.0003 76.1903 52.7622 79.5236 47.286 82.6189C45.8575 83.3332 44.4289 84.0474 42.7622 84.5236C41.8098 84.7617 40.6194 84.7617 39.667 84.7617C39.9051 84.5236 39.667 84.5236 39.667 84.2855Z" fill="#004268"/>
</g>
<mask id="mask12_267_3964" style="mask-type:luminance" maskUnits="userSpaceOnUse" x="23" y="0" width="100" height="154">
<path d="M123 0H23V153.333H123V0Z" fill="white"/>
</mask>
<g mask="url(#mask12_267_3964)">
<path d="M53.2378 15.9524C52.9997 15.9524 52.7616 15.9524 52.7616 15.9524C52.2854 15.7143 51.333 15.7143 51.333 15.4762C51.333 14.7619 51.333 14.0476 51.8092 13.3333C53.2378 11.4286 57.2854 10 59.9044 10C57.9997 11.6667 56.0949 13.3333 54.1902 15C53.714 15.4762 53.4759 15.7143 53.2378 15.9524Z" fill="#004268"/>
</g>
<mask id="mask13_267_3964" style="mask-type:luminance" maskUnits="userSpaceOnUse" x="23" y="0" width="100" height="154">
<path d="M123 0H23V153.333H123V0Z" fill="white"/>
</mask>
<g mask="url(#mask13_267_3964)">
<path d="M55.1429 46.9048C52.7619 49.0477 50.381 50.2382 47.7619 51.1905C47.0477 51.4286 45.6191 50.9524 45.381 50.4763C44.6667 49.5239 45.381 48.5715 46.3334 48.0953C48.9524 46.4286 51.8096 46.4286 55.1429 46.9048Z" fill="#004268"/>
</g>
<mask id="mask14_267_3964" style="mask-type:luminance" maskUnits="userSpaceOnUse" x="23" y="0" width="100" height="154">
<path d="M123 0H23V153.333H123V0Z" fill="white"/>
</mask>
<g mask="url(#mask14_267_3964)">
<path d="M53.2382 42.8586C51.3335 44.7633 49.4287 45.7157 47.2858 46.6681C46.5715 46.9062 45.6192 46.9062 44.9049 46.6681C43.9525 46.43 43.4763 45.4776 44.1906 44.7633C44.6668 44.049 45.3811 43.5729 45.8573 43.3348C48.2382 42.1443 50.6192 42.1443 53.2382 42.8586Z" fill="#004268"/>
</g>
<mask id="mask15_267_3964" style="mask-type:luminance" maskUnits="userSpaceOnUse" x="23" y="0" width="100" height="154">
<path d="M123 0H23V153.333H123V0Z" fill="white"/>
</mask>
<g mask="url(#mask15_267_3964)">
<path d="M51.3339 38.3327C49.6672 39.9993 47.7625 41.1898 45.6196 41.9041C45.1434 42.1422 44.191 41.4279 43.7148 41.4279C43.9529 40.4755 43.9529 39.5231 44.4291 39.285C46.3339 37.8565 48.7148 37.8565 51.3339 38.3327Z" fill="#004268"/>
</g>
<mask id="mask16_267_3964" style="mask-type:luminance" maskUnits="userSpaceOnUse" x="23" y="0" width="100" height="154">
<path d="M123 0H23V153.333H123V0Z" fill="white"/>
</mask>
<g mask="url(#mask16_267_3964)">
<path d="M49.6666 35.2369C48.238 35.9512 47.0475 36.6655 45.6189 37.3798C45.1428 37.6179 43.9523 37.3798 43.9523 37.1417C43.7142 36.4274 44.1904 35.7131 45.1428 35.475C46.5713 34.7608 47.9999 34.5227 49.6666 35.2369Z" fill="#004268"/>
</g>
<mask id="mask17_267_3964" style="mask-type:luminance" maskUnits="userSpaceOnUse" x="23" y="0" width="100" height="154">
<path d="M123 0H23V153.333H123V0Z" fill="white"/>
</mask>
<g mask="url(#mask17_267_3964)">
<path d="M47.2855 33.0951C46.5712 33.5713 45.8569 34.0474 45.1426 34.2855C44.9045 34.5236 44.4283 34.0474 43.9521 34.0474C44.1902 33.5713 44.1902 32.857 44.4283 32.857C45.3807 32.6189 46.3331 32.6189 47.2855 32.3808C47.0474 32.6189 47.0474 32.857 47.2855 33.0951Z" fill="#004268"/>
</g>
<mask id="mask18_267_3964" style="mask-type:luminance" maskUnits="userSpaceOnUse" x="23" y="0" width="100" height="154">
<path d="M123 0H23V153.333H123V0Z" fill="white"/>
</mask>
<g mask="url(#mask18_267_3964)">
<path d="M45.6196 30.4762C45.3815 30.9524 45.1434 31.1905 44.6672 31.9048C44.191 31.1905 43.9529 30.7143 43.7148 30.4762C44.191 30.2381 44.9053 30.2381 45.3815 30C45.3815 30 45.3815 30.2381 45.6196 30.4762Z" fill="#004268"/>
</g>
<mask id="mask19_267_3964" style="mask-type:luminance" maskUnits="userSpaceOnUse" x="23" y="0" width="100" height="154">
<path d="M123 0H23V153.333H123V0Z" fill="white"/>
</mask>
<g mask="url(#mask19_267_3964)">
<path d="M112.764 43.5722C113.716 43.5722 114.668 43.8103 115.859 43.8103C115.145 43.3341 114.668 42.8579 114.192 42.6198V42.3817C115.145 42.3817 115.859 42.3817 116.811 42.6198C116.335 42.1436 115.859 41.9055 115.383 41.4293C115.383 41.1912 115.383 41.1912 115.383 40.9531C116.335 41.1912 117.287 41.1912 118.24 41.4293C118.954 41.6674 118.954 42.3817 118.24 42.8579C118.478 43.3341 119.43 44.0484 118.24 44.5246C118.478 45.0007 118.716 45.4769 118.716 45.715C117.287 46.6674 114.43 45.4769 112.764 43.5722Z" fill="#004268"/>
</g>
<mask id="mask20_267_3964" style="mask-type:luminance" maskUnits="userSpaceOnUse" x="23" y="0" width="100" height="154">
<path d="M123 0H23V153.333H123V0Z" fill="white"/>
</mask>
<g mask="url(#mask20_267_3964)">
<path d="M116.572 39.7627C117.048 39.7627 117.525 39.7627 118.239 40.0008C118.477 40.0008 118.715 40.477 118.953 40.7151C118.715 40.9532 118.239 41.1913 118.001 40.9532C117.525 40.7151 117.048 40.2389 116.572 40.0008C116.572 40.0008 116.572 40.0008 116.572 39.7627Z" fill="#004268"/>
</g>
</g>
</g>
<defs>
<clipPath id="clip0_267_3964">
<rect width="147" height="153" fill="white"/>
</clipPath>
</defs>
</svg>
