<svg width="257" height="257" viewBox="0 0 257 257" fill="none" xmlns="http://www.w3.org/2000/svg">
<path d="M129.21 126.37C129.21 158.673 116.431 178.551 91.9381 178.551C68.155 178.551 55.7309 157.608 55.376 127.08C55.376 95.8424 68.8649 74.899 93.0031 74.899C117.851 75.254 129.21 96.9073 129.21 126.37ZM74.8995 127.435C74.8995 151.573 81.6439 164.352 92.2931 164.352C103.652 164.352 109.687 150.863 109.687 126.725C109.687 103.652 104.007 89.8079 92.2931 89.8079C81.9989 89.8079 74.8995 102.232 74.8995 127.435Z" fill="white" fill-opacity="0.35"/>
<path d="M157.963 139.149C157.963 150.153 151.218 155.833 143.764 155.833C136.309 155.833 129.92 150.153 129.92 139.859C129.92 129.92 135.954 123.175 144.119 123.175C152.993 123.175 157.963 129.565 157.963 139.149ZM137.729 139.504C137.729 145.539 139.859 150.153 144.119 150.153C148.378 150.153 150.153 145.894 150.153 139.504C150.153 133.469 148.378 128.855 144.119 128.855C139.859 128.855 137.729 133.824 137.729 139.504ZM144.119 178.196L175.711 123.53H181.391L149.798 178.196H144.119ZM195.235 161.157C195.235 172.161 188.49 177.841 181.036 177.841C173.582 177.841 167.192 172.161 167.192 161.867C167.192 151.928 173.227 145.184 181.391 145.184C190.265 145.184 195.235 151.573 195.235 161.157ZM175.356 161.512C175.356 167.547 177.486 172.161 181.746 172.161C186.006 172.161 187.78 167.902 187.78 161.512C187.78 155.478 186.006 150.863 181.746 150.863C177.486 150.863 175.356 155.833 175.356 161.512Z" fill="white" fill-opacity="0.35"/>
<path d="M137.019 104.007L134.535 111.461H131.34L139.504 87.678H143.409L151.573 111.461H148.379L145.539 104.007H137.019ZM144.829 101.522L142.344 94.7774C141.634 93.3575 141.279 91.9376 140.924 90.5178C140.569 91.9376 140.214 93.3575 139.859 94.7774L137.374 101.522H144.829Z" fill="white" fill-opacity="0.35"/>
<path d="M168.612 94.4226V111.461H165.417V96.9074H159.738V101.167C159.738 105.782 159.383 108.976 156.898 110.396C156.188 111.106 155.123 111.461 153.348 111.461L152.993 108.976C153.703 108.976 154.413 108.621 154.768 108.267C156.543 107.202 156.543 104.717 156.543 100.812V94.0676H168.612V94.4226Z" fill="white" fill-opacity="0.35"/>
<path d="M177.131 94.4225V101.877H177.841L184.231 94.4225H188.135L180.681 102.232C183.521 102.587 185.296 104.362 186.361 107.556C186.716 108.621 187.425 110.396 188.135 111.816H184.941C184.586 111.106 183.876 109.686 183.166 108.266C182.101 105.427 180.326 104.362 177.486 104.362H176.776V111.816H173.937V94.7775H177.131V94.4225Z" fill="white" fill-opacity="0.35"/>
<path d="M190.266 109.686C190.266 108.266 191.331 107.556 192.395 107.556C193.815 107.556 194.525 108.621 194.525 109.686C194.525 111.106 193.815 111.816 192.395 111.816C191.331 111.816 190.266 110.751 190.266 109.686Z" fill="white" fill-opacity="0.35"/>
<path d="M128.5 45.4364C174.291 45.4364 211.563 82.7085 211.563 128.5C211.563 174.291 174.291 211.563 128.5 211.563C82.7085 211.563 45.4364 174.291 45.4364 128.5C45.4364 82.7085 82.7085 45.4364 128.5 45.4364ZM128.5 40.4668C79.8687 40.4668 40.4668 79.8687 40.4668 128.5C40.4668 177.131 79.8687 216.533 128.5 216.533C177.131 216.533 216.533 177.131 216.533 128.5C216.533 79.8687 177.131 40.4668 128.5 40.4668Z" fill="white" fill-opacity="0.35"/>
<path d="M64.6043 203.754C63.5394 203.044 62.8294 202.334 62.1195 201.979L56.085 209.079C56.4399 209.789 57.1499 210.144 57.8598 210.854C60.6996 213.338 63.8944 213.338 66.0242 210.854C67.799 208.724 67.0891 205.884 64.6043 203.754Z" fill="white" fill-opacity="0.35"/>
<path d="M83.4192 215.824C78.8046 213.339 74.1899 216.533 72.0601 221.148C69.5753 225.763 70.2852 231.087 74.5449 233.217C79.1596 235.347 83.4192 232.862 85.904 227.893C88.0339 223.988 88.0339 218.308 83.4192 215.824Z" fill="white" fill-opacity="0.35"/>
<path d="M102.586 223.633L101.521 227.892C100.456 231.442 99.3915 234.637 97.9716 237.122C97.2617 238.542 95.8418 239.962 95.1318 241.026L105.781 243.511L110.041 225.053L102.586 223.633Z" fill="white" fill-opacity="0.35"/>
<path d="M44.7265 51.8261C43.3066 51.1162 41.8867 50.4062 40.4668 49.6963C41.1767 50.7612 42.2417 52.1811 42.9516 53.601L46.5013 59.9905L51.4709 54.3109L44.7265 51.8261Z" fill="white" fill-opacity="0.35"/>
<path d="M115.721 30.5278C120.691 29.8178 122.821 24.8482 122.111 19.5236C121.401 14.909 118.206 10.2944 112.881 11.0043C107.557 11.7142 105.782 16.6839 106.492 22.0084C107.202 26.9781 110.752 31.2377 115.721 30.5278Z" fill="white" fill-opacity="0.35"/>
<path d="M25.203 113.236C23.4281 113.236 22.0082 113.591 21.2983 115.011C20.2334 116.076 19.8784 117.851 19.5234 119.626C19.5234 120.336 19.5234 121.401 19.5234 122.111L29.4627 123.175C29.8176 122.465 29.8176 121.756 29.8176 120.691C30.1726 118.561 29.4627 116.786 28.3977 115.366C27.6878 113.946 26.6229 113.236 25.203 113.236Z" fill="white" fill-opacity="0.35"/>
<path d="M158.318 34.0775C162.932 35.4974 167.192 32.3027 168.967 26.9781C170.387 22.3634 169.322 17.0388 164.352 15.264C159.383 13.8441 155.478 17.3938 153.703 22.3634C151.928 27.333 153.348 32.6576 158.318 34.0775Z" fill="white" fill-opacity="0.35"/>
<path d="M237.122 95.8423C238.542 94.7774 239.606 94.0675 241.026 93.3575C239.606 93.3575 238.187 93.3575 236.412 93.3575L228.957 93.0026L231.087 100.102L237.122 95.8423Z" fill="white" fill-opacity="0.35"/>
<path d="M128.5 0C57.5055 0 0 57.5055 0 128.5C0 199.494 57.5055 257 128.5 257C199.494 257 257 199.494 257 128.5C257 57.5055 199.139 0 128.5 0ZM244.221 94.4227L223.988 109.686L222.923 106.492L229.312 101.877L226.827 93.7127L219.018 93.3577L217.953 90.163L243.156 90.8729L244.221 94.4227ZM226.472 57.5055L228.247 60.3453L219.728 65.6699L226.117 75.6091L234.637 70.2845L236.412 73.1243L216.178 85.5483L214.403 82.7086L223.988 76.674L217.598 66.7348L208.014 72.7693L205.884 69.9296L226.472 57.5055ZM210.854 40.1119L204.464 46.5014C205.174 46.8564 206.239 47.9213 206.594 48.6312C210.144 52.1809 211.918 56.7956 208.014 60.7003C206.594 62.1202 204.819 62.8301 203.044 62.8301C200.204 62.8301 197.365 61.0552 194.88 58.5704C193.46 57.1506 192.395 55.7307 191.685 55.0207L208.369 37.982L210.854 40.1119ZM174.291 39.047C176.776 38.337 179.616 34.7873 181.746 31.2376L187.07 22.7182L199.139 30.1727L186.36 50.4061L183.521 48.6312L194.88 30.5276L188.135 26.6229L184.231 32.6575C181.391 36.9171 178.196 41.8867 174.291 41.8867C173.227 41.8867 171.807 41.5318 170.387 40.8218L171.452 38.337C172.162 39.047 173.581 39.047 174.291 39.047ZM150.508 21.6533C152.638 14.5539 159.028 11.0041 165.062 13.134C171.452 14.9088 173.936 21.2983 171.807 28.0428C169.322 35.8522 163.287 38.692 157.253 36.5622C151.218 34.4323 148.378 28.3978 150.508 21.6533ZM134.889 7.80939L147.669 8.87431L147.314 11.3591L137.729 10.6492L135.599 31.9475L132.405 31.5925L134.889 7.80939ZM219.728 128.5C219.728 178.906 178.906 219.728 128.5 219.728C78.0939 219.728 37.2721 178.906 37.2721 128.5C37.2721 78.0939 78.0939 37.2721 128.5 37.2721C178.906 37.2721 219.728 78.0939 219.728 128.5ZM112.881 8.51934C119.626 7.45442 124.595 12.0691 125.305 18.8135C126.37 26.9779 122.11 31.9475 115.721 33.0124C109.331 34.0773 104.007 29.8177 103.297 22.3633C102.232 14.9088 106.137 9.22928 112.881 8.51934ZM81.6436 17.3936L85.5483 27.3329L86.6133 26.9779L90.518 14.1989L94.0677 12.779L89.453 26.268C93.3577 25.203 95.8425 26.9779 97.9724 29.4627C99.7472 31.5925 101.167 33.3674 102.942 34.7873L99.3923 35.8522C97.9724 34.7873 96.5525 33.0124 95.4876 31.2376C93.3577 28.7528 91.2279 27.3329 87.3232 28.7528L86.2583 29.1077L90.163 39.4019L87.3232 40.4668L78.8039 18.1036L81.6436 17.3936ZM67.7997 23.7831L81.2887 43.6616L78.8039 45.4365L66.7348 27.6878L59.9903 32.3025L63.895 38.337C66.7348 42.5967 69.9296 47.5663 68.1547 51.471C67.7997 52.5359 66.7348 53.6008 65.6699 54.6657L63.895 52.8909C64.605 52.1809 64.9599 51.116 65.3149 50.4061C66.0249 47.9213 63.5401 43.6616 61.4102 40.4668L56.0856 31.9475L67.7997 23.7831ZM39.7569 46.8563L63.1851 56.4406L61.0552 58.9254L53.6008 55.7307L47.9213 62.1202L51.826 68.8646L49.6961 71.7044L37.2721 49.6961L39.7569 46.8563ZM22.3633 70.2845C24.4931 66.7348 27.6878 64.9599 30.8826 66.7348C33.3674 68.1547 34.4323 70.9945 33.3674 73.8343C35.4972 70.9945 38.337 69.9296 41.5318 71.7044C45.7914 74.1892 45.4365 78.8039 43.3066 82.7086C42.2417 84.4834 40.8218 86.6133 38.692 87.6782L36.9171 85.9033C38.337 85.1934 39.7569 83.4185 40.8218 81.6436C42.5967 78.4489 41.8867 75.9641 39.7569 74.5442C36.5622 72.7693 34.0773 75.2541 32.3025 78.0939L31.5925 79.5138L30.1727 78.0939L30.8826 76.674C32.3025 73.8343 31.9475 70.6395 29.8177 69.5746C27.6878 68.5097 25.558 69.2196 24.4931 71.7044C23.4282 73.4793 23.4282 75.2541 23.4282 77.029L20.9434 76.674C20.5884 74.5442 21.2983 72.4144 22.3633 70.2845ZM15.6188 85.5483L18.1036 86.2583L14.9088 95.8425L22.0083 97.9724L24.8481 88.7431L27.3329 89.453L24.4931 98.6823L32.6575 101.167L35.8522 90.8729L38.337 91.5829L34.0773 104.717L11.3591 97.6174L15.6188 85.5483ZM9.22928 110.041L11.7141 110.396L10.6492 121.046L17.0387 121.756C17.0387 121.046 17.0387 119.626 17.0387 118.561C17.3936 116.076 18.1036 113.946 19.1685 112.526C20.5884 110.751 22.3633 109.686 25.203 110.041C27.3329 110.396 29.1077 111.106 30.1727 112.526C31.9475 114.656 32.3025 118.206 31.9475 121.401C31.5925 123.53 31.5925 125.305 31.2376 126.37L7.45442 124.24L9.22928 110.041ZM36.5622 206.949L53.2459 193.815L46.1464 184.586L29.4627 197.72L27.3329 195.235L46.1464 180.326L57.1506 194.17L38.692 209.434L36.5622 206.949ZM56.4406 212.983C55.7307 212.273 55.0207 211.919 54.6657 211.209L48.6312 218.663L46.1464 216.533L61.0552 198.075C62.4751 198.785 64.25 199.849 66.0249 201.624C68.5097 203.754 69.9296 205.529 69.9296 207.659C70.2845 209.434 69.9296 211.209 68.5097 212.983C67.0898 214.758 65.6699 215.468 63.895 215.823C61.4102 215.823 58.5704 214.758 56.4406 212.983ZM73.1243 235.702C67.4447 232.862 65.6699 226.472 68.8646 219.728C72.4144 212.983 78.8039 210.854 84.8384 213.693C90.8729 216.533 92.2928 223.278 89.0981 229.312C85.1934 236.767 78.8039 238.541 73.1243 235.702ZM110.396 245.286L108.267 253.095L105.782 252.385L106.847 246.706L91.9378 243.156L90.518 248.836L88.0331 248.126L89.808 239.961L91.5829 240.316C93.0028 238.896 94.0677 237.477 95.1326 235.702C96.5525 233.217 97.6174 230.022 98.6823 226.117L100.102 220.083L113.591 223.633L108.622 244.576L110.396 245.286ZM129.92 236.767C128.5 239.961 126.725 243.511 124.95 245.641C123.175 247.416 121.401 248.481 119.271 248.481C118.561 248.481 117.851 248.481 117.496 248.126L117.851 245.641C118.206 245.641 118.561 245.641 118.916 245.641C121.401 245.641 123.175 243.156 123.885 241.736C124.24 241.381 124.24 241.026 123.885 240.316L116.076 223.988H119.626L124.24 234.282C124.95 235.702 125.305 237.122 126.015 238.541C126.37 237.477 127.08 236.057 127.79 234.282L131.695 224.343H134.889L129.92 236.767ZM154.768 245.641C153.703 244.221 152.638 242.091 151.573 240.316C149.798 237.477 148.023 235.347 144.119 236.057H143.054L144.829 246.706L141.634 247.061L137.729 223.278L140.924 222.923L142.699 233.217H143.764L150.153 221.503L154.058 220.793L146.604 233.217C150.508 233.217 152.638 235.347 154.413 238.186C155.833 240.316 156.898 242.446 158.318 244.576L154.768 245.641ZM183.521 242.091L181.036 236.767L165.417 243.156L156.543 221.148L159.383 220.083L167.547 239.961L177.841 235.702L169.677 215.823L172.517 214.758L181.036 234.282L183.166 233.572L186.006 241.381L183.521 242.091ZM204.464 222.213L198.43 214.048C196.3 210.854 194.525 208.724 193.105 205.884C193.815 208.724 193.815 211.918 194.17 215.113L194.88 229.312L192.04 231.442L178.196 211.919L180.681 210.144L186.715 218.308C188.845 221.503 190.62 223.988 192.395 226.827C192.04 223.988 191.685 221.148 191.33 217.598L190.62 203.044L193.105 201.269L206.949 220.793L204.464 222.213ZM221.858 205.174L214.048 198.43L212.628 200.204C211.564 201.269 211.209 202.334 211.209 203.754C211.209 206.239 213.338 209.079 214.758 211.209C215.113 211.919 215.113 212.273 215.468 212.983L212.983 215.113C212.628 214.403 212.273 213.693 211.919 212.983C210.499 210.499 208.369 207.659 208.369 204.819C208.369 204.109 208.369 203.044 208.724 202.334C206.239 204.109 203.044 204.464 200.559 202.334C199.139 200.914 198.43 199.139 198.43 197.365C198.43 195.59 199.849 193.105 201.624 190.975C203.044 189.555 204.464 187.78 205.884 187.07L223.633 202.689L221.858 205.174ZM225.407 128.5L225.052 125.305L235.347 124.595V122.11C235.347 120.691 234.992 119.626 233.927 118.561C232.152 117.141 228.602 116.431 226.117 115.721C225.407 115.366 225.052 115.366 224.343 115.011L223.988 111.816C224.697 112.171 225.407 112.526 226.117 112.526C228.957 113.236 232.152 113.946 234.282 115.721C234.992 116.431 235.347 116.786 235.702 117.496C236.057 114.301 237.831 111.816 241.026 111.816C243.156 111.816 244.931 112.526 245.996 113.591C247.416 115.011 248.126 117.496 248.481 120.336C248.481 122.465 248.481 124.595 248.481 126.37L225.407 128.5Z" fill="white" fill-opacity="0.35"/>
<path d="M203.754 192.75C201.624 195.235 200.914 197.72 203.399 200.204C205.529 201.979 208.369 201.269 210.853 198.784C211.563 198.075 212.273 197.365 212.628 196.655L205.884 190.62C205.174 190.975 204.464 191.685 203.754 192.75Z" fill="white" fill-opacity="0.35"/>
<path d="M241.736 115.366C238.896 115.721 237.476 118.206 237.831 121.755C237.831 122.82 237.831 123.885 238.186 124.595L246.705 123.885C246.705 123.175 246.705 122.465 246.705 121.045C246.35 117.496 244.93 115.011 241.736 115.366Z" fill="white" fill-opacity="0.35"/>
<path d="M205.529 58.2156C208.013 55.3758 206.948 52.1811 204.464 50.0512C203.754 49.3413 203.044 48.9863 202.334 48.2764L195.234 55.3758C195.589 56.0858 196.299 56.4407 197.009 57.5056C199.849 59.9905 203.044 60.7004 205.529 58.2156Z" fill="white" fill-opacity="0.35"/>
</svg>
