<svg width="147" height="153" viewBox="0 0 147 153" fill="none" xmlns="http://www.w3.org/2000/svg">
<path d="M81.4544 96.5457C67.1816 96.5457 53.727 96.182 43.5452 95.5457C38.6361 95.2729 34.727 94.9093 31.9088 94.4548C28.6361 94.0002 26.2725 93.4547 26.2725 91.5457V67.4547C26.2725 66.5456 26.9997 65.8184 27.9088 65.8184H134.818C135.727 65.8184 136.454 66.5456 136.454 67.4547V91.5457C136.454 93.4547 134.091 94.0002 130.818 94.4548C128.091 94.8184 124.182 95.182 119.273 95.5457C109.273 96.2729 95.818 96.5457 81.4544 96.5457ZM29.6361 90.8184C33.3634 91.9093 52.1816 93.2729 81.4544 93.2729C110.727 93.2729 129.545 91.9093 133.273 90.8184V69.182H29.6361V90.8184Z" fill="white"/>
<path d="M81.4543 147C67.0906 147 53.636 146.364 43.4542 145.273C27.636 143.546 26.3633 141.364 26.3633 139.455V91.6364C26.3633 90.7273 27.0906 90 27.9996 90C28.5451 90 28.9996 90.2727 29.2724 90.6364C32.0906 91.7273 51.1815 93.2727 81.4543 93.2727C111.636 93.2727 130.727 91.8182 133.636 90.6364C133.909 90.2727 134.454 90 134.909 90C135.818 90 136.545 90.7273 136.545 91.6364V139.455C136.545 141.364 135.182 143.546 119.454 145.273C109.363 146.364 95.8179 147 81.4543 147ZM29.636 139.091C32.2724 141.091 51.1815 143.727 81.4543 143.727C111.727 143.727 130.636 141.091 133.273 139.091V94.1818C132.545 94.3636 131.818 94.4546 130.909 94.5455C128.182 94.9091 124.273 95.2727 119.363 95.6364C109.272 96.2727 95.727 96.6364 81.4543 96.6364C67.1815 96.6364 53.7269 96.2727 43.5451 95.6364C38.636 95.3637 34.7269 95 31.9087 94.5455C31.0906 94.4546 30.2724 94.2727 29.5451 94.1818V139.091H29.636Z" fill="white"/>
<path d="M81.4543 109.636C67.1815 109.636 53.7269 109.273 43.5451 108.636C38.636 108.364 34.7269 108 31.9997 107.545C28.7269 107.091 26.3633 106.545 26.3633 104.636C26.3633 103.727 27.0906 103 27.9996 103C28.5451 103 28.9996 103.273 29.2724 103.636C32.0906 104.727 51.1815 106.273 81.4543 106.273C111.727 106.273 130.727 104.818 133.636 103.636C133.909 103.273 134.454 103 134.909 103C135.818 103 136.545 103.727 136.545 104.636C136.545 106.545 134.182 107.091 130.909 107.545C128.182 107.909 124.273 108.273 119.363 108.636C109.272 109.364 95.8179 109.636 81.4543 109.636Z" fill="white"/>
<path d="M135 62.6375H27.9996C27.0906 62.6375 26.3633 61.9102 26.3633 61.0011C26.3633 56.7284 31.0906 52.7284 40.4542 49.0011C40.9997 48.8193 41.5451 48.9102 41.9997 49.1829C42.4542 49.4556 42.7269 50.0011 42.7269 50.5465V52.092C42.7269 53.092 43.5451 53.9102 44.3633 53.9102C44.8179 53.9102 45.1815 53.7284 45.5451 53.4556C45.7269 53.2738 45.9997 52.8193 45.9997 52.2738V48.2738C45.9997 47.5465 46.4542 46.9102 47.1815 46.7284C57.1815 43.6374 67.4542 41.9102 71.9997 41.9102H90.9997C94.8179 41.9102 101.727 43.0011 108.727 44.7283C110 45.0011 111.636 45.4556 113.272 45.9102C114.636 46.2738 115.818 46.6374 117 47.092C129.727 51.1829 136.273 55.7284 136.454 60.7284C136.454 60.8193 136.454 60.9102 136.454 61.0011C136.636 61.9102 135.909 62.6375 135 62.6375ZM30.1815 59.3647H132.818C131.091 56.4556 125.091 53.1829 116.091 50.1829C114.909 49.8193 113.727 49.4556 112.454 49.092C110.818 48.6374 109.182 48.1829 108 47.9102C101.363 46.2738 94.5452 45.1829 90.9997 45.1829H71.9997C67.8179 45.1829 58.3633 46.8193 49.2724 49.4556V52.2738C49.2724 53.5465 48.7269 54.8193 47.8178 55.7284C46.9997 56.5465 45.8178 57.092 44.636 57.1829C44.5451 57.1829 44.4542 57.1829 44.3633 57.1829C41.9997 57.1829 39.9088 55.2738 39.5451 52.9102C34.636 55.1829 31.3633 57.3647 30.1815 59.3647Z" fill="white"/>
<path d="M135.818 69.1823H27.1816C25.5452 69.1823 24.2725 67.8187 24.2725 66.2733V62.3642C24.2725 60.7278 25.6361 59.4551 27.1816 59.4551H135.818C137.454 59.4551 138.727 60.8187 138.727 62.3642V66.2733C138.727 67.9096 137.454 69.1823 135.818 69.1823ZM27.4543 65.9096H135.454V62.6369H27.4543V65.9096Z" fill="white"/>
<path d="M90.9999 31.8182H71.9999C71.0908 31.8182 70.3635 31.0909 70.3635 30.1818V14.2727L67.2726 9.45456C66.909 8.9091 66.909 8.27272 67.1817 7.81818C67.4544 7.27272 67.9999 7 68.6363 7H94.8181C95.4545 7 95.9999 7.36364 96.2727 7.90909C96.5454 8.45455 96.4545 9.09091 96.1818 9.63636L92.6363 14.4546V30.2728C92.6363 31.0909 91.909 31.8182 90.9999 31.8182ZM73.6363 28.5455H89.3636V13.8182C89.3636 13.4546 89.4545 13.0909 89.6363 12.8182L91.5454 10.1818H71.5454L73.2726 12.9091C73.4544 13.1818 73.5454 13.4546 73.5454 13.8182V28.5455H73.6363Z" fill="white"/>
<path d="M90.9997 45.1818H71.9996C71.0906 45.1818 70.3633 44.4546 70.3633 43.5455V36.6364C70.3633 35.7273 71.0906 35 71.9996 35H90.9997C91.9088 35 92.636 35.7273 92.636 36.6364V43.5455C92.636 44.4546 91.9088 45.1818 90.9997 45.1818ZM73.636 41.9091H89.3633V38.2727H73.636V41.9091Z" fill="white"/>
<path d="M93.4546 38.364H69.9091C68.2727 38.364 67 37.0004 67 35.4549V31.5458C67 29.9095 68.3636 28.6367 69.9091 28.6367H93.4546C95.091 28.6367 96.3637 30.0004 96.3637 31.5458V35.4549C96.4546 37.0004 95.091 38.364 93.4546 38.364ZM70.2727 35.0913H93.1819V31.8185H70.2727V35.0913Z" fill="white"/>
<path d="M17.1818 143.728H10.6364C9.72728 143.728 9 143.001 9 142.092V40.0007C9 31.9098 15.6364 25.2734 23.7273 25.2734H31.3637C41.2728 25.2734 49.2728 33.2734 49.2728 43.1825V52.3644C49.2728 53.6371 48.7273 54.9098 47.8182 55.8189C47 56.6371 45.8182 57.1826 44.6364 57.2735C44.5455 57.2735 44.4546 57.2735 44.3637 57.2735C41.7273 57.2735 39.4546 54.9098 39.4546 52.1826V43.1825C39.4546 38.728 35.8182 35.0916 31.3637 35.0916H23.7273C21 35.0916 18.8182 37.2734 18.8182 40.0007V142.092C18.8182 143.001 18.0909 143.728 17.1818 143.728ZM12.2727 140.455H15.5455V40.0007C15.5455 35.4553 19.1818 31.8189 23.7273 31.8189H31.3637C37.6364 31.8189 42.7273 36.9098 42.7273 43.1825V52.1826C42.7273 53.1826 43.5455 54.0007 44.3637 54.0007C44.8182 54.0007 45.1819 53.8189 45.5455 53.5462C45.7273 53.3644 46 52.9098 46 52.3644V43.1825C46 35.0916 39.4546 28.5462 31.3637 28.5462H23.7273C17.4546 28.5462 12.2727 33.728 12.2727 40.0007V140.455Z" fill="white"/>
<path d="M124.182 40.0002C116.909 40.0002 111.091 34.0911 111.091 26.9093C111.091 19.6365 117 13.8184 124.182 13.8184C131.364 13.8184 137.273 19.7275 137.273 26.9093C137.273 34.0911 131.454 40.0002 124.182 40.0002ZM124.182 17.0002C118.727 17.0002 114.364 21.4547 114.364 26.8184C114.364 32.2729 118.818 36.6366 124.182 36.6366C129.636 36.6366 134 32.182 134 26.8184C134 21.4547 129.636 17.0002 124.182 17.0002Z" fill="white"/>
<path d="M124.182 23.2724C123.273 23.2724 122.546 22.5451 122.546 21.636V18.9997C122.546 18.0906 123.273 17.3633 124.182 17.3633C125.091 17.3633 125.819 18.0906 125.819 18.9997V21.636C125.819 22.5451 125.091 23.2724 124.182 23.2724Z" fill="white"/>
<path d="M118.999 28.5462H116.363C115.454 28.5462 114.727 27.8189 114.727 26.9098C114.727 26.0007 115.454 25.2734 116.363 25.2734H118.999C119.908 25.2734 120.636 26.0007 120.636 26.9098C120.636 27.8189 119.817 28.5462 118.999 28.5462Z" fill="white"/>
<path d="M124.182 36.3622C123.273 36.3622 122.546 35.635 122.546 34.7259V32.0895C122.546 31.1804 123.273 30.4531 124.182 30.4531C125.091 30.4531 125.819 31.1804 125.819 32.0895V34.7259C125.819 35.635 125.091 36.3622 124.182 36.3622Z" fill="white"/>
<path d="M132.091 28.5462H129.455C128.546 28.5462 127.818 27.8189 127.818 26.9098C127.818 26.0007 128.546 25.2734 129.455 25.2734H132.091C133 25.2734 133.727 26.0007 133.727 26.9098C133.727 27.8189 132.909 28.5462 132.091 28.5462Z" fill="white"/>
<path d="M114.818 49.7266C114.636 49.7266 114.545 49.7266 114.363 49.6357C112.363 48.9993 110.182 48.4539 108 47.9084C107.545 47.8175 107.182 47.5448 107 47.1811C106.818 46.8175 106.727 46.3629 106.818 45.9084C106.909 45.4539 107.091 44.9993 107.363 44.6357L113.818 33.9993C114 33.7266 114.182 33.4538 114.363 33.272C114.636 32.9084 115.091 32.7266 115.636 32.7266C116.091 32.7266 116.545 32.9084 116.818 33.272C118 34.7266 119.636 35.7266 121.454 36.272C121.909 36.363 122.272 36.7266 122.454 37.0902C122.636 37.4539 122.636 37.9993 122.545 38.3629C122.454 38.5448 122.363 38.7266 122.272 38.9993L116.272 48.9084C115.909 49.4539 115.363 49.7266 114.818 49.7266ZM110.727 45.272C111.818 45.5448 112.909 45.9084 114 46.1811L118.454 38.7266C117.454 38.272 116.545 37.6357 115.727 36.9993L110.727 45.272Z" fill="white"/>
<path d="M124.183 28.5453C123.819 28.5453 123.364 28.4544 123.092 28.0908C122.455 27.4544 122.364 26.4544 122.91 25.818L126.274 22.0908C126.91 21.4544 127.91 21.3635 128.546 21.9089C129.183 22.5453 129.274 23.5453 128.728 24.1817L125.364 27.9089C125.092 28.3635 124.637 28.5453 124.183 28.5453Z" fill="white"/>
</svg>
