<svg width="147" height="153" viewBox="0 0 147 153" fill="none" xmlns="http://www.w3.org/2000/svg">
<path d="M63.337 129.215C41.0168 129.215 19.7855 122.501 4.90541 110.797C3.63516 109.799 3 108.347 3 106.805V41.4773C3 39.8441 3.72589 38.3924 4.90541 37.4851C19.6948 25.7806 41.0168 19.0664 63.337 19.0664C85.6572 19.0664 106.979 25.7806 121.769 37.4851C123.039 38.4831 123.674 39.9348 123.674 41.4773V106.805C123.674 108.438 122.948 109.889 121.769 110.797C106.979 122.501 85.6572 129.215 63.337 129.215ZM63.337 22.3328C41.7427 22.3328 21.2372 28.7748 6.99225 40.0256C6.53858 40.3885 6.2664 40.9329 6.2664 41.4773V106.805C6.2664 107.349 6.53858 107.893 6.99225 108.256C21.2372 119.507 41.8334 125.949 63.337 125.949C84.9313 125.949 105.437 119.507 119.682 108.256C120.135 107.893 120.408 107.349 120.408 106.805V41.4773C120.408 40.9329 120.135 40.3885 119.682 40.0256C105.528 28.7748 84.9313 22.3328 63.337 22.3328Z" fill="white"/>
<path d="M122.041 65.3395C121.134 65.3395 120.408 64.6136 120.408 63.7063C120.408 63.6156 120.317 63.4341 119.954 63.2526C105.618 55.5404 85.022 51.0945 63.337 51.0945C41.652 51.0945 21.0558 55.5404 6.72006 63.2526C6.35713 63.4341 6.2664 63.6156 6.2664 63.7063C6.2664 64.6136 5.54049 65.3395 4.63317 65.3395C3.72585 65.3395 3 64.6136 3 63.7063C3 62.3453 3.81661 61.1658 5.1776 60.3492C19.967 52.3647 41.1076 47.8281 63.337 47.8281C85.5664 47.8281 106.707 52.3647 121.496 60.3492C122.857 61.075 123.674 62.3453 123.674 63.7063C123.674 64.6136 122.948 65.3395 122.041 65.3395Z" fill="white"/>
<path d="M63.337 100.363C41.1076 100.363 19.967 95.8263 5.1776 87.8418C3.81661 87.116 3 85.8457 3 84.4847C3 83.5774 3.72585 82.8516 4.63317 82.8516C5.54049 82.8516 6.2664 83.5774 6.2664 84.4847C6.2664 84.5755 6.35713 84.7569 6.72006 84.9384C21.0558 92.6507 41.652 97.0965 63.337 97.0965C85.022 97.0965 105.618 92.6507 119.954 84.9384C120.317 84.7569 120.408 84.5755 120.408 84.4847C120.408 83.5774 121.134 82.8516 122.041 82.8516C122.948 82.8516 123.674 83.5774 123.674 84.4847C123.674 85.8457 122.857 87.0253 121.496 87.8418C106.798 95.8263 85.5664 100.363 63.337 100.363Z" fill="white"/>
<path d="M138.463 103.993H122.04C121.133 103.993 120.407 103.267 120.407 102.359V96.0082C120.407 95.1009 121.133 94.375 122.04 94.375H138.463C141.094 94.375 143.272 96.5526 143.272 99.1838C143.272 101.815 141.094 103.993 138.463 103.993ZM123.674 100.726H138.463C139.28 100.726 140.005 100 140.005 99.1838C140.005 98.3672 139.28 97.6414 138.463 97.6414H123.674V100.726Z" fill="white"/>
<path d="M135.106 111.978H128.574C127.666 111.978 126.94 111.252 126.94 110.345V102.27C126.94 101.363 127.666 100.637 128.574 100.637H135.106C136.014 100.637 136.74 101.363 136.74 102.27V110.345C136.74 111.252 136.014 111.978 135.106 111.978ZM130.207 108.712H133.473V103.903H130.207V108.712Z" fill="white"/>
<path d="M135.106 97.6415H128.573C127.666 97.6415 126.94 96.9156 126.94 96.0083V90.2922C125.851 89.1127 125.307 87.5702 125.307 85.937C125.307 82.3077 128.301 79.4043 131.839 79.4043C135.469 79.4043 138.372 82.3985 138.372 85.937C138.372 87.5702 137.737 89.1127 136.739 90.2922V96.0083C136.739 96.9156 136.013 97.6415 135.106 97.6415ZM130.206 94.3751H133.473V89.5663C133.473 89.1127 133.654 88.659 134.017 88.3868C134.743 87.7517 135.106 86.8443 135.106 85.937C135.106 84.1224 133.654 82.6707 131.839 82.6707C130.025 82.6707 128.573 84.1224 128.573 85.937C128.573 86.8443 128.936 87.7517 129.662 88.3868C130.025 88.659 130.206 89.1127 130.206 89.5663V94.3751Z" fill="white"/>
<path d="M22.5981 146.999H7.80868C6.62916 146.999 5.54037 146.274 5.08671 145.185C4.63304 144.096 4.90525 142.826 5.72184 142.009L27.1347 120.596C27.5884 120.143 28.2235 119.961 28.8586 120.233C33.3952 121.867 38.204 123.137 43.1036 124.135C43.7387 124.226 44.1924 124.679 44.3739 125.224C44.5553 125.768 44.3738 126.403 44.0109 126.857L24.6849 146.183C24.1405 146.636 23.4147 146.999 22.5981 146.999ZM8.62529 143.733H22.5073L39.565 126.675C35.845 125.859 32.2157 124.77 28.7679 123.59L8.62529 143.733Z" fill="white"/>
<path d="M118.866 147H104.076C103.35 147 102.534 146.728 101.989 146.184L82.6634 126.858C82.2098 126.404 82.1191 125.769 82.3005 125.224C82.482 124.68 82.9356 124.226 83.5707 124.136C88.4703 123.138 93.2791 121.867 97.8157 120.234C98.4509 120.053 99.086 120.143 99.5397 120.597L120.952 142.01C121.769 142.826 122.041 144.097 121.588 145.186C121.134 146.274 120.045 147 118.866 147ZM104.258 143.734H118.14L97.9972 123.591C94.5494 124.771 90.9201 125.86 87.2 126.676L104.258 143.734Z" fill="white"/>
<path d="M131.84 131.849C127.213 131.849 124.31 129.49 124.31 125.589C124.31 121.868 129.572 115.88 130.661 114.701C131.296 113.975 132.475 113.975 133.111 114.701C134.199 115.88 139.462 121.959 139.462 125.589C139.371 129.399 136.468 131.849 131.84 131.849ZM131.84 118.33C129.753 120.87 127.576 124.137 127.576 125.679C127.576 127.675 129.028 128.673 131.84 128.673C134.653 128.673 136.105 127.675 136.105 125.679C136.105 124.137 133.836 120.78 131.84 118.33Z" fill="white"/>
<path d="M59.2545 22.4245C58.4379 22.4245 57.8028 21.8801 57.6213 21.0635L55.716 8.81465C55.6253 8.36099 55.8067 7.90733 56.0789 7.5444C56.3511 7.18147 56.8048 7 57.3492 7H69.4165C69.8702 7 70.3239 7.18147 70.6868 7.5444C70.959 7.90733 71.1405 8.36099 71.0497 8.81465L69.1444 21.0635C69.0536 21.8801 68.3278 22.5152 67.5112 22.4245C64.7892 22.3338 61.9765 22.3338 59.2545 22.4245ZM63.3375 19.0674C64.2448 19.0674 65.1521 19.0674 66.0594 19.0674L67.4204 10.0849H59.1638L60.5248 19.0674C61.5228 19.0674 62.4301 19.0674 63.3375 19.0674Z" fill="white"/>
<path d="M45.1899 127.674C45.0992 127.674 45.0085 127.674 44.9177 127.674L42.5587 127.22C37.8406 126.313 33.2132 125.043 28.8581 123.5C28.223 123.319 27.86 122.775 27.7693 122.139C26.3176 107.441 25.501 90.8368 25.501 74.0513C25.501 57.2658 26.3176 40.6618 27.7693 25.9632C27.86 25.328 28.223 24.7836 28.8581 24.6022C34.0298 22.7875 39.383 21.4265 44.9177 20.5192C45.4621 20.4285 45.9158 20.6099 46.2787 20.9729C46.6416 21.3358 46.8231 21.7895 46.8231 22.3339C45.0992 37.8491 44.1919 55.7234 44.1919 74.0513C44.1919 92.2885 45.0992 110.072 46.8231 125.587C46.8231 125.678 46.9138 125.859 46.9138 126.041C46.8231 126.948 46.0972 127.674 45.1899 127.674ZM30.9449 120.778C34.8464 122.139 38.9294 123.137 43.1938 123.954H43.3753C41.7421 108.802 40.9255 91.6534 40.9255 74.0513C40.9255 56.4492 41.7421 39.2101 43.3753 24.1485C39.1108 24.9651 34.9371 26.0539 30.9449 27.4149C29.5839 41.7506 28.7674 57.9009 28.7674 74.142C28.7674 90.3831 29.4932 106.533 30.9449 120.778Z" fill="white"/>
<path d="M83.3886 127.401C83.0257 127.401 82.6627 127.31 82.3905 127.038C82.0276 126.765 81.7554 126.312 81.7554 125.858C80.1222 109.98 79.3057 92.1057 79.3057 74.1407C79.3057 56.1757 80.1222 38.3014 81.7554 22.4232C81.8461 21.9696 82.0276 21.5159 82.3905 21.2437C82.7535 20.9715 83.2071 20.8808 83.6608 20.9715C89.2862 22.0603 94.7301 23.512 99.9019 25.5081C100.628 25.7803 100.991 26.4155 100.991 27.2321C99.6297 41.84 98.9945 57.7181 98.9945 74.2314C98.9945 90.7447 99.6297 106.532 100.991 121.231C101.081 121.957 100.628 122.592 99.9926 122.864C99.6297 123.045 99.2668 123.136 98.9038 123.227C94.2765 124.951 89.2862 126.312 84.2052 127.219L83.7515 127.31C83.6608 127.31 83.5701 127.401 83.3886 127.401ZM84.8403 24.5101C83.3886 39.8439 82.572 56.9923 82.572 74.1407C82.572 91.2891 83.3886 108.437 84.8403 123.771C89.1955 122.864 93.5506 121.684 97.6336 120.233C96.3633 105.806 95.7282 90.291 95.7282 74.1407C95.7282 57.9903 96.3633 42.4751 97.6336 28.0486C93.5506 26.5969 89.2862 25.4174 84.8403 24.5101Z" fill="white"/>
<path d="M97.9967 141.465H28.6771C28.042 141.465 27.4069 141.102 27.1347 140.467C26.8625 139.832 27.044 139.197 27.4976 138.652L34.0304 132.12C34.3026 131.847 34.7562 131.666 35.2099 131.666H91.4639C91.9176 131.666 92.2805 131.847 92.6434 132.12L99.0855 138.562C99.4484 138.834 99.7206 139.288 99.7206 139.832C99.7206 140.739 98.904 141.465 97.9967 141.465ZM32.6694 138.199H94.0952L90.8288 134.932H35.9357L32.6694 138.199Z" fill="white"/>
</svg>
